<?xml version="1.0" encoding="UTF-8" standalone="yes"?>
<!-- Created with sK1/UniConvertor (http://sk1project.org/) -->
<svg xmlns="http://www.w3.org/2000/svg" xmlns:xlink="http://www.w3.org/1999/xlink"
  width="800pt" height="800pt" viewBox="0 0 800 800"
  fill-rule="evenodd">
<g>
<g>
<path style="stroke:none; fill:#000000" d="M 64 102.5L 64 141L 102.5 141L 141 141L 141 102.5L 141 64L 102.5 64L 64 64L 64 102.5zM 130 102.5L 130 130L 102.5 130L 75 130L 75 102.5L 75 75L 102.5 75L 130 75L 130 102.5z"/>
<path style="stroke:none; fill:#000000" d="M 86 102.5L 86 119L 102.5 119L 119 119L 119 102.5L 119 86L 102.5 86L 86 86L 86 102.5z"/>
<path style="stroke:none; fill:#000000" d="M 163 75L 163 86L 157.5 86L 152 86L 152 119L 152 152L 157.5 152L 163 152L 163 141L 163 130L 168.5 130L 174 130L 174 146.5L 174 163L 168.5 163L 163 163L 163 168.5L 163 174L 157.5 174L 152 174L 152 168.5L 152 163L 146.5 163L 141 163L 141 157.5L 141 152L 113.5 152L 86 152L 86 157.5L 86 163L 91.5 163L 97 163L 97 168.5L 97 174L 86 174L 75 174L 75 163L 75 152L 69.5 152L 64 152L 64 163L 64 174L 69.5 174L 75 174L 75 185L 75 196L 69.5 196L 64 196L 64 212.5L 64 229L 69.5 229L 75 229L 75 234.5L 75 240L 80.5 240L 86 240L 86 234.5L 86 229L 80.5 229L 75 229L 75 223.5L 75 218L 80.5 218L 86 218L 86 212.5L 86 207L 91.5 207L 97 207L 97 212.5L 97 218L 102.5 218L 108 218L 108 223.5L 108 229L 102.5 229L 97 229L 97 240L 97 251L 86 251L 75 251L 75 262L 75 273L 69.5 273L 64 273L 64 278.5L 64 284L 75 284L 86 284L 86 289.5L 86 295L 80.5 295L 75 295L 75 300.5L 75 306L 86 306L 97 306L 97 311.5L 97 317L 91.5 317L 86 317L 86 333.5L 86 350L 80.5 350L 75 350L 75 344.5L 75 339L 69.5 339L 64 339L 64 350L 64 361L 69.5 361L 75 361L 75 366.5L 75 372L 69.5 372L 64 372L 64 394L 64 416L 69.5 416L 75 416L 75 410.5L 75 405L 86 405L 97 405L 97 399.5L 97 394L 102.5 394L 108 394L 108 405L 108 416L 97 416L 86 416L 86 421.5L 86 427L 80.5 427L 75 427L 75 432.5L 75 438L 69.5 438L 64 438L 64 504L 64 570L 75 570L 86 570L 86 559L 86 548L 91.5 548L 97 548L 97 542.5L 97 537L 102.5 537L 108 537L 108 553.5L 108 570L 113.5 570L 119 570L 119 575.5L 119 581L 130 581L 141 581L 141 586.5L 141 592L 124.5 592L 108 592L 108 586.5L 108 581L 102.5 581L 97 581L 97 586.5L 97 592L 86 592L 75 592L 75 586.5L 75 581L 69.5 581L 64 581L 64 586.5L 64 592L 69.5 592L 75 592L 75 597.5L 75 603L 80.5 603L 86 603L 86 614L 86 625L 75 625L 64 625L 64 636L 64 647L 86 647L 108 647L 108 641.5L 108 636L 113.5 636L 119 636L 119 630.5L 119 625L 130 625L 141 625L 141 619.5L 141 614L 146.5 614L 152 614L 152 636L 152 658L 157.5 658L 163 658L 163 652.5L 163 647L 168.5 647L 174 647L 174 658L 174 669L 179.5 669L 185 669L 185 663.5L 185 658L 201.5 658L 218 658L 218 652.5L 218 647L 223.5 647L 229 647L 229 652.5L 229 658L 240 658L 251 658L 251 663.5L 251 669L 245.5 669L 240 669L 240 680L 240 691L 245.5 691L 251 691L 251 680L 251 669L 256.5 669L 262 669L 262 658L 262 647L 256.5 647L 251 647L 251 641.5L 251 636L 256.5 636L 262 636L 262 630.5L 262 625L 267.5 625L 273 625L 273 630.5L 273 636L 278.5 636L 284 636L 284 641.5L 284 647L 278.5 647L 273 647L 273 674.5L 273 702L 267.5 702L 262 702L 262 707.5L 262 713L 251 713L 240 713L 240 718.5L 240 724L 234.5 724L 229 724L 229 713L 229 702L 223.5 702L 218 702L 218 691L 218 680L 212.5 680L 207 680L 207 702L 207 724L 201.5 724L 196 724L 196 729.5L 196 735L 201.5 735L 207 735L 207 729.5L 207 724L 218 724L 229 724L 229 729.5L 229 735L 234.5 735L 240 735L 240 729.5L 240 724L 245.5 724L 251 724L 251 729.5L 251 735L 267.5 735L 284 735L 284 729.5L 284 724L 306 724L 328 724L 328 729.5L 328 735L 350 735L 372 735L 372 724L 372 713L 366.5 713L 361 713L 361 707.5L 361 702L 372 702L 383 702L 383 696.5L 383 691L 388.5 691L 394 691L 394 707.5L 394 724L 399.5 724L 405 724L 405 718.5L 405 713L 410.5 713L 416 713L 416 707.5L 416 702L 427 702L 438 702L 438 696.5L 438 691L 443.5 691L 449 691L 449 685.5L 449 680L 454.5 680L 460 680L 460 685.5L 460 691L 465.5 691L 471 691L 471 685.5L 471 680L 476.5 680L 482 680L 482 685.5L 482 691L 487.5 691L 493 691L 493 696.5L 493 702L 504 702L 515 702L 515 707.5L 515 713L 509.5 713L 504 713L 504 724L 504 735L 509.5 735L 515 735L 515 729.5L 515 724L 526 724L 537 724L 537 729.5L 537 735L 542.5 735L 548 735L 548 729.5L 548 724L 553.5 724L 559 724L 559 729.5L 559 735L 570 735L 581 735L 581 729.5L 581 724L 570 724L 559 724L 559 718.5L 559 713L 564.5 713L 570 713L 570 702L 570 691L 575.5 691L 581 691L 581 702L 581 713L 586.5 713L 592 713L 592 724L 592 735L 597.5 735L 603 735L 603 724L 603 713L 608.5 713L 614 713L 614 707.5L 614 702L 603 702L 592 702L 592 696.5L 592 691L 597.5 691L 603 691L 603 685.5L 603 680L 608.5 680L 614 680L 614 685.5L 614 691L 619.5 691L 625 691L 625 696.5L 625 702L 630.5 702L 636 702L 636 707.5L 636 713L 630.5 713L 625 713L 625 718.5L 625 724L 619.5 724L 614 724L 614 729.5L 614 735L 619.5 735L 625 735L 625 729.5L 625 724L 641.5 724L 658 724L 658 718.5L 658 713L 652.5 713L 647 713L 647 707.5L 647 702L 658 702L 669 702L 669 707.5L 669 713L 674.5 713L 680 713L 680 718.5L 680 724L 674.5 724L 669 724L 669 729.5L 669 735L 674.5 735L 680 735L 680 729.5L 680 724L 696.5 724L 713 724L 713 729.5L 713 735L 724 735L 735 735L 735 729.5L 735 724L 729.5 724L 724 724L 724 718.5L 724 713L 729.5 713L 735 713L 735 696.5L 735 680L 729.5 680L 724 680L 724 685.5L 724 691L 718.5 691L 713 691L 713 696.5L 713 702L 718.5 702L 724 702L 724 707.5L 724 713L 713 713L 702 713L 702 707.5L 702 702L 696.5 702L 691 702L 691 696.5L 691 691L 696.5 691L 702 691L 702 680L 702 669L 713 669L 724 669L 724 663.5L 724 658L 713 658L 702 658L 702 652.5L 702 647L 696.5 647L 691 647L 691 641.5L 691 636L 685.5 636L 680 636L 680 630.5L 680 625L 696.5 625L 713 625L 713 619.5L 713 614L 724 614L 735 614L 735 603L 735 592L 729.5 592L 724 592L 724 586.5L 724 581L 729.5 581L 735 581L 735 575.5L 735 570L 729.5 570L 724 570L 724 564.5L 724 559L 729.5 559L 735 559L 735 553.5L 735 548L 724 548L 713 548L 713 559L 713 570L 696.5 570L 680 570L 680 575.5L 680 581L 691 581L 702 581L 702 592L 702 603L 707.5 603L 713 603L 713 608.5L 713 614L 696.5 614L 680 614L 680 608.5L 680 603L 685.5 603L 691 603L 691 597.5L 691 592L 685.5 592L 680 592L 680 597.5L 680 603L 674.5 603L 669 603L 669 586.5L 669 570L 663.5 570L 658 570L 658 581L 658 592L 652.5 592L 647 592L 647 581L 647 570L 630.5 570L 614 570L 614 575.5L 614 581L 608.5 581L 603 581L 603 575.5L 603 570L 597.5 570L 592 570L 592 564.5L 592 559L 614 559L 636 559L 636 542.5L 636 526L 641.5 526L 647 526L 647 520.5L 647 515L 663.5 515L 680 515L 680 504L 680 493L 674.5 493L 669 493L 669 498.5L 669 504L 652.5 504L 636 504L 636 498.5L 636 493L 647 493L 658 493L 658 487.5L 658 482L 652.5 482L 647 482L 647 476.5L 647 471L 663.5 471L 680 471L 680 460L 680 449L 685.5 449L 691 449L 691 454.5L 691 460L 702 460L 713 460L 713 449L 713 438L 707.5 438L 702 438L 702 443.5L 702 449L 696.5 449L 691 449L 691 443.5L 691 438L 685.5 438L 680 438L 680 432.5L 680 427L 685.5 427L 691 427L 691 421.5L 691 416L 696.5 416L 702 416L 702 421.5L 702 427L 713 427L 724 427L 724 438L 724 449L 729.5 449L 735 449L 735 432.5L 735 416L 718.5 416L 702 416L 702 410.5L 702 405L 713 405L 724 405L 724 399.5L 724 394L 707.5 394L 691 394L 691 388.5L 691 383L 696.5 383L 702 383L 702 372L 702 361L 707.5 361L 713 361L 713 355.5L 713 350L 718.5 350L 724 350L 724 355.5L 724 361L 729.5 361L 735 361L 735 344.5L 735 328L 713 328L 691 328L 691 333.5L 691 339L 685.5 339L 680 339L 680 344.5L 680 350L 685.5 350L 691 350L 691 361L 691 372L 685.5 372L 680 372L 680 366.5L 680 361L 674.5 361L 669 361L 669 355.5L 669 350L 652.5 350L 636 350L 636 355.5L 636 361L 641.5 361L 647 361L 647 366.5L 647 372L 641.5 372L 636 372L 636 377.5L 636 383L 630.5 383L 625 383L 625 377.5L 625 372L 619.5 372L 614 372L 614 366.5L 614 361L 619.5 361L 625 361L 625 355.5L 625 350L 619.5 350L 614 350L 614 355.5L 614 361L 608.5 361L 603 361L 603 355.5L 603 350L 586.5 350L 570 350L 570 355.5L 570 361L 575.5 361L 581 361L 581 366.5L 581 372L 570 372L 559 372L 559 366.5L 559 361L 553.5 361L 548 361L 548 355.5L 548 350L 553.5 350L 559 350L 559 344.5L 559 339L 570 339L 581 339L 581 333.5L 581 328L 592 328L 603 328L 603 333.5L 603 339L 625 339L 647 339L 647 333.5L 647 328L 658 328L 669 328L 669 322.5L 669 317L 674.5 317L 680 317L 680 311.5L 680 306L 685.5 306L 691 306L 691 311.5L 691 317L 702 317L 713 317L 713 311.5L 713 306L 718.5 306L 724 306L 724 311.5L 724 317L 729.5 317L 735 317L 735 278.5L 735 240L 718.5 240L 702 240L 702 234.5L 702 229L 713 229L 724 229L 724 218L 724 207L 729.5 207L 735 207L 735 201.5L 735 196L 724 196L 713 196L 713 190.5L 713 185L 724 185L 735 185L 735 174L 735 163L 724 163L 713 163L 713 157.5L 713 152L 685.5 152L 658 152L 658 157.5L 658 163L 652.5 163L 647 163L 647 168.5L 647 174L 641.5 174L 636 174L 636 163L 636 152L 625 152L 614 152L 614 146.5L 614 141L 619.5 141L 625 141L 625 130L 625 119L 630.5 119L 636 119L 636 113.5L 636 108L 641.5 108L 647 108L 647 86L 647 64L 636 64L 625 64L 625 75L 625 86L 619.5 86L 614 86L 614 91.5L 614 97L 608.5 97L 603 97L 603 102.5L 603 108L 608.5 108L 614 108L 614 113.5L 614 119L 597.5 119L 581 119L 581 113.5L 581 108L 586.5 108L 592 108L 592 97L 592 86L 597.5 86L 603 86L 603 80.5L 603 75L 608.5 75L 614 75L 614 69.5L 614 64L 608.5 64L 603 64L 603 69.5L 603 75L 592 75L 581 75L 581 86L 581 97L 570 97L 559 97L 559 91.5L 559 86L 553.5 86L 548 86L 548 80.5L 548 75L 553.5 75L 559 75L 559 69.5L 559 64L 553.5 64L 548 64L 548 69.5L 548 75L 542.5 75L 537 75L 537 80.5L 537 86L 515 86L 493 86L 493 80.5L 493 75L 509.5 75L 526 75L 526 69.5L 526 64L 509.5 64L 493 64L 493 69.5L 493 75L 487.5 75L 482 75L 482 69.5L 482 64L 476.5 64L 471 64L 471 69.5L 471 75L 454.5 75L 438 75L 438 80.5L 438 86L 449 86L 460 86L 460 97L 460 108L 465.5 108L 471 108L 471 102.5L 471 97L 476.5 97L 482 97L 482 102.5L 482 108L 487.5 108L 493 108L 493 113.5L 493 119L 504 119L 515 119L 515 124.5L 515 130L 509.5 130L 504 130L 504 135.5L 504 141L 509.5 141L 515 141L 515 146.5L 515 152L 537 152L 559 152L 559 157.5L 559 163L 531.5 163L 504 163L 504 168.5L 504 174L 509.5 174L 515 174L 515 190.5L 515 207L 509.5 207L 504 207L 504 196L 504 185L 498.5 185L 493 185L 493 168.5L 493 152L 487.5 152L 482 152L 482 146.5L 482 141L 487.5 141L 493 141L 493 135.5L 493 130L 487.5 130L 482 130L 482 124.5L 482 119L 471 119L 460 119L 460 130L 460 141L 454.5 141L 449 141L 449 135.5L 449 130L 443.5 130L 438 130L 438 135.5L 438 141L 443.5 141L 449 141L 449 146.5L 449 152L 438 152L 427 152L 427 130L 427 108L 438 108L 449 108L 449 102.5L 449 97L 438 97L 427 97L 427 91.5L 427 86L 410.5 86L 394 86L 394 91.5L 394 97L 388.5 97L 383 97L 383 102.5L 383 108L 377.5 108L 372 108L 372 97L 372 86L 377.5 86L 383 86L 383 80.5L 383 75L 405 75L 427 75L 427 69.5L 427 64L 399.5 64L 372 64L 372 69.5L 372 75L 366.5 75L 361 75L 361 69.5L 361 64L 355.5 64L 350 64L 350 69.5L 350 75L 355.5 75L 361 75L 361 80.5L 361 86L 355.5 86L 350 86L 350 91.5L 350 97L 339 97L 328 97L 328 91.5L 328 86L 322.5 86L 317 86L 317 97L 317 108L 333.5 108L 350 108L 350 113.5L 350 119L 355.5 119L 361 119L 361 124.5L 361 130L 355.5 130L 350 130L 350 141L 350 152L 361 152L 372 152L 372 157.5L 372 163L 366.5 163L 361 163L 361 168.5L 361 174L 366.5 174L 372 174L 372 185L 372 196L 366.5 196L 361 196L 361 190.5L 361 185L 355.5 185L 350 185L 350 179.5L 350 174L 344.5 174L 339 174L 339 152L 339 130L 333.5 130L 328 130L 328 135.5L 328 141L 322.5 141L 317 141L 317 130L 317 119L 311.5 119L 306 119L 306 113.5L 306 108L 300.5 108L 295 108L 295 119L 295 130L 289.5 130L 284 130L 284 141L 284 152L 289.5 152L 295 152L 295 141L 295 130L 300.5 130L 306 130L 306 135.5L 306 141L 311.5 141L 317 141L 317 146.5L 317 152L 311.5 152L 306 152L 306 163L 306 174L 300.5 174L 295 174L 295 185L 295 196L 300.5 196L 306 196L 306 201.5L 306 207L 289.5 207L 273 207L 273 201.5L 273 196L 278.5 196L 284 196L 284 179.5L 284 163L 278.5 163L 273 163L 273 168.5L 273 174L 267.5 174L 262 174L 262 168.5L 262 163L 256.5 163L 251 163L 251 157.5L 251 152L 240 152L 229 152L 229 141L 229 130L 234.5 130L 240 130L 240 135.5L 240 141L 245.5 141L 251 141L 251 135.5L 251 130L 245.5 130L 240 130L 240 124.5L 240 119L 234.5 119L 229 119L 229 124.5L 229 130L 223.5 130L 218 130L 218 119L 218 108L 207 108L 196 108L 196 102.5L 196 97L 212.5 97L 229 97L 229 91.5L 229 86L 234.5 86L 240 86L 240 80.5L 240 75L 234.5 75L 229 75L 229 80.5L 229 86L 223.5 86L 218 86L 218 80.5L 218 75L 212.5 75L 207 75L 207 69.5L 207 64L 185 64L 163 64L 163 75zM 207 80.5L 207 86L 201.5 86L 196 86L 196 91.5L 196 97L 190.5 97L 185 97L 185 86L 185 75L 196 75L 207 75L 207 80.5zM 482 80.5L 482 86L 487.5 86L 493 86L 493 91.5L 493 97L 498.5 97L 504 97L 504 102.5L 504 108L 498.5 108L 493 108L 493 102.5L 493 97L 487.5 97L 482 97L 482 91.5L 482 86L 476.5 86L 471 86L 471 80.5L 471 75L 476.5 75L 482 75L 482 80.5zM 174 91.5L 174 97L 168.5 97L 163 97L 163 91.5L 163 86L 168.5 86L 174 86L 174 91.5zM 548 91.5L 548 97L 553.5 97L 559 97L 559 102.5L 559 108L 564.5 108L 570 108L 570 113.5L 570 119L 564.5 119L 559 119L 559 124.5L 559 130L 564.5 130L 570 130L 570 135.5L 570 141L 575.5 141L 581 141L 581 135.5L 581 130L 586.5 130L 592 130L 592 135.5L 592 141L 586.5 141L 581 141L 581 146.5L 581 152L 570 152L 559 152L 559 141L 559 130L 553.5 130L 548 130L 548 135.5L 548 141L 542.5 141L 537 141L 537 135.5L 537 130L 531.5 130L 526 130L 526 135.5L 526 141L 520.5 141L 515 141L 515 135.5L 515 130L 520.5 130L 526 130L 526 124.5L 526 119L 520.5 119L 515 119L 515 108L 515 97L 526 97L 537 97L 537 91.5L 537 86L 542.5 86L 548 86L 548 91.5zM 405 102.5L 405 108L 399.5 108L 394 108L 394 102.5L 394 97L 399.5 97L 405 97L 405 102.5zM 427 102.5L 427 108L 421.5 108L 416 108L 416 102.5L 416 97L 421.5 97L 427 97L 427 102.5zM 636 102.5L 636 108L 630.5 108L 625 108L 625 102.5L 625 97L 630.5 97L 636 97L 636 102.5zM 185 113.5L 185 119L 190.5 119L 196 119L 196 130L 196 141L 201.5 141L 207 141L 207 135.5L 207 130L 212.5 130L 218 130L 218 135.5L 218 141L 212.5 141L 207 141L 207 146.5L 207 152L 218 152L 229 152L 229 157.5L 229 163L 234.5 163L 240 163L 240 174L 240 185L 245.5 185L 251 185L 251 190.5L 251 196L 256.5 196L 262 196L 262 201.5L 262 207L 267.5 207L 273 207L 273 212.5L 273 218L 267.5 218L 262 218L 262 223.5L 262 229L 267.5 229L 273 229L 273 240L 273 251L 267.5 251L 262 251L 262 245.5L 262 240L 251 240L 240 240L 240 245.5L 240 251L 245.5 251L 251 251L 251 256.5L 251 262L 234.5 262L 218 262L 218 267.5L 218 273L 229 273L 240 273L 240 278.5L 240 284L 229 284L 218 284L 218 278.5L 218 273L 207 273L 196 273L 196 267.5L 196 262L 190.5 262L 185 262L 185 273L 185 284L 179.5 284L 174 284L 174 273L 174 262L 168.5 262L 163 262L 163 267.5L 163 273L 157.5 273L 152 273L 152 267.5L 152 262L 141 262L 130 262L 130 256.5L 130 251L 135.5 251L 141 251L 141 245.5L 141 240L 130 240L 119 240L 119 251L 119 262L 113.5 262L 108 262L 108 267.5L 108 273L 124.5 273L 141 273L 141 278.5L 141 284L 152 284L 163 284L 163 289.5L 163 295L 157.5 295L 152 295L 152 300.5L 152 306L 163 306L 174 306L 174 300.5L 174 295L 179.5 295L 185 295L 185 300.5L 185 306L 190.5 306L 196 306L 196 295L 196 284L 201.5 284L 207 284L 207 289.5L 207 295L 212.5 295L 218 295L 218 306L 218 317L 223.5 317L 229 317L 229 322.5L 229 328L 234.5 328L 240 328L 240 317L 240 306L 234.5 306L 229 306L 229 300.5L 229 295L 240 295L 251 295L 251 289.5L 251 284L 256.5 284L 262 284L 262 278.5L 262 273L 267.5 273L 273 273L 273 267.5L 273 262L 278.5 262L 284 262L 284 256.5L 284 251L 289.5 251L 295 251L 295 234.5L 295 218L 300.5 218L 306 218L 306 212.5L 306 207L 328 207L 350 207L 350 201.5L 350 196L 344.5 196L 339 196L 339 190.5L 339 185L 344.5 185L 350 185L 350 190.5L 350 196L 355.5 196L 361 196L 361 201.5L 361 207L 372 207L 383 207L 383 212.5L 383 218L 394 218L 405 218L 405 212.5L 405 207L 399.5 207L 394 207L 394 196L 394 185L 388.5 185L 383 185L 383 179.5L 383 174L 377.5 174L 372 174L 372 168.5L 372 163L 377.5 163L 383 163L 383 168.5L 383 174L 405 174L 427 174L 427 168.5L 427 163L 432.5 163L 438 163L 438 174L 438 185L 443.5 185L 449 185L 449 190.5L 449 196L 443.5 196L 438 196L 438 201.5L 438 207L 449 207L 460 207L 460 196L 460 185L 465.5 185L 471 185L 471 196L 471 207L 482 207L 493 207L 493 212.5L 493 218L 471 218L 449 218L 449 223.5L 449 229L 454.5 229L 460 229L 460 234.5L 460 240L 449 240L 438 240L 438 245.5L 438 251L 443.5 251L 449 251L 449 262L 449 273L 460 273L 471 273L 471 267.5L 471 262L 465.5 262L 460 262L 460 256.5L 460 251L 465.5 251L 471 251L 471 256.5L 471 262L 476.5 262L 482 262L 482 256.5L 482 251L 487.5 251L 493 251L 493 245.5L 493 240L 487.5 240L 482 240L 482 234.5L 482 229L 487.5 229L 493 229L 493 234.5L 493 240L 498.5 240L 504 240L 504 245.5L 504 251L 498.5 251L 493 251L 493 256.5L 493 262L 504 262L 515 262L 515 251L 515 240L 526 240L 537 240L 537 234.5L 537 229L 542.5 229L 548 229L 548 223.5L 548 218L 542.5 218L 537 218L 537 212.5L 537 207L 531.5 207L 526 207L 526 218L 526 229L 515 229L 504 229L 504 223.5L 504 218L 509.5 218L 515 218L 515 212.5L 515 207L 520.5 207L 526 207L 526 201.5L 526 196L 531.5 196L 537 196L 537 201.5L 537 207L 542.5 207L 548 207L 548 201.5L 548 196L 553.5 196L 559 196L 559 201.5L 559 207L 564.5 207L 570 207L 570 212.5L 570 218L 575.5 218L 581 218L 581 207L 581 196L 575.5 196L 570 196L 570 185L 570 174L 575.5 174L 581 174L 581 168.5L 581 163L 586.5 163L 592 163L 592 157.5L 592 152L 603 152L 614 152L 614 163L 614 174L 619.5 174L 625 174L 625 185L 625 196L 619.5 196L 614 196L 614 201.5L 614 207L 608.5 207L 603 207L 603 212.5L 603 218L 592 218L 581 218L 581 229L 581 240L 597.5 240L 614 240L 614 229L 614 218L 619.5 218L 625 218L 625 223.5L 625 229L 636 229L 647 229L 647 240L 647 251L 652.5 251L 658 251L 658 245.5L 658 240L 663.5 240L 669 240L 669 223.5L 669 207L 663.5 207L 658 207L 658 212.5L 658 218L 652.5 218L 647 218L 647 212.5L 647 207L 641.5 207L 636 207L 636 196L 636 185L 641.5 185L 647 185L 647 179.5L 647 174L 652.5 174L 658 174L 658 168.5L 658 163L 669 163L 680 163L 680 168.5L 680 174L 685.5 174L 691 174L 691 168.5L 691 163L 702 163L 713 163L 713 168.5L 713 174L 702 174L 691 174L 691 179.5L 691 185L 696.5 185L 702 185L 702 190.5L 702 196L 696.5 196L 691 196L 691 201.5L 691 207L 702 207L 713 207L 713 212.5L 713 218L 702 218L 691 218L 691 223.5L 691 229L 685.5 229L 680 229L 680 234.5L 680 240L 674.5 240L 669 240L 669 245.5L 669 251L 674.5 251L 680 251L 680 256.5L 680 262L 685.5 262L 691 262L 691 251L 691 240L 696.5 240L 702 240L 702 256.5L 702 273L 707.5 273L 713 273L 713 262L 713 251L 718.5 251L 724 251L 724 273L 724 295L 718.5 295L 713 295L 713 300.5L 713 306L 702 306L 691 306L 691 300.5L 691 295L 685.5 295L 680 295L 680 300.5L 680 306L 674.5 306L 669 306L 669 300.5L 669 295L 658 295L 647 295L 647 300.5L 647 306L 652.5 306L 658 306L 658 311.5L 658 317L 652.5 317L 647 317L 647 322.5L 647 328L 630.5 328L 614 328L 614 317L 614 306L 597.5 306L 581 306L 581 317L 581 328L 570 328L 559 328L 559 333.5L 559 339L 553.5 339L 548 339L 548 344.5L 548 350L 542.5 350L 537 350L 537 355.5L 537 361L 542.5 361L 548 361L 548 366.5L 548 372L 542.5 372L 537 372L 537 377.5L 537 383L 542.5 383L 548 383L 548 388.5L 548 394L 564.5 394L 581 394L 581 388.5L 581 383L 603 383L 625 383L 625 388.5L 625 394L 630.5 394L 636 394L 636 399.5L 636 405L 630.5 405L 625 405L 625 410.5L 625 416L 619.5 416L 614 416L 614 421.5L 614 427L 625 427L 636 427L 636 432.5L 636 438L 630.5 438L 625 438L 625 449L 625 460L 630.5 460L 636 460L 636 454.5L 636 449L 641.5 449L 647 449L 647 460L 647 471L 641.5 471L 636 471L 636 476.5L 636 482L 630.5 482L 625 482L 625 493L 625 504L 630.5 504L 636 504L 636 515L 636 526L 630.5 526L 625 526L 625 515L 625 504L 619.5 504L 614 504L 614 509.5L 614 515L 608.5 515L 603 515L 603 520.5L 603 526L 608.5 526L 614 526L 614 531.5L 614 537L 619.5 537L 625 537L 625 542.5L 625 548L 619.5 548L 614 548L 614 542.5L 614 537L 608.5 537L 603 537L 603 531.5L 603 526L 597.5 526L 592 526L 592 520.5L 592 515L 597.5 515L 603 515L 603 509.5L 603 504L 608.5 504L 614 504L 614 498.5L 614 493L 608.5 493L 603 493L 603 487.5L 603 482L 592 482L 581 482L 581 487.5L 581 493L 586.5 493L 592 493L 592 498.5L 592 504L 575.5 504L 559 504L 559 509.5L 559 515L 564.5 515L 570 515L 570 526L 570 537L 581 537L 592 537L 592 542.5L 592 548L 581 548L 570 548L 570 542.5L 570 537L 564.5 537L 559 537L 559 542.5L 559 548L 553.5 548L 548 548L 548 559L 548 570L 553.5 570L 559 570L 559 575.5L 559 581L 564.5 581L 570 581L 570 570L 570 559L 575.5 559L 581 559L 581 570L 581 581L 586.5 581L 592 581L 592 586.5L 592 592L 597.5 592L 603 592L 603 597.5L 603 603L 614 603L 625 603L 625 597.5L 625 592L 619.5 592L 614 592L 614 586.5L 614 581L 625 581L 636 581L 636 586.5L 636 592L 641.5 592L 647 592L 647 597.5L 647 603L 641.5 603L 636 603L 636 608.5L 636 614L 630.5 614L 625 614L 625 625L 625 636L 630.5 636L 636 636L 636 641.5L 636 647L 630.5 647L 625 647L 625 641.5L 625 636L 619.5 636L 614 636L 614 630.5L 614 625L 608.5 625L 603 625L 603 619.5L 603 614L 592 614L 581 614L 581 603L 581 592L 570 592L 559 592L 559 586.5L 559 581L 553.5 581L 548 581L 548 575.5L 548 570L 531.5 570L 515 570L 515 581L 515 592L 526 592L 537 592L 537 597.5L 537 603L 542.5 603L 548 603L 548 608.5L 548 614L 553.5 614L 559 614L 559 608.5L 559 603L 564.5 603L 570 603L 570 608.5L 570 614L 564.5 614L 559 614L 559 619.5L 559 625L 570 625L 581 625L 581 630.5L 581 636L 586.5 636L 592 636L 592 641.5L 592 647L 603 647L 614 647L 614 652.5L 614 658L 625 658L 636 658L 636 669L 636 680L 625 680L 614 680L 614 669L 614 658L 592 658L 570 658L 570 663.5L 570 669L 575.5 669L 581 669L 581 674.5L 581 680L 575.5 680L 570 680L 570 674.5L 570 669L 559 669L 548 669L 548 663.5L 548 658L 542.5 658L 537 658L 537 663.5L 537 669L 531.5 669L 526 669L 526 663.5L 526 658L 520.5 658L 515 658L 515 669L 515 680L 509.5 680L 504 680L 504 685.5L 504 691L 498.5 691L 493 691L 493 685.5L 493 680L 487.5 680L 482 680L 482 674.5L 482 669L 487.5 669L 493 669L 493 663.5L 493 658L 482 658L 471 658L 471 647L 471 636L 465.5 636L 460 636L 460 647L 460 658L 454.5 658L 449 658L 449 669L 449 680L 438 680L 427 680L 427 674.5L 427 669L 432.5 669L 438 669L 438 658L 438 647L 432.5 647L 427 647L 427 641.5L 427 636L 405 636L 383 636L 383 630.5L 383 625L 377.5 625L 372 625L 372 630.5L 372 636L 366.5 636L 361 636L 361 630.5L 361 625L 355.5 625L 350 625L 350 630.5L 350 636L 344.5 636L 339 636L 339 641.5L 339 647L 344.5 647L 350 647L 350 652.5L 350 658L 355.5 658L 361 658L 361 652.5L 361 647L 366.5 647L 372 647L 372 663.5L 372 680L 366.5 680L 361 680L 361 691L 361 702L 350 702L 339 702L 339 707.5L 339 713L 344.5 713L 350 713L 350 718.5L 350 724L 344.5 724L 339 724L 339 718.5L 339 713L 322.5 713L 306 713L 306 702L 306 691L 300.5 691L 295 691L 295 702L 295 713L 289.5 713L 284 713L 284 702L 284 691L 289.5 691L 295 691L 295 685.5L 295 680L 300.5 680L 306 680L 306 669L 306 658L 300.5 658L 295 658L 295 663.5L 295 669L 289.5 669L 284 669L 284 658L 284 647L 289.5 647L 295 647L 295 641.5L 295 636L 300.5 636L 306 636L 306 641.5L 306 647L 317 647L 328 647L 328 641.5L 328 636L 333.5 636L 339 636L 339 630.5L 339 625L 333.5 625L 328 625L 328 619.5L 328 614L 333.5 614L 339 614L 339 619.5L 339 625L 344.5 625L 350 625L 350 619.5L 350 614L 355.5 614L 361 614L 361 608.5L 361 603L 366.5 603L 372 603L 372 608.5L 372 614L 383 614L 394 614L 394 619.5L 394 625L 399.5 625L 405 625L 405 619.5L 405 614L 410.5 614L 416 614L 416 608.5L 416 603L 410.5 603L 405 603L 405 597.5L 405 592L 399.5 592L 394 592L 394 586.5L 394 581L 399.5 581L 405 581L 405 586.5L 405 592L 410.5 592L 416 592L 416 575.5L 416 559L 421.5 559L 427 559L 427 553.5L 427 548L 421.5 548L 416 548L 416 542.5L 416 537L 410.5 537L 405 537L 405 542.5L 405 548L 399.5 548L 394 548L 394 559L 394 570L 377.5 570L 361 570L 361 575.5L 361 581L 366.5 581L 372 581L 372 586.5L 372 592L 366.5 592L 361 592L 361 586.5L 361 581L 355.5 581L 350 581L 350 586.5L 350 592L 344.5 592L 339 592L 339 586.5L 339 581L 333.5 581L 328 581L 328 575.5L 328 570L 317 570L 306 570L 306 575.5L 306 581L 300.5 581L 295 581L 295 564.5L 295 548L 289.5 548L 284 548L 284 542.5L 284 537L 278.5 537L 273 537L 273 531.5L 273 526L 267.5 526L 262 526L 262 537L 262 548L 267.5 548L 273 548L 273 553.5L 273 559L 278.5 559L 284 559L 284 564.5L 284 570L 278.5 570L 273 570L 273 564.5L 273 559L 267.5 559L 262 559L 262 564.5L 262 570L 256.5 570L 251 570L 251 575.5L 251 581L 256.5 581L 262 581L 262 586.5L 262 592L 278.5 592L 295 592L 295 597.5L 295 603L 300.5 603L 306 603L 306 614L 306 625L 300.5 625L 295 625L 295 614L 295 603L 289.5 603L 284 603L 284 614L 284 625L 278.5 625L 273 625L 273 619.5L 273 614L 267.5 614L 262 614L 262 619.5L 262 625L 251 625L 240 625L 240 630.5L 240 636L 229 636L 218 636L 218 641.5L 218 647L 196 647L 174 647L 174 641.5L 174 636L 185 636L 196 636L 196 630.5L 196 625L 179.5 625L 163 625L 163 619.5L 163 614L 157.5 614L 152 614L 152 608.5L 152 603L 163 603L 174 603L 174 597.5L 174 592L 179.5 592L 185 592L 185 586.5L 185 581L 174 581L 163 581L 163 586.5L 163 592L 157.5 592L 152 592L 152 581L 152 570L 135.5 570L 119 570L 119 553.5L 119 537L 141 537L 163 537L 163 531.5L 163 526L 168.5 526L 174 526L 174 520.5L 174 515L 168.5 515L 163 515L 163 509.5L 163 504L 157.5 504L 152 504L 152 509.5L 152 515L 146.5 515L 141 515L 141 520.5L 141 526L 130 526L 119 526L 119 520.5L 119 515L 130 515L 141 515L 141 509.5L 141 504L 130 504L 119 504L 119 476.5L 119 449L 113.5 449L 108 449L 108 438L 108 427L 113.5 427L 119 427L 119 438L 119 449L 135.5 449L 152 449L 152 460L 152 471L 146.5 471L 141 471L 141 476.5L 141 482L 135.5 482L 130 482L 130 487.5L 130 493L 135.5 493L 141 493L 141 498.5L 141 504L 146.5 504L 152 504L 152 498.5L 152 493L 157.5 493L 163 493L 163 487.5L 163 482L 168.5 482L 174 482L 174 487.5L 174 493L 179.5 493L 185 493L 185 498.5L 185 504L 196 504L 207 504L 207 498.5L 207 493L 201.5 493L 196 493L 196 487.5L 196 482L 190.5 482L 185 482L 185 476.5L 185 471L 190.5 471L 196 471L 196 476.5L 196 482L 201.5 482L 207 482L 207 487.5L 207 493L 212.5 493L 218 493L 218 498.5L 218 504L 223.5 504L 229 504L 229 509.5L 229 515L 234.5 515L 240 515L 240 509.5L 240 504L 245.5 504L 251 504L 251 493L 251 482L 256.5 482L 262 482L 262 471L 262 460L 251 460L 240 460L 240 454.5L 240 449L 234.5 449L 229 449L 229 443.5L 229 438L 223.5 438L 218 438L 218 449L 218 460L 223.5 460L 229 460L 229 471L 229 482L 223.5 482L 218 482L 218 471L 218 460L 196 460L 174 460L 174 465.5L 174 471L 168.5 471L 163 471L 163 460L 163 449L 179.5 449L 196 449L 196 443.5L 196 438L 179.5 438L 163 438L 163 427L 163 416L 168.5 416L 174 416L 174 410.5L 174 405L 179.5 405L 185 405L 185 377.5L 185 350L 179.5 350L 174 350L 174 339L 174 328L 185 328L 196 328L 196 322.5L 196 317L 179.5 317L 163 317L 163 333.5L 163 350L 157.5 350L 152 350L 152 355.5L 152 361L 146.5 361L 141 361L 141 366.5L 141 372L 130 372L 119 372L 119 361L 119 350L 124.5 350L 130 350L 130 344.5L 130 339L 135.5 339L 141 339L 141 333.5L 141 328L 130 328L 119 328L 119 333.5L 119 339L 108 339L 97 339L 97 333.5L 97 328L 108 328L 119 328L 119 322.5L 119 317L 113.5 317L 108 317L 108 311.5L 108 306L 102.5 306L 97 306L 97 295L 97 284L 91.5 284L 86 284L 86 273L 86 262L 97 262L 108 262L 108 251L 108 240L 113.5 240L 119 240L 119 234.5L 119 229L 130 229L 141 229L 141 223.5L 141 218L 124.5 218L 108 218L 108 212.5L 108 207L 113.5 207L 119 207L 119 196L 119 185L 113.5 185L 108 185L 108 174L 108 163L 113.5 163L 119 163L 119 174L 119 185L 141 185L 163 185L 163 179.5L 163 174L 168.5 174L 174 174L 174 168.5L 174 163L 179.5 163L 185 163L 185 157.5L 185 152L 190.5 152L 196 152L 196 146.5L 196 141L 190.5 141L 185 141L 185 135.5L 185 130L 179.5 130L 174 130L 174 119L 174 108L 179.5 108L 185 108L 185 113.5zM 416 135.5L 416 152L 399.5 152L 383 152L 383 135.5L 383 119L 399.5 119L 416 119L 416 135.5zM 372 135.5L 372 141L 366.5 141L 361 141L 361 135.5L 361 130L 366.5 130L 372 130L 372 135.5zM 482 135.5L 482 141L 476.5 141L 471 141L 471 146.5L 471 152L 476.5 152L 482 152L 482 157.5L 482 163L 476.5 163L 471 163L 471 168.5L 471 174L 465.5 174L 460 174L 460 168.5L 460 163L 454.5 163L 449 163L 449 157.5L 449 152L 454.5 152L 460 152L 460 146.5L 460 141L 465.5 141L 471 141L 471 135.5L 471 130L 476.5 130L 482 130L 482 135.5zM 614 135.5L 614 141L 608.5 141L 603 141L 603 135.5L 603 130L 608.5 130L 614 130L 614 135.5zM 328 163L 328 174L 322.5 174L 317 174L 317 185L 317 196L 311.5 196L 306 196L 306 185L 306 174L 311.5 174L 317 174L 317 163L 317 152L 322.5 152L 328 152L 328 163zM 141 168.5L 141 174L 135.5 174L 130 174L 130 168.5L 130 163L 135.5 163L 141 163L 141 168.5zM 559 179.5L 559 185L 553.5 185L 548 185L 548 179.5L 548 174L 553.5 174L 559 174L 559 179.5zM 493 190.5L 493 196L 487.5 196L 482 196L 482 190.5L 482 185L 487.5 185L 493 185L 493 190.5zM 86 201.5L 86 207L 80.5 207L 75 207L 75 201.5L 75 196L 80.5 196L 86 196L 86 201.5zM 713 344.5L 713 350L 707.5 350L 702 350L 702 344.5L 702 339L 707.5 339L 713 339L 713 344.5zM 97 361L 97 372L 91.5 372L 86 372L 86 377.5L 86 383L 91.5 383L 97 383L 97 388.5L 97 394L 86 394L 75 394L 75 383L 75 372L 80.5 372L 86 372L 86 361L 86 350L 91.5 350L 97 350L 97 361zM 152 399.5L 152 416L 135.5 416L 119 416L 119 399.5L 119 383L 135.5 383L 152 383L 152 399.5zM 680 399.5L 680 416L 663.5 416L 647 416L 647 399.5L 647 383L 663.5 383L 680 383L 680 399.5zM 141 432.5L 141 438L 135.5 438L 130 438L 130 432.5L 130 427L 135.5 427L 141 427L 141 432.5zM 669 432.5L 669 438L 674.5 438L 680 438L 680 443.5L 680 449L 674.5 449L 669 449L 669 454.5L 669 460L 663.5 460L 658 460L 658 449L 658 438L 652.5 438L 647 438L 647 432.5L 647 427L 658 427L 669 427L 669 432.5zM 86 454.5L 86 460L 91.5 460L 97 460L 97 465.5L 97 471L 86 471L 75 471L 75 460L 75 449L 80.5 449L 86 449L 86 454.5zM 108 504L 108 526L 97 526L 86 526L 86 531.5L 86 537L 80.5 537L 75 537L 75 531.5L 75 526L 80.5 526L 86 526L 86 520.5L 86 515L 80.5 515L 75 515L 75 504L 75 493L 80.5 493L 86 493L 86 504L 86 515L 91.5 515L 97 515L 97 498.5L 97 482L 102.5 482L 108 482L 108 504zM 724 575.5L 724 581L 718.5 581L 713 581L 713 575.5L 713 570L 718.5 570L 724 570L 724 575.5zM 108 603L 108 614L 102.5 614L 97 614L 97 603L 97 592L 102.5 592L 108 592L 108 603zM 141 608.5L 141 614L 130 614L 119 614L 119 608.5L 119 603L 130 603L 141 603L 141 608.5zM 669 608.5L 669 614L 674.5 614L 680 614L 680 619.5L 680 625L 674.5 625L 669 625L 669 630.5L 669 636L 663.5 636L 658 636L 658 630.5L 658 625L 652.5 625L 647 625L 647 619.5L 647 614L 652.5 614L 658 614L 658 608.5L 658 603L 663.5 603L 669 603L 669 608.5zM 108 630.5L 108 636L 102.5 636L 97 636L 97 630.5L 97 625L 102.5 625L 108 625L 108 630.5zM 416 663.5L 416 680L 399.5 680L 383 680L 383 663.5L 383 647L 399.5 647L 416 647L 416 663.5zM 680 663.5L 680 680L 663.5 680L 647 680L 647 663.5L 647 647L 663.5 647L 680 647L 680 663.5zM 537 685.5L 537 691L 542.5 691L 548 691L 548 696.5L 548 702L 553.5 702L 559 702L 559 707.5L 559 713L 553.5 713L 548 713L 548 718.5L 548 724L 542.5 724L 537 724L 537 718.5L 537 713L 531.5 713L 526 713L 526 707.5L 526 702L 520.5 702L 515 702L 515 696.5L 515 691L 520.5 691L 526 691L 526 685.5L 526 680L 531.5 680L 537 680L 537 685.5zM 680 696.5L 680 702L 685.5 702L 691 702L 691 707.5L 691 713L 685.5 713L 680 713L 680 707.5L 680 702L 674.5 702L 669 702L 669 696.5L 669 691L 674.5 691L 680 691L 680 696.5zM 273 718.5L 273 724L 267.5 724L 262 724L 262 718.5L 262 713L 267.5 713L 273 713L 273 718.5z"/>
<path style="stroke:none; fill:#000000" d="M 526 113.5L 526 119L 531.5 119L 537 119L 537 124.5L 537 130L 542.5 130L 548 130L 548 124.5L 548 119L 553.5 119L 559 119L 559 113.5L 559 108L 542.5 108L 526 108L 526 113.5z"/>
<path style="stroke:none; fill:#000000" d="M 196 163L 196 174L 190.5 174L 185 174L 185 179.5L 185 185L 207 185L 229 185L 229 179.5L 229 174L 223.5 174L 218 174L 218 168.5L 218 163L 212.5 163L 207 163L 207 157.5L 207 152L 201.5 152L 196 152L 196 163z"/>
<path style="stroke:none; fill:#000000" d="M 581 185L 581 196L 586.5 196L 592 196L 592 201.5L 592 207L 597.5 207L 603 207L 603 201.5L 603 196L 608.5 196L 614 196L 614 185L 614 174L 597.5 174L 581 174L 581 185zM 603 190.5L 603 196L 597.5 196L 592 196L 592 190.5L 592 185L 597.5 185L 603 185L 603 190.5z"/>
<path style="stroke:none; fill:#000000" d="M 658 179.5L 658 185L 652.5 185L 647 185L 647 190.5L 647 196L 658 196L 669 196L 669 190.5L 669 185L 674.5 185L 680 185L 680 179.5L 680 174L 669 174L 658 174L 658 179.5z"/>
<path style="stroke:none; fill:#000000" d="M 416 190.5L 416 196L 410.5 196L 405 196L 405 201.5L 405 207L 410.5 207L 416 207L 416 201.5L 416 196L 421.5 196L 427 196L 427 190.5L 427 185L 421.5 185L 416 185L 416 190.5z"/>
<path style="stroke:none; fill:#000000" d="M 130 201.5L 130 207L 141 207L 152 207L 152 234.5L 152 262L 157.5 262L 163 262L 163 256.5L 163 251L 168.5 251L 174 251L 174 256.5L 174 262L 179.5 262L 185 262L 185 251L 185 240L 207 240L 229 240L 229 234.5L 229 229L 218 229L 207 229L 207 223.5L 207 218L 201.5 218L 196 218L 196 207L 196 196L 190.5 196L 185 196L 185 201.5L 185 207L 168.5 207L 152 207L 152 201.5L 152 196L 141 196L 130 196L 130 201.5zM 185 223.5L 185 229L 179.5 229L 174 229L 174 234.5L 174 240L 168.5 240L 163 240L 163 229L 163 218L 174 218L 185 218L 185 223.5z"/>
<path style="stroke:none; fill:#000000" d="M 207 201.5L 207 207L 212.5 207L 218 207L 218 212.5L 218 218L 223.5 218L 229 218L 229 212.5L 229 207L 234.5 207L 240 207L 240 218L 240 229L 245.5 229L 251 229L 251 212.5L 251 196L 229 196L 207 196L 207 201.5z"/>
<path style="stroke:none; fill:#000000" d="M 350 212.5L 350 218L 344.5 218L 339 218L 339 229L 339 240L 350 240L 361 240L 361 245.5L 361 251L 350 251L 339 251L 339 256.5L 339 262L 350 262L 361 262L 361 267.5L 361 273L 366.5 273L 372 273L 372 267.5L 372 262L 366.5 262L 361 262L 361 256.5L 361 251L 372 251L 383 251L 383 256.5L 383 262L 399.5 262L 416 262L 416 273L 416 284L 405 284L 394 284L 394 289.5L 394 295L 388.5 295L 383 295L 383 289.5L 383 284L 377.5 284L 372 284L 372 289.5L 372 295L 377.5 295L 383 295L 383 306L 383 317L 388.5 317L 394 317L 394 322.5L 394 328L 377.5 328L 361 328L 361 322.5L 361 317L 355.5 317L 350 317L 350 322.5L 350 328L 355.5 328L 361 328L 361 333.5L 361 339L 372 339L 383 339L 383 344.5L 383 350L 372 350L 361 350L 361 355.5L 361 361L 355.5 361L 350 361L 350 355.5L 350 350L 344.5 350L 339 350L 339 355.5L 339 361L 344.5 361L 350 361L 350 366.5L 350 372L 355.5 372L 361 372L 361 377.5L 361 383L 350 383L 339 383L 339 377.5L 339 372L 333.5 372L 328 372L 328 366.5L 328 361L 322.5 361L 317 361L 317 377.5L 317 394L 311.5 394L 306 394L 306 377.5L 306 361L 300.5 361L 295 361L 295 372L 295 383L 278.5 383L 262 383L 262 377.5L 262 372L 256.5 372L 251 372L 251 366.5L 251 361L 267.5 361L 284 361L 284 350L 284 339L 289.5 339L 295 339L 295 344.5L 295 350L 300.5 350L 306 350L 306 344.5L 306 339L 300.5 339L 295 339L 295 328L 295 317L 306 317L 317 317L 317 322.5L 317 328L 322.5 328L 328 328L 328 333.5L 328 339L 322.5 339L 317 339L 317 344.5L 317 350L 322.5 350L 328 350L 328 344.5L 328 339L 333.5 339L 339 339L 339 306L 339 273L 333.5 273L 328 273L 328 278.5L 328 284L 322.5 284L 317 284L 317 289.5L 317 295L 322.5 295L 328 295L 328 306L 328 317L 322.5 317L 317 317L 317 311.5L 317 306L 311.5 306L 306 306L 306 300.5L 306 295L 295 295L 284 295L 284 289.5L 284 284L 289.5 284L 295 284L 295 273L 295 262L 306 262L 317 262L 317 256.5L 317 251L 322.5 251L 328 251L 328 240L 328 229L 317 229L 306 229L 306 240L 306 251L 300.5 251L 295 251L 295 256.5L 295 262L 289.5 262L 284 262L 284 267.5L 284 273L 278.5 273L 273 273L 273 278.5L 273 284L 267.5 284L 262 284L 262 295L 262 306L 256.5 306L 251 306L 251 311.5L 251 317L 256.5 317L 262 317L 262 311.5L 262 306L 267.5 306L 273 306L 273 317L 273 328L 262 328L 251 328L 251 339L 251 350L 240 350L 229 350L 229 344.5L 229 339L 223.5 339L 218 339L 218 344.5L 218 350L 223.5 350L 229 350L 229 355.5L 229 361L 234.5 361L 240 361L 240 377.5L 240 394L 234.5 394L 229 394L 229 383L 229 372L 223.5 372L 218 372L 218 377.5L 218 383L 212.5 383L 207 383L 207 372L 207 361L 201.5 361L 196 361L 196 372L 196 383L 201.5 383L 207 383L 207 388.5L 207 394L 212.5 394L 218 394L 218 399.5L 218 405L 223.5 405L 229 405L 229 410.5L 229 416L 218 416L 207 416L 207 421.5L 207 427L 201.5 427L 196 427L 196 432.5L 196 438L 207 438L 218 438L 218 432.5L 218 427L 223.5 427L 229 427L 229 421.5L 229 416L 234.5 416L 240 416L 240 405L 240 394L 256.5 394L 273 394L 273 399.5L 273 405L 267.5 405L 262 405L 262 416L 262 427L 267.5 427L 273 427L 273 421.5L 273 416L 278.5 416L 284 416L 284 405L 284 394L 289.5 394L 295 394L 295 399.5L 295 405L 300.5 405L 306 405L 306 416L 306 427L 322.5 427L 339 427L 339 416L 339 405L 328 405L 317 405L 317 399.5L 317 394L 339 394L 361 394L 361 388.5L 361 383L 366.5 383L 372 383L 372 394L 372 405L 361 405L 350 405L 350 410.5L 350 416L 355.5 416L 361 416L 361 432.5L 361 449L 355.5 449L 350 449L 350 443.5L 350 438L 344.5 438L 339 438L 339 443.5L 339 449L 328 449L 317 449L 317 454.5L 317 460L 311.5 460L 306 460L 306 449L 306 438L 300.5 438L 295 438L 295 432.5L 295 427L 289.5 427L 284 427L 284 432.5L 284 438L 273 438L 262 438L 262 449L 262 460L 267.5 460L 273 460L 273 465.5L 273 471L 278.5 471L 284 471L 284 476.5L 284 482L 295 482L 306 482L 306 493L 306 504L 311.5 504L 317 504L 317 509.5L 317 515L 311.5 515L 306 515L 306 520.5L 306 526L 311.5 526L 317 526L 317 531.5L 317 537L 306 537L 295 537L 295 515L 295 493L 289.5 493L 284 493L 284 498.5L 284 504L 267.5 504L 251 504L 251 515L 251 526L 256.5 526L 262 526L 262 520.5L 262 515L 273 515L 284 515L 284 526L 284 537L 289.5 537L 295 537L 295 542.5L 295 548L 300.5 548L 306 548L 306 553.5L 306 559L 311.5 559L 317 559L 317 548L 317 537L 322.5 537L 328 537L 328 542.5L 328 548L 333.5 548L 339 548L 339 542.5L 339 537L 344.5 537L 350 537L 350 542.5L 350 548L 355.5 548L 361 548L 361 553.5L 361 559L 366.5 559L 372 559L 372 553.5L 372 548L 377.5 548L 383 548L 383 542.5L 383 537L 377.5 537L 372 537L 372 531.5L 372 526L 377.5 526L 383 526L 383 520.5L 383 515L 388.5 515L 394 515L 394 509.5L 394 504L 388.5 504L 383 504L 383 498.5L 383 493L 405 493L 427 493L 427 487.5L 427 482L 421.5 482L 416 482L 416 476.5L 416 471L 421.5 471L 427 471L 427 460L 427 449L 421.5 449L 416 449L 416 438L 416 427L 427 427L 438 427L 438 432.5L 438 438L 443.5 438L 449 438L 449 443.5L 449 449L 460 449L 471 449L 471 443.5L 471 438L 460 438L 449 438L 449 432.5L 449 427L 454.5 427L 460 427L 460 421.5L 460 416L 465.5 416L 471 416L 471 405L 471 394L 476.5 394L 482 394L 482 399.5L 482 405L 487.5 405L 493 405L 493 410.5L 493 416L 487.5 416L 482 416L 482 421.5L 482 427L 487.5 427L 493 427L 493 432.5L 493 438L 504 438L 515 438L 515 449L 515 460L 498.5 460L 482 460L 482 465.5L 482 471L 487.5 471L 493 471L 493 476.5L 493 482L 504 482L 515 482L 515 487.5L 515 493L 504 493L 493 493L 493 498.5L 493 504L 487.5 504L 482 504L 482 498.5L 482 493L 476.5 493L 471 493L 471 487.5L 471 482L 460 482L 449 482L 449 493L 449 504L 443.5 504L 438 504L 438 509.5L 438 515L 443.5 515L 449 515L 449 509.5L 449 504L 465.5 504L 482 504L 482 515L 482 526L 460 526L 438 526L 438 531.5L 438 537L 460 537L 482 537L 482 531.5L 482 526L 498.5 526L 515 526L 515 520.5L 515 515L 504 515L 493 515L 493 509.5L 493 504L 504 504L 515 504L 515 498.5L 515 493L 520.5 493L 526 493L 526 498.5L 526 504L 531.5 504L 537 504L 537 509.5L 537 515L 531.5 515L 526 515L 526 526L 526 537L 520.5 537L 515 537L 515 542.5L 515 548L 509.5 548L 504 548L 504 553.5L 504 559L 498.5 559L 493 559L 493 553.5L 493 548L 487.5 548L 482 548L 482 553.5L 482 559L 487.5 559L 493 559L 493 564.5L 493 570L 504 570L 515 570L 515 559L 515 548L 526 548L 537 548L 537 542.5L 537 537L 542.5 537L 548 537L 548 531.5L 548 526L 553.5 526L 559 526L 559 520.5L 559 515L 553.5 515L 548 515L 548 509.5L 548 504L 553.5 504L 559 504L 559 498.5L 559 493L 564.5 493L 570 493L 570 487.5L 570 482L 575.5 482L 581 482L 581 476.5L 581 471L 586.5 471L 592 471L 592 465.5L 592 460L 603 460L 614 460L 614 465.5L 614 471L 608.5 471L 603 471L 603 476.5L 603 482L 614 482L 625 482L 625 471L 625 460L 619.5 460L 614 460L 614 449L 614 438L 603 438L 592 438L 592 432.5L 592 427L 597.5 427L 603 427L 603 421.5L 603 416L 608.5 416L 614 416L 614 410.5L 614 405L 619.5 405L 625 405L 625 399.5L 625 394L 603 394L 581 394L 581 399.5L 581 405L 586.5 405L 592 405L 592 410.5L 592 416L 581 416L 570 416L 570 410.5L 570 405L 564.5 405L 559 405L 559 416L 559 427L 553.5 427L 548 427L 548 432.5L 548 438L 553.5 438L 559 438L 559 443.5L 559 449L 553.5 449L 548 449L 548 454.5L 548 460L 542.5 460L 537 460L 537 449L 537 438L 526 438L 515 438L 515 432.5L 515 427L 504 427L 493 427L 493 421.5L 493 416L 498.5 416L 504 416L 504 410.5L 504 405L 498.5 405L 493 405L 493 399.5L 493 394L 504 394L 515 394L 515 388.5L 515 383L 520.5 383L 526 383L 526 388.5L 526 394L 531.5 394L 537 394L 537 399.5L 537 405L 526 405L 515 405L 515 410.5L 515 416L 526 416L 537 416L 537 410.5L 537 405L 542.5 405L 548 405L 548 399.5L 548 394L 542.5 394L 537 394L 537 388.5L 537 383L 531.5 383L 526 383L 526 377.5L 526 372L 531.5 372L 537 372L 537 366.5L 537 361L 520.5 361L 504 361L 504 372L 504 383L 498.5 383L 493 383L 493 377.5L 493 372L 487.5 372L 482 372L 482 366.5L 482 361L 476.5 361L 471 361L 471 355.5L 471 350L 493 350L 515 350L 515 344.5L 515 339L 520.5 339L 526 339L 526 344.5L 526 350L 531.5 350L 537 350L 537 344.5L 537 339L 531.5 339L 526 339L 526 333.5L 526 328L 537 328L 548 328L 548 317L 548 306L 553.5 306L 559 306L 559 311.5L 559 317L 564.5 317L 570 317L 570 306L 570 295L 575.5 295L 581 295L 581 289.5L 581 284L 575.5 284L 570 284L 570 278.5L 570 273L 581 273L 592 273L 592 278.5L 592 284L 603 284L 614 284L 614 295L 614 306L 619.5 306L 625 306L 625 311.5L 625 317L 636 317L 647 317L 647 311.5L 647 306L 636 306L 625 306L 625 300.5L 625 295L 630.5 295L 636 295L 636 284L 636 273L 641.5 273L 647 273L 647 278.5L 647 284L 669 284L 691 284L 691 289.5L 691 295L 702 295L 713 295L 713 289.5L 713 284L 702 284L 691 284L 691 278.5L 691 273L 685.5 273L 680 273L 680 267.5L 680 262L 674.5 262L 669 262L 669 256.5L 669 251L 663.5 251L 658 251L 658 256.5L 658 262L 663.5 262L 669 262L 669 267.5L 669 273L 658 273L 647 273L 647 267.5L 647 262L 641.5 262L 636 262L 636 251L 636 240L 625 240L 614 240L 614 251L 614 262L 597.5 262L 581 262L 581 251L 581 240L 570 240L 559 240L 559 245.5L 559 251L 553.5 251L 548 251L 548 256.5L 548 262L 553.5 262L 559 262L 559 273L 559 284L 553.5 284L 548 284L 548 278.5L 548 273L 542.5 273L 537 273L 537 262L 537 251L 531.5 251L 526 251L 526 256.5L 526 262L 520.5 262L 515 262L 515 273L 515 284L 531.5 284L 548 284L 548 295L 548 306L 542.5 306L 537 306L 537 300.5L 537 295L 520.5 295L 504 295L 504 284L 504 273L 498.5 273L 493 273L 493 278.5L 493 284L 487.5 284L 482 284L 482 278.5L 482 273L 476.5 273L 471 273L 471 278.5L 471 284L 476.5 284L 482 284L 482 289.5L 482 295L 487.5 295L 493 295L 493 306L 493 317L 498.5 317L 504 317L 504 311.5L 504 306L 509.5 306L 515 306L 515 322.5L 515 339L 504 339L 493 339L 493 333.5L 493 328L 487.5 328L 482 328L 482 317L 482 306L 465.5 306L 449 306L 449 311.5L 449 317L 454.5 317L 460 317L 460 322.5L 460 328L 449 328L 438 328L 438 333.5L 438 339L 432.5 339L 427 339L 427 350L 427 361L 421.5 361L 416 361L 416 344.5L 416 328L 421.5 328L 427 328L 427 322.5L 427 317L 432.5 317L 438 317L 438 306L 438 295L 449 295L 460 295L 460 289.5L 460 284L 449 284L 438 284L 438 278.5L 438 273L 432.5 273L 427 273L 427 267.5L 427 262L 432.5 262L 438 262L 438 256.5L 438 251L 432.5 251L 427 251L 427 256.5L 427 262L 421.5 262L 416 262L 416 251L 416 240L 421.5 240L 427 240L 427 229L 427 218L 421.5 218L 416 218L 416 229L 416 240L 388.5 240L 361 240L 361 234.5L 361 229L 372 229L 383 229L 383 223.5L 383 218L 372 218L 361 218L 361 212.5L 361 207L 355.5 207L 350 207L 350 212.5zM 361 223.5L 361 229L 355.5 229L 350 229L 350 223.5L 350 218L 355.5 218L 361 218L 361 223.5zM 570 256.5L 570 262L 564.5 262L 559 262L 559 256.5L 559 251L 564.5 251L 570 251L 570 256.5zM 625 273L 625 284L 619.5 284L 614 284L 614 273L 614 262L 619.5 262L 625 262L 625 273zM 427 300.5L 427 317L 421.5 317L 416 317L 416 322.5L 416 328L 410.5 328L 405 328L 405 333.5L 405 339L 399.5 339L 394 339L 394 333.5L 394 328L 399.5 328L 405 328L 405 322.5L 405 317L 399.5 317L 394 317L 394 311.5L 394 306L 405 306L 416 306L 416 295L 416 284L 421.5 284L 427 284L 427 300.5zM 295 311.5L 295 317L 289.5 317L 284 317L 284 311.5L 284 306L 289.5 306L 295 306L 295 311.5zM 537 311.5L 537 317L 531.5 317L 526 317L 526 311.5L 526 306L 531.5 306L 537 306L 537 311.5zM 284 333.5L 284 339L 278.5 339L 273 339L 273 333.5L 273 328L 278.5 328L 284 328L 284 333.5zM 482 333.5L 482 339L 476.5 339L 471 339L 471 344.5L 471 350L 454.5 350L 438 350L 438 344.5L 438 339L 454.5 339L 471 339L 471 333.5L 471 328L 476.5 328L 482 328L 482 333.5zM 405 355.5L 405 361L 410.5 361L 416 361L 416 366.5L 416 372L 388.5 372L 361 372L 361 366.5L 361 361L 372 361L 383 361L 383 355.5L 383 350L 394 350L 405 350L 405 355.5zM 471 366.5L 471 372L 476.5 372L 482 372L 482 377.5L 482 383L 487.5 383L 493 383L 493 388.5L 493 394L 487.5 394L 482 394L 482 388.5L 482 383L 476.5 383L 471 383L 471 388.5L 471 394L 460 394L 449 394L 449 399.5L 449 405L 454.5 405L 460 405L 460 410.5L 460 416L 443.5 416L 427 416L 427 399.5L 427 383L 432.5 383L 438 383L 438 388.5L 438 394L 443.5 394L 449 394L 449 388.5L 449 383L 454.5 383L 460 383L 460 377.5L 460 372L 443.5 372L 427 372L 427 366.5L 427 361L 449 361L 471 361L 471 366.5zM 416 399.5L 416 416L 399.5 416L 383 416L 383 399.5L 383 383L 399.5 383L 416 383L 416 399.5zM 394 432.5L 394 438L 388.5 438L 383 438L 383 443.5L 383 449L 399.5 449L 416 449L 416 460L 416 471L 410.5 471L 405 471L 405 476.5L 405 482L 394 482L 383 482L 383 487.5L 383 493L 377.5 493L 372 493L 372 498.5L 372 504L 366.5 504L 361 504L 361 520.5L 361 537L 366.5 537L 372 537L 372 542.5L 372 548L 366.5 548L 361 548L 361 542.5L 361 537L 355.5 537L 350 537L 350 531.5L 350 526L 344.5 526L 339 526L 339 509.5L 339 493L 328 493L 317 493L 317 482L 317 471L 322.5 471L 328 471L 328 476.5L 328 482L 339 482L 350 482L 350 471L 350 460L 355.5 460L 361 460L 361 454.5L 361 449L 366.5 449L 372 449L 372 438L 372 427L 383 427L 394 427L 394 432.5zM 581 438L 581 449L 586.5 449L 592 449L 592 454.5L 592 460L 581 460L 570 460L 570 443.5L 570 427L 575.5 427L 581 427L 581 438zM 284 454.5L 284 460L 278.5 460L 273 460L 273 454.5L 273 449L 278.5 449L 284 449L 284 454.5zM 306 465.5L 306 471L 300.5 471L 295 471L 295 465.5L 295 460L 300.5 460L 306 460L 306 465.5zM 537 465.5L 537 471L 542.5 471L 548 471L 548 465.5L 548 460L 553.5 460L 559 460L 559 465.5L 559 471L 564.5 471L 570 471L 570 476.5L 570 482L 564.5 482L 559 482L 559 487.5L 559 493L 553.5 493L 548 493L 548 498.5L 548 504L 542.5 504L 537 504L 537 498.5L 537 493L 531.5 493L 526 493L 526 487.5L 526 482L 520.5 482L 515 482L 515 476.5L 515 471L 520.5 471L 526 471L 526 465.5L 526 460L 531.5 460L 537 460L 537 465.5zM 328 520.5L 328 526L 322.5 526L 317 526L 317 520.5L 317 515L 322.5 515L 328 515L 328 520.5zM 548 520.5L 548 526L 542.5 526L 537 526L 537 520.5L 537 515L 542.5 515L 548 515L 548 520.5z"/>
<path style="stroke:none; fill:#000000" d="M 394 399.5L 394 405L 399.5 405L 405 405L 405 399.5L 405 394L 399.5 394L 394 394L 394 399.5z"/>
<path style="stroke:none; fill:#000000" d="M 361 465.5L 361 471L 366.5 471L 372 471L 372 476.5L 372 482L 377.5 482L 383 482L 383 476.5L 383 471L 388.5 471L 394 471L 394 465.5L 394 460L 377.5 460L 361 460L 361 465.5z"/>
<path style="stroke:none; fill:#000000" d="M 526 476.5L 526 482L 531.5 482L 537 482L 537 487.5L 537 493L 542.5 493L 548 493L 548 487.5L 548 482L 553.5 482L 559 482L 559 476.5L 559 471L 553.5 471L 548 471L 548 476.5L 548 482L 542.5 482L 537 482L 537 476.5L 537 471L 531.5 471L 526 471L 526 476.5z"/>
<path style="stroke:none; fill:#000000" d="M 680 212.5L 680 218L 685.5 218L 691 218L 691 212.5L 691 207L 685.5 207L 680 207L 680 212.5z"/>
<path style="stroke:none; fill:#000000" d="M 559 223.5L 559 229L 564.5 229L 570 229L 570 223.5L 570 218L 564.5 218L 559 218L 559 223.5z"/>
<path style="stroke:none; fill:#000000" d="M 196 256.5L 196 262L 201.5 262L 207 262L 207 256.5L 207 251L 201.5 251L 196 251L 196 256.5z"/>
<path style="stroke:none; fill:#000000" d="M 108 289.5L 108 295L 124.5 295L 141 295L 141 289.5L 141 284L 124.5 284L 108 284L 108 289.5z"/>
<path style="stroke:none; fill:#000000" d="M 350 295L 350 306L 355.5 306L 361 306L 361 295L 361 284L 355.5 284L 350 284L 350 295z"/>
<path style="stroke:none; fill:#000000" d="M 119 311.5L 119 317L 130 317L 141 317L 141 311.5L 141 306L 130 306L 119 306L 119 311.5z"/>
<path style="stroke:none; fill:#000000" d="M 207 322.5L 207 328L 212.5 328L 218 328L 218 322.5L 218 317L 212.5 317L 207 317L 207 322.5z"/>
<path style="stroke:none; fill:#000000" d="M 130 355.5L 130 361L 135.5 361L 141 361L 141 355.5L 141 350L 135.5 350L 130 350L 130 355.5z"/>
<path style="stroke:none; fill:#000000" d="M 185 410.5L 185 416L 190.5 416L 196 416L 196 410.5L 196 405L 190.5 405L 185 405L 185 410.5z"/>
<path style="stroke:none; fill:#000000" d="M 240 438L 240 449L 245.5 449L 251 449L 251 438L 251 427L 245.5 427L 240 427L 240 438z"/>
<path style="stroke:none; fill:#000000" d="M 130 465.5L 130 471L 135.5 471L 141 471L 141 465.5L 141 460L 135.5 460L 130 460L 130 465.5z"/>
<path style="stroke:none; fill:#000000" d="M 438 465.5L 438 471L 454.5 471L 471 471L 471 465.5L 471 460L 454.5 460L 438 460L 438 465.5z"/>
<path style="stroke:none; fill:#000000" d="M 262 487.5L 262 493L 267.5 493L 273 493L 273 487.5L 273 482L 267.5 482L 262 482L 262 487.5z"/>
<path style="stroke:none; fill:#000000" d="M 174 509.5L 174 515L 179.5 515L 185 515L 185 509.5L 185 504L 179.5 504L 174 504L 174 509.5z"/>
<path style="stroke:none; fill:#000000" d="M 207 509.5L 207 515L 212.5 515L 218 515L 218 509.5L 218 504L 212.5 504L 207 504L 207 509.5z"/>
<path style="stroke:none; fill:#000000" d="M 405 515L 405 526L 399.5 526L 394 526L 394 531.5L 394 537L 399.5 537L 405 537L 405 531.5L 405 526L 410.5 526L 416 526L 416 520.5L 416 515L 421.5 515L 427 515L 427 509.5L 427 504L 416 504L 405 504L 405 515z"/>
<path style="stroke:none; fill:#000000" d="M 174 531.5L 174 537L 168.5 537L 163 537L 163 542.5L 163 548L 146.5 548L 130 548L 130 553.5L 130 559L 141 559L 152 559L 152 564.5L 152 570L 157.5 570L 163 570L 163 559L 163 548L 179.5 548L 196 548L 196 537L 196 526L 185 526L 174 526L 174 531.5z"/>
<path style="stroke:none; fill:#000000" d="M 229 537L 229 548L 223.5 548L 218 548L 218 542.5L 218 537L 212.5 537L 207 537L 207 542.5L 207 548L 212.5 548L 218 548L 218 553.5L 218 559L 212.5 559L 207 559L 207 564.5L 207 570L 212.5 570L 218 570L 218 564.5L 218 559L 223.5 559L 229 559L 229 564.5L 229 570L 240 570L 251 570L 251 564.5L 251 559L 245.5 559L 240 559L 240 542.5L 240 526L 234.5 526L 229 526L 229 537z"/>
<path style="stroke:none; fill:#000000" d="M 438 553.5L 438 559L 432.5 559L 427 559L 427 570L 427 581L 432.5 581L 438 581L 438 570L 438 559L 449 559L 460 559L 460 553.5L 460 548L 449 548L 438 548L 438 553.5z"/>
<path style="stroke:none; fill:#000000" d="M 185 564.5L 185 570L 190.5 570L 196 570L 196 564.5L 196 559L 190.5 559L 185 559L 185 564.5z"/>
<path style="stroke:none; fill:#000000" d="M 328 564.5L 328 570L 333.5 570L 339 570L 339 575.5L 339 581L 344.5 581L 350 581L 350 570L 350 559L 339 559L 328 559L 328 564.5z"/>
<path style="stroke:none; fill:#000000" d="M 449 581L 449 592L 443.5 592L 438 592L 438 597.5L 438 603L 432.5 603L 427 603L 427 597.5L 427 592L 421.5 592L 416 592L 416 597.5L 416 603L 421.5 603L 427 603L 427 608.5L 427 614L 421.5 614L 416 614L 416 619.5L 416 625L 443.5 625L 471 625L 471 630.5L 471 636L 476.5 636L 482 636L 482 641.5L 482 647L 487.5 647L 493 647L 493 652.5L 493 658L 504 658L 515 658L 515 647L 515 636L 526 636L 537 636L 537 641.5L 537 647L 531.5 647L 526 647L 526 652.5L 526 658L 531.5 658L 537 658L 537 652.5L 537 647L 542.5 647L 548 647L 548 652.5L 548 658L 559 658L 570 658L 570 652.5L 570 647L 575.5 647L 581 647L 581 641.5L 581 636L 570 636L 559 636L 559 630.5L 559 625L 553.5 625L 548 625L 548 619.5L 548 614L 542.5 614L 537 614L 537 608.5L 537 603L 531.5 603L 526 603L 526 608.5L 526 614L 520.5 614L 515 614L 515 608.5L 515 603L 509.5 603L 504 603L 504 608.5L 504 614L 509.5 614L 515 614L 515 625L 515 636L 509.5 636L 504 636L 504 630.5L 504 625L 498.5 625L 493 625L 493 630.5L 493 636L 487.5 636L 482 636L 482 630.5L 482 625L 476.5 625L 471 625L 471 619.5L 471 614L 454.5 614L 438 614L 438 608.5L 438 603L 449 603L 460 603L 460 592L 460 581L 465.5 581L 471 581L 471 575.5L 471 570L 460 570L 449 570L 449 581zM 504 641.5L 504 647L 498.5 647L 493 647L 493 641.5L 493 636L 498.5 636L 504 636L 504 641.5zM 559 641.5L 559 647L 553.5 647L 548 647L 548 641.5L 548 636L 553.5 636L 559 636L 559 641.5z"/>
<path style="stroke:none; fill:#000000" d="M 207 586.5L 207 592L 196 592L 185 592L 185 597.5L 185 603L 179.5 603L 174 603L 174 608.5L 174 614L 179.5 614L 185 614L 185 608.5L 185 603L 190.5 603L 196 603L 196 608.5L 196 614L 201.5 614L 207 614L 207 625L 207 636L 212.5 636L 218 636L 218 630.5L 218 625L 223.5 625L 229 625L 229 619.5L 229 614L 223.5 614L 218 614L 218 608.5L 218 603L 229 603L 240 603L 240 597.5L 240 592L 245.5 592L 251 592L 251 603L 251 614L 256.5 614L 262 614L 262 603L 262 592L 256.5 592L 251 592L 251 586.5L 251 581L 240 581L 229 581L 229 586.5L 229 592L 223.5 592L 218 592L 218 586.5L 218 581L 212.5 581L 207 581L 207 586.5zM 218 597.5L 218 603L 212.5 603L 207 603L 207 597.5L 207 592L 212.5 592L 218 592L 218 597.5z"/>
<path style="stroke:none; fill:#000000" d="M 482 597.5L 482 603L 487.5 603L 493 603L 493 597.5L 493 592L 487.5 592L 482 592L 482 597.5z"/>
<path style="stroke:none; fill:#000000" d="M 438 641.5L 438 647L 443.5 647L 449 647L 449 641.5L 449 636L 443.5 636L 438 636L 438 641.5z"/>
<path style="stroke:none; fill:#000000" d="M 328 652.5L 328 658L 333.5 658L 339 658L 339 663.5L 339 669L 328 669L 317 669L 317 674.5L 317 680L 322.5 680L 328 680L 328 685.5L 328 691L 322.5 691L 317 691L 317 696.5L 317 702L 322.5 702L 328 702L 328 696.5L 328 691L 333.5 691L 339 691L 339 685.5L 339 680L 350 680L 361 680L 361 674.5L 361 669L 355.5 669L 350 669L 350 663.5L 350 658L 344.5 658L 339 658L 339 652.5L 339 647L 333.5 647L 328 647L 328 652.5z"/>
<path style="stroke:none; fill:#000000" d="M 394 135.5L 394 141L 399.5 141L 405 141L 405 135.5L 405 130L 399.5 130L 394 130L 394 135.5z"/>
<path style="stroke:none; fill:#000000" d="M 460 157.5L 460 163L 465.5 163L 471 163L 471 157.5L 471 152L 465.5 152L 460 152L 460 157.5z"/>
<path style="stroke:none; fill:#000000" d="M 130 399.5L 130 405L 135.5 405L 141 405L 141 399.5L 141 394L 135.5 394L 130 394L 130 399.5z"/>
<path style="stroke:none; fill:#000000" d="M 658 399.5L 658 405L 663.5 405L 669 405L 669 399.5L 669 394L 663.5 394L 658 394L 658 399.5z"/>
<path style="stroke:none; fill:#000000" d="M 658 619.5L 658 625L 663.5 625L 669 625L 669 619.5L 669 614L 663.5 614L 658 614L 658 619.5z"/>
<path style="stroke:none; fill:#000000" d="M 394 663.5L 394 669L 399.5 669L 405 669L 405 663.5L 405 658L 399.5 658L 394 658L 394 663.5z"/>
<path style="stroke:none; fill:#000000" d="M 658 663.5L 658 669L 663.5 669L 669 669L 669 663.5L 669 658L 663.5 658L 658 658L 658 663.5z"/>
<path style="stroke:none; fill:#000000" d="M 526 696.5L 526 702L 531.5 702L 537 702L 537 707.5L 537 713L 542.5 713L 548 713L 548 707.5L 548 702L 542.5 702L 537 702L 537 696.5L 537 691L 531.5 691L 526 691L 526 696.5z"/>
<path style="stroke:none; fill:#000000" d="M 273 69.5L 273 75L 262 75L 251 75L 251 86L 251 97L 245.5 97L 240 97L 240 102.5L 240 108L 245.5 108L 251 108L 251 113.5L 251 119L 262 119L 273 119L 273 113.5L 273 108L 267.5 108L 262 108L 262 102.5L 262 97L 273 97L 284 97L 284 91.5L 284 86L 289.5 86L 295 86L 295 91.5L 295 97L 300.5 97L 306 97L 306 86L 306 75L 317 75L 328 75L 328 69.5L 328 64L 317 64L 306 64L 306 69.5L 306 75L 295 75L 284 75L 284 69.5L 284 64L 278.5 64L 273 64L 273 69.5z"/>
<path style="stroke:none; fill:#000000" d="M 658 102.5L 658 141L 696.5 141L 735 141L 735 102.5L 735 64L 696.5 64L 658 64L 658 102.5zM 724 102.5L 724 130L 696.5 130L 669 130L 669 102.5L 669 75L 696.5 75L 724 75L 724 102.5z"/>
<path style="stroke:none; fill:#000000" d="M 680 102.5L 680 119L 696.5 119L 713 119L 713 102.5L 713 86L 696.5 86L 680 86L 680 102.5z"/>
<path style="stroke:none; fill:#000000" d="M 262 135.5L 262 141L 267.5 141L 273 141L 273 135.5L 273 130L 267.5 130L 262 130L 262 135.5z"/>
<path style="stroke:none; fill:#000000" d="M 636 135.5L 636 141L 641.5 141L 647 141L 647 135.5L 647 130L 641.5 130L 636 130L 636 135.5z"/>
<path style="stroke:none; fill:#000000" d="M 713 377.5L 713 383L 724 383L 735 383L 735 377.5L 735 372L 724 372L 713 372L 713 377.5z"/>
<path style="stroke:none; fill:#000000" d="M 724 471L 724 482L 718.5 482L 713 482L 713 487.5L 713 493L 724 493L 735 493L 735 476.5L 735 460L 729.5 460L 724 460L 724 471z"/>
<path style="stroke:none; fill:#000000" d="M 691 493L 691 504L 696.5 504L 702 504L 702 509.5L 702 515L 696.5 515L 691 515L 691 520.5L 691 526L 685.5 526L 680 526L 680 531.5L 680 537L 663.5 537L 647 537L 647 542.5L 647 548L 652.5 548L 658 548L 658 553.5L 658 559L 663.5 559L 669 559L 669 553.5L 669 548L 674.5 548L 680 548L 680 542.5L 680 537L 685.5 537L 691 537L 691 548L 691 559L 696.5 559L 702 559L 702 548L 702 537L 713 537L 724 537L 724 531.5L 724 526L 729.5 526L 735 526L 735 520.5L 735 515L 724 515L 713 515L 713 509.5L 713 504L 707.5 504L 702 504L 702 493L 702 482L 696.5 482L 691 482L 691 493zM 713 520.5L 713 526L 707.5 526L 702 526L 702 520.5L 702 515L 707.5 515L 713 515L 713 520.5z"/>
<path style="stroke:none; fill:#000000" d="M 130 641.5L 130 647L 135.5 647L 141 647L 141 641.5L 141 636L 135.5 636L 130 636L 130 641.5z"/>
<path style="stroke:none; fill:#000000" d="M 713 641.5L 713 647L 724 647L 735 647L 735 641.5L 735 636L 724 636L 713 636L 713 641.5z"/>
<path style="stroke:none; fill:#000000" d="M 64 696.5L 64 735L 102.5 735L 141 735L 141 696.5L 141 658L 102.5 658L 64 658L 64 696.5zM 130 696.5L 130 724L 102.5 724L 75 724L 75 696.5L 75 669L 102.5 669L 130 669L 130 696.5z"/>
<path style="stroke:none; fill:#000000" d="M 86 696.5L 86 713L 102.5 713L 119 713L 119 696.5L 119 680L 102.5 680L 86 680L 86 696.5z"/>
<path style="stroke:none; fill:#000000" d="M 152 691L 152 713L 157.5 713L 163 713L 163 718.5L 163 724L 157.5 724L 152 724L 152 729.5L 152 735L 168.5 735L 185 735L 185 724L 185 713L 190.5 713L 196 713L 196 696.5L 196 680L 179.5 680L 163 680L 163 674.5L 163 669L 157.5 669L 152 669L 152 691zM 174 707.5L 174 713L 168.5 713L 163 713L 163 707.5L 163 702L 168.5 702L 174 702L 174 707.5z"/>
<path style="stroke:none; fill:#000000" d="M 449 707.5L 449 713L 454.5 713L 460 713L 460 718.5L 460 724L 438 724L 416 724L 416 729.5L 416 735L 438 735L 460 735L 460 729.5L 460 724L 471 724L 482 724L 482 729.5L 482 735L 487.5 735L 493 735L 493 729.5L 493 724L 487.5 724L 482 724L 482 713L 482 702L 465.5 702L 449 702L 449 707.5z"/>
</g>
</g>
</svg>