<?xml version="1.0" encoding="UTF-8" standalone="yes"?>
<!-- Created with sK1/UniConvertor (http://sk1project.org/) -->
<svg xmlns="http://www.w3.org/2000/svg" xmlns:xlink="http://www.w3.org/1999/xlink"
  width="800pt" height="800pt" viewBox="0 0 800 800"
  fill-rule="evenodd">
<g>
<g>
<path style="stroke:none; fill:#000000" d="M 57 106L 57 155L 106 155L 155 155L 155 106L 155 57L 106 57L 57 57L 57 106zM 141 106L 141 141L 106 141L 71 141L 71 106L 71 71L 106 71L 141 71L 141 106z"/>
<path style="stroke:none; fill:#000000" d="M 85 106L 85 127L 106 127L 127 127L 127 106L 127 85L 106 85L 85 85L 85 106z"/>
<path style="stroke:none; fill:#000000" d="M 169 64L 169 71L 183 71L 197 71L 197 64L 197 57L 183 57L 169 57L 169 64z"/>
<path style="stroke:none; fill:#000000" d="M 239 64L 239 71L 225 71L 211 71L 211 78L 211 85L 218 85L 225 85L 225 92L 225 99L 211 99L 197 99L 197 106L 197 113L 190 113L 183 113L 183 120L 183 127L 176 127L 169 127L 169 141L 169 155L 176 155L 183 155L 183 169L 183 183L 176 183L 169 183L 169 176L 169 169L 155 169L 141 169L 141 176L 141 183L 134 183L 127 183L 127 190L 127 197L 120 197L 113 197L 113 190L 113 183L 106 183L 99 183L 99 176L 99 169L 92 169L 85 169L 85 176L 85 183L 78 183L 71 183L 71 176L 71 169L 64 169L 57 169L 57 176L 57 183L 64 183L 71 183L 71 197L 71 211L 64 211L 57 211L 57 239L 57 267L 64 267L 71 267L 71 274L 71 281L 64 281L 57 281L 57 288L 57 295L 64 295L 71 295L 71 302L 71 309L 78 309L 85 309L 85 316L 85 323L 71 323L 57 323L 57 337L 57 351L 64 351L 71 351L 71 344L 71 337L 78 337L 85 337L 85 344L 85 351L 99 351L 113 351L 113 365L 113 379L 99 379L 85 379L 85 393L 85 407L 78 407L 71 407L 71 421L 71 435L 64 435L 57 435L 57 498L 57 561L 64 561L 71 561L 71 589L 71 617L 64 617L 57 617L 57 624L 57 631L 78 631L 99 631L 99 624L 99 617L 106 617L 113 617L 113 610L 113 603L 99 603L 85 603L 85 596L 85 589L 99 589L 113 589L 113 582L 113 575L 99 575L 85 575L 85 561L 85 547L 78 547L 71 547L 71 540L 71 533L 85 533L 99 533L 99 540L 99 547L 106 547L 113 547L 113 540L 113 533L 120 533L 127 533L 127 540L 127 547L 141 547L 155 547L 155 554L 155 561L 148 561L 141 561L 141 568L 141 575L 148 575L 155 575L 155 582L 155 589L 141 589L 127 589L 127 596L 127 603L 148 603L 169 603L 169 596L 169 589L 176 589L 183 589L 183 596L 183 603L 197 603L 211 603L 211 617L 211 631L 204 631L 197 631L 197 624L 197 617L 190 617L 183 617L 183 624L 183 631L 176 631L 169 631L 169 645L 169 659L 183 659L 197 659L 197 666L 197 673L 190 673L 183 673L 183 680L 183 687L 190 687L 197 687L 197 694L 197 701L 183 701L 169 701L 169 708L 169 715L 176 715L 183 715L 183 722L 183 729L 176 729L 169 729L 169 736L 169 743L 183 743L 197 743L 197 736L 197 729L 204 729L 211 729L 211 736L 211 743L 225 743L 239 743L 239 736L 239 729L 246 729L 253 729L 253 722L 253 715L 260 715L 267 715L 267 729L 267 743L 295 743L 323 743L 323 736L 323 729L 337 729L 351 729L 351 736L 351 743L 365 743L 379 743L 379 715L 379 687L 386 687L 393 687L 393 715L 393 743L 414 743L 435 743L 435 736L 435 729L 421 729L 407 729L 407 722L 407 715L 421 715L 435 715L 435 708L 435 701L 421 701L 407 701L 407 694L 407 687L 428 687L 449 687L 449 701L 449 715L 456 715L 463 715L 463 722L 463 729L 456 729L 449 729L 449 736L 449 743L 463 743L 477 743L 477 729L 477 715L 484 715L 491 715L 491 729L 491 743L 498 743L 505 743L 505 729L 505 715L 512 715L 519 715L 519 729L 519 743L 526 743L 533 743L 533 729L 533 715L 540 715L 547 715L 547 708L 547 701L 540 701L 533 701L 533 694L 533 687L 526 687L 519 687L 519 680L 519 673L 526 673L 533 673L 533 666L 533 659L 540 659L 547 659L 547 673L 547 687L 554 687L 561 687L 561 708L 561 729L 568 729L 575 729L 575 736L 575 743L 582 743L 589 743L 589 729L 589 715L 603 715L 617 715L 617 729L 617 743L 624 743L 631 743L 631 729L 631 715L 624 715L 617 715L 617 701L 617 687L 624 687L 631 687L 631 694L 631 701L 638 701L 645 701L 645 694L 645 687L 659 687L 673 687L 673 694L 673 701L 666 701L 659 701L 659 708L 659 715L 673 715L 687 715L 687 722L 687 729L 680 729L 673 729L 673 736L 673 743L 694 743L 715 743L 715 736L 715 729L 722 729L 729 729L 729 736L 729 743L 736 743L 743 743L 743 722L 743 701L 736 701L 729 701L 729 694L 729 687L 736 687L 743 687L 743 673L 743 659L 736 659L 729 659L 729 673L 729 687L 722 687L 715 687L 715 680L 715 673L 701 673L 687 673L 687 666L 687 659L 694 659L 701 659L 701 652L 701 645L 694 645L 687 645L 687 631L 687 617L 694 617L 701 617L 701 624L 701 631L 708 631L 715 631L 715 638L 715 645L 722 645L 729 645L 729 638L 729 631L 736 631L 743 631L 743 610L 743 589L 736 589L 729 589L 729 582L 729 575L 736 575L 743 575L 743 554L 743 533L 736 533L 729 533L 729 519L 729 505L 736 505L 743 505L 743 491L 743 477L 736 477L 729 477L 729 491L 729 505L 715 505L 701 505L 701 498L 701 491L 694 491L 687 491L 687 498L 687 505L 694 505L 701 505L 701 512L 701 519L 680 519L 659 519L 659 512L 659 505L 666 505L 673 505L 673 491L 673 477L 687 477L 701 477L 701 470L 701 463L 708 463L 715 463L 715 456L 715 449L 708 449L 701 449L 701 428L 701 407L 708 407L 715 407L 715 421L 715 435L 722 435L 729 435L 729 449L 729 463L 736 463L 743 463L 743 442L 743 421L 736 421L 729 421L 729 414L 729 407L 736 407L 743 407L 743 393L 743 379L 736 379L 729 379L 729 393L 729 407L 722 407L 715 407L 715 393L 715 379L 708 379L 701 379L 701 351L 701 323L 715 323L 729 323L 729 330L 729 337L 722 337L 715 337L 715 344L 715 351L 722 351L 729 351L 729 358L 729 365L 736 365L 743 365L 743 337L 743 309L 722 309L 701 309L 701 302L 701 295L 715 295L 729 295L 729 288L 729 281L 715 281L 701 281L 701 288L 701 295L 687 295L 673 295L 673 302L 673 309L 652 309L 631 309L 631 316L 631 323L 659 323L 687 323L 687 330L 687 337L 673 337L 659 337L 659 344L 659 351L 666 351L 673 351L 673 358L 673 365L 645 365L 617 365L 617 358L 617 351L 631 351L 645 351L 645 344L 645 337L 631 337L 617 337L 617 330L 617 323L 610 323L 603 323L 603 316L 603 309L 589 309L 575 309L 575 302L 575 295L 582 295L 589 295L 589 288L 589 281L 568 281L 547 281L 547 288L 547 295L 554 295L 561 295L 561 302L 561 309L 554 309L 547 309L 547 316L 547 323L 554 323L 561 323L 561 330L 561 337L 554 337L 547 337L 547 344L 547 351L 540 351L 533 351L 533 309L 533 267L 526 267L 519 267L 519 260L 519 253L 512 253L 505 253L 505 260L 505 267L 498 267L 491 267L 491 281L 491 295L 484 295L 477 295L 477 281L 477 267L 470 267L 463 267L 463 260L 463 253L 477 253L 491 253L 491 246L 491 239L 505 239L 519 239L 519 232L 519 225L 526 225L 533 225L 533 211L 533 197L 540 197L 547 197L 547 190L 547 183L 554 183L 561 183L 561 197L 561 211L 554 211L 547 211L 547 225L 547 239L 554 239L 561 239L 561 253L 561 267L 582 267L 603 267L 603 281L 603 295L 610 295L 617 295L 617 274L 617 253L 603 253L 589 253L 589 246L 589 239L 582 239L 575 239L 575 232L 575 225L 582 225L 589 225L 589 218L 589 211L 596 211L 603 211L 603 218L 603 225L 610 225L 617 225L 617 232L 617 239L 631 239L 645 239L 645 253L 645 267L 652 267L 659 267L 659 253L 659 239L 652 239L 645 239L 645 225L 645 211L 638 211L 631 211L 631 218L 631 225L 624 225L 617 225L 617 218L 617 211L 610 211L 603 211L 603 204L 603 197L 589 197L 575 197L 575 190L 575 183L 582 183L 589 183L 589 176L 589 169L 582 169L 575 169L 575 176L 575 183L 568 183L 561 183L 561 169L 561 155L 568 155L 575 155L 575 148L 575 141L 582 141L 589 141L 589 148L 589 155L 596 155L 603 155L 603 162L 603 169L 610 169L 617 169L 617 183L 617 197L 638 197L 659 197L 659 190L 659 183L 666 183L 673 183L 673 204L 673 225L 680 225L 687 225L 687 218L 687 211L 694 211L 701 211L 701 197L 701 183L 708 183L 715 183L 715 204L 715 225L 722 225L 729 225L 729 239L 729 253L 736 253L 743 253L 743 232L 743 211L 736 211L 729 211L 729 197L 729 183L 736 183L 743 183L 743 176L 743 169L 736 169L 729 169L 729 176L 729 183L 722 183L 715 183L 715 176L 715 169L 708 169L 701 169L 701 176L 701 183L 687 183L 673 183L 673 176L 673 169L 666 169L 659 169L 659 176L 659 183L 645 183L 631 183L 631 176L 631 169L 624 169L 617 169L 617 162L 617 155L 624 155L 631 155L 631 148L 631 141L 624 141L 617 141L 617 148L 617 155L 610 155L 603 155L 603 141L 603 127L 596 127L 589 127L 589 120L 589 113L 582 113L 575 113L 575 127L 575 141L 568 141L 561 141L 561 120L 561 99L 568 99L 575 99L 575 92L 575 85L 568 85L 561 85L 561 71L 561 57L 554 57L 547 57L 547 64L 547 71L 533 71L 519 71L 519 78L 519 85L 512 85L 505 85L 505 71L 505 57L 484 57L 463 57L 463 71L 463 85L 456 85L 449 85L 449 78L 449 71L 442 71L 435 71L 435 78L 435 85L 428 85L 421 85L 421 71L 421 57L 414 57L 407 57L 407 71L 407 85L 400 85L 393 85L 393 71L 393 57L 386 57L 379 57L 379 71L 379 85L 372 85L 365 85L 365 134L 365 183L 358 183L 351 183L 351 176L 351 169L 337 169L 323 169L 323 155L 323 141L 330 141L 337 141L 337 148L 337 155L 344 155L 351 155L 351 148L 351 141L 344 141L 337 141L 337 134L 337 127L 344 127L 351 127L 351 120L 351 113L 344 113L 337 113L 337 106L 337 99L 344 99L 351 99L 351 78L 351 57L 337 57L 323 57L 323 64L 323 71L 330 71L 337 71L 337 85L 337 99L 330 99L 323 99L 323 92L 323 85L 309 85L 295 85L 295 71L 295 57L 288 57L 281 57L 281 78L 281 99L 274 99L 267 99L 267 113L 267 127L 274 127L 281 127L 281 148L 281 169L 260 169L 239 169L 239 141L 239 113L 246 113L 253 113L 253 99L 253 85L 260 85L 267 85L 267 71L 267 57L 253 57L 239 57L 239 64zM 253 78L 253 85L 246 85L 239 85L 239 78L 239 71L 246 71L 253 71L 253 78zM 491 78L 491 85L 484 85L 477 85L 477 99L 477 113L 470 113L 463 113L 463 127L 463 141L 470 141L 477 141L 477 134L 477 127L 491 127L 505 127L 505 120L 505 113L 498 113L 491 113L 491 106L 491 99L 505 99L 519 99L 519 92L 519 85L 526 85L 533 85L 533 99L 533 113L 540 113L 547 113L 547 127L 547 141L 554 141L 561 141L 561 148L 561 155L 554 155L 547 155L 547 169L 547 183L 540 183L 533 183L 533 169L 533 155L 526 155L 519 155L 519 162L 519 169L 512 169L 505 169L 505 197L 505 225L 498 225L 491 225L 491 232L 491 239L 484 239L 477 239L 477 225L 477 211L 484 211L 491 211L 491 204L 491 197L 477 197L 463 197L 463 190L 463 183L 470 183L 477 183L 477 176L 477 169L 463 169L 449 169L 449 176L 449 183L 442 183L 435 183L 435 190L 435 197L 442 197L 449 197L 449 204L 449 211L 442 211L 435 211L 435 218L 435 225L 449 225L 463 225L 463 232L 463 239L 456 239L 449 239L 449 253L 449 267L 456 267L 463 267L 463 274L 463 281L 456 281L 449 281L 449 288L 449 295L 442 295L 435 295L 435 302L 435 309L 442 309L 449 309L 449 323L 449 337L 442 337L 435 337L 435 344L 435 351L 442 351L 449 351L 449 365L 449 379L 456 379L 463 379L 463 386L 463 393L 456 393L 449 393L 449 386L 449 379L 442 379L 435 379L 435 365L 435 351L 428 351L 421 351L 421 344L 421 337L 407 337L 393 337L 393 351L 393 365L 379 365L 365 365L 365 386L 365 407L 358 407L 351 407L 351 414L 351 421L 358 421L 365 421L 365 428L 365 435L 372 435L 379 435L 379 442L 379 449L 372 449L 365 449L 365 456L 365 463L 372 463L 379 463L 379 470L 379 477L 358 477L 337 477L 337 484L 337 491L 358 491L 379 491L 379 498L 379 505L 344 505L 309 505L 309 512L 309 519L 302 519L 295 519L 295 533L 295 547L 302 547L 309 547L 309 540L 309 533L 323 533L 337 533L 337 526L 337 519L 351 519L 365 519L 365 526L 365 533L 358 533L 351 533L 351 540L 351 547L 358 547L 365 547L 365 554L 365 561L 372 561L 379 561L 379 554L 379 547L 386 547L 393 547L 393 540L 393 533L 386 533L 379 533L 379 526L 379 519L 393 519L 407 519L 407 505L 407 491L 400 491L 393 491L 393 484L 393 477L 400 477L 407 477L 407 470L 407 463L 414 463L 421 463L 421 470L 421 477L 414 477L 407 477L 407 484L 407 491L 421 491L 435 491L 435 498L 435 505L 442 505L 449 505L 449 498L 449 491L 463 491L 477 491L 477 456L 477 421L 484 421L 491 421L 491 414L 491 407L 484 407L 477 407L 477 386L 477 365L 470 365L 463 365L 463 358L 463 351L 470 351L 477 351L 477 337L 477 323L 484 323L 491 323L 491 309L 491 295L 498 295L 505 295L 505 281L 505 267L 512 267L 519 267L 519 281L 519 295L 512 295L 505 295L 505 309L 505 323L 512 323L 519 323L 519 330L 519 337L 512 337L 505 337L 505 365L 505 393L 512 393L 519 393L 519 400L 519 407L 512 407L 505 407L 505 421L 505 435L 512 435L 519 435L 519 428L 519 421L 526 421L 533 421L 533 400L 533 379L 526 379L 519 379L 519 365L 519 351L 526 351L 533 351L 533 365L 533 379L 540 379L 547 379L 547 372L 547 365L 554 365L 561 365L 561 372L 561 379L 568 379L 575 379L 575 358L 575 337L 582 337L 589 337L 589 330L 589 323L 596 323L 603 323L 603 358L 603 393L 610 393L 617 393L 617 407L 617 421L 610 421L 603 421L 603 428L 603 435L 610 435L 617 435L 617 442L 617 449L 624 449L 631 449L 631 442L 631 435L 659 435L 687 435L 687 442L 687 449L 694 449L 701 449L 701 456L 701 463L 694 463L 687 463L 687 456L 687 449L 666 449L 645 449L 645 456L 645 463L 631 463L 617 463L 617 456L 617 449L 610 449L 603 449L 603 463L 603 477L 596 477L 589 477L 589 484L 589 491L 603 491L 617 491L 617 498L 617 505L 624 505L 631 505L 631 498L 631 491L 638 491L 645 491L 645 505L 645 519L 631 519L 617 519L 617 512L 617 505L 610 505L 603 505L 603 519L 603 533L 596 533L 589 533L 589 540L 589 547L 603 547L 617 547L 617 540L 617 533L 624 533L 631 533L 631 547L 631 561L 638 561L 645 561L 645 568L 645 575L 638 575L 631 575L 631 568L 631 561L 617 561L 603 561L 603 575L 603 589L 589 589L 575 589L 575 575L 575 561L 561 561L 547 561L 547 568L 547 575L 540 575L 533 575L 533 533L 533 491L 526 491L 519 491L 519 470L 519 449L 505 449L 491 449L 491 456L 491 463L 498 463L 505 463L 505 470L 505 477L 498 477L 491 477L 491 498L 491 519L 498 519L 505 519L 505 540L 505 561L 498 561L 491 561L 491 575L 491 589L 498 589L 505 589L 505 596L 505 603L 519 603L 533 603L 533 596L 533 589L 547 589L 561 589L 561 596L 561 603L 568 603L 575 603L 575 610L 575 617L 568 617L 561 617L 561 624L 561 631L 554 631L 547 631L 547 638L 547 645L 554 645L 561 645L 561 652L 561 659L 568 659L 575 659L 575 652L 575 645L 582 645L 589 645L 589 624L 589 603L 610 603L 631 603L 631 596L 631 589L 638 589L 645 589L 645 596L 645 603L 638 603L 631 603L 631 610L 631 617L 617 617L 603 617L 603 624L 603 631L 610 631L 617 631L 617 652L 617 673L 610 673L 603 673L 603 687L 603 701L 589 701L 575 701L 575 694L 575 687L 582 687L 589 687L 589 680L 589 673L 575 673L 561 673L 561 666L 561 659L 554 659L 547 659L 547 652L 547 645L 533 645L 519 645L 519 638L 519 631L 526 631L 533 631L 533 624L 533 617L 519 617L 505 617L 505 610L 505 603L 498 603L 491 603L 491 617L 491 631L 498 631L 505 631L 505 645L 505 659L 498 659L 491 659L 491 666L 491 673L 498 673L 505 673L 505 694L 505 715L 498 715L 491 715L 491 708L 491 701L 477 701L 463 701L 463 694L 463 687L 456 687L 449 687L 449 680L 449 673L 456 673L 463 673L 463 659L 463 645L 470 645L 477 645L 477 624L 477 603L 470 603L 463 603L 463 589L 463 575L 470 575L 477 575L 477 561L 477 547L 484 547L 491 547L 491 540L 491 533L 477 533L 463 533L 463 526L 463 519L 470 519L 477 519L 477 512L 477 505L 463 505L 449 505L 449 512L 449 519L 442 519L 435 519L 435 512L 435 505L 428 505L 421 505L 421 512L 421 519L 414 519L 407 519L 407 526L 407 533L 414 533L 421 533L 421 568L 421 603L 428 603L 435 603L 435 589L 435 575L 442 575L 449 575L 449 589L 449 603L 442 603L 435 603L 435 610L 435 617L 442 617L 449 617L 449 638L 449 659L 442 659L 435 659L 435 638L 435 617L 428 617L 421 617L 421 610L 421 603L 414 603L 407 603L 407 610L 407 617L 400 617L 393 617L 393 596L 393 575L 386 575L 379 575L 379 596L 379 617L 372 617L 365 617L 365 624L 365 631L 358 631L 351 631L 351 624L 351 617L 344 617L 337 617L 337 631L 337 645L 344 645L 351 645L 351 652L 351 659L 358 659L 365 659L 365 687L 365 715L 351 715L 337 715L 337 708L 337 701L 344 701L 351 701L 351 687L 351 673L 344 673L 337 673L 337 666L 337 659L 330 659L 323 659L 323 652L 323 645L 316 645L 309 645L 309 652L 309 659L 302 659L 295 659L 295 680L 295 701L 302 701L 309 701L 309 708L 309 715L 316 715L 323 715L 323 722L 323 729L 309 729L 295 729L 295 715L 295 701L 288 701L 281 701L 281 708L 281 715L 274 715L 267 715L 267 708L 267 701L 274 701L 281 701L 281 694L 281 687L 260 687L 239 687L 239 680L 239 673L 232 673L 225 673L 225 687L 225 701L 218 701L 211 701L 211 708L 211 715L 204 715L 197 715L 197 708L 197 701L 204 701L 211 701L 211 680L 211 659L 204 659L 197 659L 197 652L 197 645L 190 645L 183 645L 183 638L 183 631L 190 631L 197 631L 197 638L 197 645L 204 645L 211 645L 211 638L 211 631L 225 631L 239 631L 239 617L 239 603L 260 603L 281 603L 281 596L 281 589L 274 589L 267 589L 267 582L 267 575L 281 575L 295 575L 295 596L 295 617L 302 617L 309 617L 309 624L 309 631L 316 631L 323 631L 323 624L 323 617L 330 617L 337 617L 337 603L 337 589L 351 589L 365 589L 365 582L 365 575L 358 575L 351 575L 351 568L 351 561L 344 561L 337 561L 337 554L 337 547L 330 547L 323 547L 323 554L 323 561L 281 561L 239 561L 239 568L 239 575L 246 575L 253 575L 253 582L 253 589L 218 589L 183 589L 183 575L 183 561L 176 561L 169 561L 169 547L 169 533L 176 533L 183 533L 183 547L 183 561L 204 561L 225 561L 225 554L 225 547L 218 547L 211 547L 211 540L 211 533L 204 533L 197 533L 197 526L 197 519L 176 519L 155 519L 155 526L 155 533L 141 533L 127 533L 127 526L 127 519L 141 519L 155 519L 155 512L 155 505L 148 505L 141 505L 141 498L 141 491L 169 491L 197 491L 197 477L 197 463L 190 463L 183 463L 183 470L 183 477L 162 477L 141 477L 141 470L 141 463L 127 463L 113 463L 113 498L 113 533L 106 533L 99 533L 99 526L 99 519L 92 519L 85 519L 85 512L 85 505L 92 505L 99 505L 99 484L 99 463L 92 463L 85 463L 85 470L 85 477L 78 477L 71 477L 71 463L 71 449L 85 449L 99 449L 99 435L 99 421L 92 421L 85 421L 85 414L 85 407L 92 407L 99 407L 99 400L 99 393L 106 393L 113 393L 113 414L 113 435L 120 435L 127 435L 127 442L 127 449L 134 449L 141 449L 141 442L 141 435L 148 435L 155 435L 155 442L 155 449L 162 449L 169 449L 169 442L 169 435L 183 435L 197 435L 197 442L 197 449L 204 449L 211 449L 211 435L 211 421L 197 421L 183 421L 183 414L 183 407L 190 407L 197 407L 197 393L 197 379L 204 379L 211 379L 211 372L 211 365L 204 365L 197 365L 197 351L 197 337L 190 337L 183 337L 183 344L 183 351L 169 351L 155 351L 155 358L 155 365L 148 365L 141 365L 141 358L 141 351L 148 351L 155 351L 155 344L 155 337L 148 337L 141 337L 141 330L 141 323L 148 323L 155 323L 155 330L 155 337L 169 337L 183 337L 183 330L 183 323L 176 323L 169 323L 169 316L 169 309L 155 309L 141 309L 141 302L 141 295L 134 295L 127 295L 127 309L 127 323L 120 323L 113 323L 113 330L 113 337L 99 337L 85 337L 85 330L 85 323L 92 323L 99 323L 99 316L 99 309L 92 309L 85 309L 85 302L 85 295L 78 295L 71 295L 71 288L 71 281L 78 281L 85 281L 85 274L 85 267L 78 267L 71 267L 71 260L 71 253L 78 253L 85 253L 85 246L 85 239L 78 239L 71 239L 71 232L 71 225L 78 225L 85 225L 85 218L 85 211L 92 211L 99 211L 99 204L 99 197L 106 197L 113 197L 113 204L 113 211L 134 211L 155 211L 155 218L 155 225L 176 225L 197 225L 197 232L 197 239L 204 239L 211 239L 211 246L 211 253L 218 253L 225 253L 225 246L 225 239L 232 239L 239 239L 239 232L 239 225L 246 225L 253 225L 253 211L 253 197L 239 197L 225 197L 225 190L 225 183L 218 183L 211 183L 211 176L 211 169L 204 169L 197 169L 197 162L 197 155L 190 155L 183 155L 183 141L 183 127L 190 127L 197 127L 197 120L 197 113L 211 113L 225 113L 225 120L 225 127L 218 127L 211 127L 211 134L 211 141L 218 141L 225 141L 225 148L 225 155L 218 155L 211 155L 211 162L 211 169L 218 169L 225 169L 225 176L 225 183L 239 183L 253 183L 253 190L 253 197L 260 197L 267 197L 267 204L 267 211L 288 211L 309 211L 309 204L 309 197L 295 197L 281 197L 281 183L 281 169L 288 169L 295 169L 295 148L 295 127L 288 127L 281 127L 281 113L 281 99L 295 99L 309 99L 309 106L 309 113L 316 113L 323 113L 323 120L 323 127L 316 127L 309 127L 309 155L 309 183L 316 183L 323 183L 323 190L 323 197L 330 197L 337 197L 337 190L 337 183L 344 183L 351 183L 351 204L 351 225L 344 225L 337 225L 337 218L 337 211L 323 211L 309 211L 309 225L 309 239L 302 239L 295 239L 295 232L 295 225L 288 225L 281 225L 281 232L 281 239L 274 239L 267 239L 267 246L 267 253L 274 253L 281 253L 281 260L 281 267L 274 267L 267 267L 267 274L 267 281L 253 281L 239 281L 239 267L 239 253L 232 253L 225 253L 225 267L 225 281L 218 281L 211 281L 211 288L 211 295L 204 295L 197 295L 197 281L 197 267L 190 267L 183 267L 183 288L 183 309L 190 309L 197 309L 197 323L 197 337L 204 337L 211 337L 211 344L 211 351L 218 351L 225 351L 225 372L 225 393L 246 393L 267 393L 267 386L 267 379L 260 379L 253 379L 253 365L 253 351L 260 351L 267 351L 267 358L 267 365L 274 365L 281 365L 281 379L 281 393L 288 393L 295 393L 295 400L 295 407L 288 407L 281 407L 281 400L 281 393L 274 393L 267 393L 267 407L 267 421L 253 421L 239 421L 239 428L 239 435L 232 435L 225 435L 225 442L 225 449L 232 449L 239 449L 239 456L 239 463L 232 463L 225 463L 225 477L 225 491L 239 491L 253 491L 253 470L 253 449L 267 449L 281 449L 281 456L 281 463L 288 463L 295 463L 295 484L 295 505L 302 505L 309 505L 309 498L 309 491L 316 491L 323 491L 323 477L 323 463L 316 463L 309 463L 309 414L 309 365L 302 365L 295 365L 295 358L 295 351L 288 351L 281 351L 281 337L 281 323L 288 323L 295 323L 295 316L 295 309L 302 309L 309 309L 309 316L 309 323L 316 323L 323 323L 323 330L 323 337L 330 337L 337 337L 337 323L 337 309L 330 309L 323 309L 323 302L 323 295L 302 295L 281 295L 281 302L 281 309L 274 309L 267 309L 267 323L 267 337L 253 337L 239 337L 239 323L 239 309L 232 309L 225 309L 225 316L 225 323L 218 323L 211 323L 211 316L 211 309L 218 309L 225 309L 225 302L 225 295L 232 295L 239 295L 239 302L 239 309L 246 309L 253 309L 253 302L 253 295L 267 295L 281 295L 281 288L 281 281L 309 281L 337 281L 337 288L 337 295L 344 295L 351 295L 351 316L 351 337L 372 337L 393 337L 393 330L 393 323L 400 323L 407 323L 407 302L 407 281L 393 281L 379 281L 379 274L 379 267L 372 267L 365 267L 365 260L 365 253L 372 253L 379 253L 379 246L 379 239L 372 239L 365 239L 365 211L 365 183L 372 183L 379 183L 379 204L 379 225L 393 225L 407 225L 407 232L 407 239L 414 239L 421 239L 421 211L 421 183L 428 183L 435 183L 435 162L 435 141L 442 141L 449 141L 449 134L 449 127L 442 127L 435 127L 435 120L 435 113L 442 113L 449 113L 449 106L 449 99L 442 99L 435 99L 435 92L 435 85L 442 85L 449 85L 449 92L 449 99L 456 99L 463 99L 463 92L 463 85L 470 85L 477 85L 477 78L 477 71L 484 71L 491 71L 491 78zM 393 92L 393 99L 400 99L 407 99L 407 92L 407 85L 414 85L 421 85L 421 99L 421 113L 400 113L 379 113L 379 99L 379 85L 386 85L 393 85L 393 92zM 561 92L 561 99L 554 99L 547 99L 547 92L 547 85L 554 85L 561 85L 561 92zM 421 148L 421 169L 400 169L 379 169L 379 148L 379 127L 400 127L 421 127L 421 148zM 155 190L 155 197L 148 197L 141 197L 141 190L 141 183L 148 183L 155 183L 155 190zM 197 190L 197 197L 204 197L 211 197L 211 204L 211 211L 204 211L 197 211L 197 204L 197 197L 190 197L 183 197L 183 204L 183 211L 176 211L 169 211L 169 204L 169 197L 176 197L 183 197L 183 190L 183 183L 190 183L 197 183L 197 190zM 407 190L 407 197L 400 197L 393 197L 393 190L 393 183L 400 183L 407 183L 407 190zM 323 260L 323 267L 316 267L 309 267L 309 260L 309 253L 316 253L 323 253L 323 260zM 351 260L 351 267L 344 267L 337 267L 337 260L 337 253L 344 253L 351 253L 351 260zM 393 302L 393 309L 386 309L 379 309L 379 316L 379 323L 372 323L 365 323L 365 309L 365 295L 379 295L 393 295L 393 302zM 169 400L 169 421L 148 421L 127 421L 127 400L 127 379L 148 379L 169 379L 169 400zM 421 400L 421 421L 400 421L 379 421L 379 400L 379 379L 400 379L 421 379L 421 400zM 673 400L 673 421L 652 421L 631 421L 631 400L 631 379L 652 379L 673 379L 673 400zM 701 386L 701 393L 694 393L 687 393L 687 386L 687 379L 694 379L 701 379L 701 386zM 449 421L 449 435L 456 435L 463 435L 463 442L 463 449L 449 449L 435 449L 435 428L 435 407L 442 407L 449 407L 449 421zM 295 428L 295 435L 288 435L 281 435L 281 428L 281 421L 288 421L 295 421L 295 428zM 421 442L 421 449L 407 449L 393 449L 393 442L 393 435L 407 435L 421 435L 421 442zM 449 470L 449 477L 442 477L 435 477L 435 470L 435 463L 442 463L 449 463L 449 470zM 673 470L 673 477L 666 477L 659 477L 659 470L 659 463L 666 463L 673 463L 673 470zM 715 526L 715 533L 722 533L 729 533L 729 554L 729 575L 722 575L 715 575L 715 582L 715 589L 722 589L 729 589L 729 610L 729 631L 722 631L 715 631L 715 624L 715 617L 708 617L 701 617L 701 596L 701 575L 694 575L 687 575L 687 568L 687 561L 680 561L 673 561L 673 568L 673 575L 666 575L 659 575L 659 568L 659 561L 666 561L 673 561L 673 547L 673 533L 687 533L 701 533L 701 526L 701 519L 708 519L 715 519L 715 526zM 449 540L 449 547L 456 547L 463 547L 463 554L 463 561L 456 561L 449 561L 449 554L 449 547L 442 547L 435 547L 435 540L 435 533L 442 533L 449 533L 449 540zM 687 603L 687 617L 680 617L 673 617L 673 603L 673 589L 680 589L 687 589L 687 603zM 421 652L 421 673L 400 673L 379 673L 379 652L 379 631L 400 631L 421 631L 421 652zM 673 652L 673 673L 652 673L 631 673L 631 652L 631 631L 652 631L 673 631L 673 652zM 715 708L 715 729L 708 729L 701 729L 701 722L 701 715L 694 715L 687 715L 687 708L 687 701L 694 701L 701 701L 701 694L 701 687L 708 687L 715 687L 715 708zM 533 708L 533 715L 526 715L 519 715L 519 708L 519 701L 526 701L 533 701L 533 708z"/>
<path style="stroke:none; fill:#000000" d="M 519 120L 519 127L 526 127L 533 127L 533 120L 533 113L 526 113L 519 113L 519 120z"/>
<path style="stroke:none; fill:#000000" d="M 197 148L 197 155L 204 155L 211 155L 211 148L 211 141L 204 141L 197 141L 197 148z"/>
<path style="stroke:none; fill:#000000" d="M 449 148L 449 155L 456 155L 463 155L 463 148L 463 141L 456 141L 449 141L 449 148z"/>
<path style="stroke:none; fill:#000000" d="M 477 148L 477 155L 484 155L 491 155L 491 148L 491 141L 484 141L 477 141L 477 148z"/>
<path style="stroke:none; fill:#000000" d="M 505 148L 505 155L 512 155L 519 155L 519 148L 519 141L 512 141L 505 141L 505 148z"/>
<path style="stroke:none; fill:#000000" d="M 533 148L 533 155L 540 155L 547 155L 547 148L 547 141L 540 141L 533 141L 533 148z"/>
<path style="stroke:none; fill:#000000" d="M 99 232L 99 239L 106 239L 113 239L 113 246L 113 253L 106 253L 99 253L 99 267L 99 281L 92 281L 85 281L 85 288L 85 295L 92 295L 99 295L 99 302L 99 309L 106 309L 113 309L 113 295L 113 281L 120 281L 127 281L 127 274L 127 267L 141 267L 155 267L 155 274L 155 281L 148 281L 141 281L 141 288L 141 295L 155 295L 169 295L 169 281L 169 267L 176 267L 183 267L 183 260L 183 253L 176 253L 169 253L 169 246L 169 239L 162 239L 155 239L 155 232L 155 225L 148 225L 141 225L 141 232L 141 239L 127 239L 113 239L 113 232L 113 225L 106 225L 99 225L 99 232zM 155 246L 155 253L 148 253L 141 253L 141 246L 141 239L 148 239L 155 239L 155 246zM 127 260L 127 267L 120 267L 113 267L 113 260L 113 253L 120 253L 127 253L 127 260z"/>
<path style="stroke:none; fill:#000000" d="M 253 232L 253 239L 246 239L 239 239L 239 246L 239 253L 246 253L 253 253L 253 260L 253 267L 260 267L 267 267L 267 260L 267 253L 260 253L 253 253L 253 246L 253 239L 260 239L 267 239L 267 232L 267 225L 260 225L 253 225L 253 232z"/>
<path style="stroke:none; fill:#000000" d="M 393 253L 393 267L 400 267L 407 267L 407 274L 407 281L 414 281L 421 281L 421 274L 421 267L 428 267L 435 267L 435 253L 435 239L 428 239L 421 239L 421 253L 421 267L 414 267L 407 267L 407 253L 407 239L 400 239L 393 239L 393 253z"/>
<path style="stroke:none; fill:#000000" d="M 197 260L 197 267L 204 267L 211 267L 211 260L 211 253L 204 253L 197 253L 197 260z"/>
<path style="stroke:none; fill:#000000" d="M 491 330L 491 337L 498 337L 505 337L 505 330L 505 323L 498 323L 491 323L 491 330z"/>
<path style="stroke:none; fill:#000000" d="M 337 344L 337 351L 330 351L 323 351L 323 358L 323 365L 330 365L 337 365L 337 358L 337 351L 344 351L 351 351L 351 358L 351 365L 358 365L 365 365L 365 358L 365 351L 358 351L 351 351L 351 344L 351 337L 344 337L 337 337L 337 344z"/>
<path style="stroke:none; fill:#000000" d="M 323 393L 323 407L 337 407L 351 407L 351 400L 351 393L 344 393L 337 393L 337 386L 337 379L 330 379L 323 379L 323 393z"/>
<path style="stroke:none; fill:#000000" d="M 575 386L 575 393L 568 393L 561 393L 561 400L 561 407L 554 407L 547 407L 547 414L 547 421L 554 421L 561 421L 561 428L 561 435L 568 435L 575 435L 575 442L 575 449L 568 449L 561 449L 561 456L 561 463L 554 463L 547 463L 547 470L 547 477L 554 477L 561 477L 561 484L 561 491L 568 491L 575 491L 575 498L 575 505L 568 505L 561 505L 561 526L 561 547L 568 547L 575 547L 575 554L 575 561L 582 561L 589 561L 589 554L 589 547L 582 547L 575 547L 575 533L 575 519L 582 519L 589 519L 589 505L 589 491L 582 491L 575 491L 575 484L 575 477L 582 477L 589 477L 589 449L 589 421L 596 421L 603 421L 603 414L 603 407L 596 407L 589 407L 589 393L 589 379L 582 379L 575 379L 575 386z"/>
<path style="stroke:none; fill:#000000" d="M 225 414L 225 421L 232 421L 239 421L 239 414L 239 407L 232 407L 225 407L 225 414z"/>
<path style="stroke:none; fill:#000000" d="M 323 428L 323 435L 330 435L 337 435L 337 428L 337 421L 330 421L 323 421L 323 428z"/>
<path style="stroke:none; fill:#000000" d="M 519 442L 519 449L 526 449L 533 449L 533 442L 533 435L 526 435L 519 435L 519 442z"/>
<path style="stroke:none; fill:#000000" d="M 141 456L 141 463L 148 463L 155 463L 155 456L 155 449L 148 449L 141 449L 141 456z"/>
<path style="stroke:none; fill:#000000" d="M 211 456L 211 463L 218 463L 225 463L 225 456L 225 449L 218 449L 211 449L 211 456z"/>
<path style="stroke:none; fill:#000000" d="M 337 456L 337 463L 344 463L 351 463L 351 456L 351 449L 344 449L 337 449L 337 456z"/>
<path style="stroke:none; fill:#000000" d="M 267 477L 267 491L 260 491L 253 491L 253 498L 253 505L 260 505L 267 505L 267 512L 267 519L 281 519L 295 519L 295 512L 295 505L 288 505L 281 505L 281 484L 281 463L 274 463L 267 463L 267 477z"/>
<path style="stroke:none; fill:#000000" d="M 197 505L 197 519L 204 519L 211 519L 211 526L 211 533L 225 533L 239 533L 239 540L 239 547L 253 547L 267 547L 267 540L 267 533L 260 533L 253 533L 253 526L 253 519L 246 519L 239 519L 239 512L 239 505L 232 505L 225 505L 225 512L 225 519L 218 519L 211 519L 211 505L 211 491L 204 491L 197 491L 197 505z"/>
<path style="stroke:none; fill:#000000" d="M 393 568L 393 575L 400 575L 407 575L 407 568L 407 561L 400 561L 393 561L 393 568z"/>
<path style="stroke:none; fill:#000000" d="M 477 596L 477 603L 484 603L 491 603L 491 596L 491 589L 484 589L 477 589L 477 596z"/>
<path style="stroke:none; fill:#000000" d="M 267 624L 267 631L 274 631L 281 631L 281 645L 281 659L 288 659L 295 659L 295 652L 295 645L 302 645L 309 645L 309 638L 309 631L 302 631L 295 631L 295 624L 295 617L 281 617L 267 617L 267 624z"/>
<path style="stroke:none; fill:#000000" d="M 211 652L 211 659L 225 659L 239 659L 239 666L 239 673L 246 673L 253 673L 253 666L 253 659L 246 659L 239 659L 239 652L 239 645L 225 645L 211 645L 211 652z"/>
<path style="stroke:none; fill:#000000" d="M 477 652L 477 659L 484 659L 491 659L 491 652L 491 645L 484 645L 477 645L 477 652z"/>
<path style="stroke:none; fill:#000000" d="M 589 652L 589 659L 596 659L 603 659L 603 652L 603 645L 596 645L 589 645L 589 652z"/>
<path style="stroke:none; fill:#000000" d="M 463 680L 463 687L 470 687L 477 687L 477 680L 477 673L 470 673L 463 673L 463 680z"/>
<path style="stroke:none; fill:#000000" d="M 393 148L 393 155L 400 155L 407 155L 407 148L 407 141L 400 141L 393 141L 393 148z"/>
<path style="stroke:none; fill:#000000" d="M 141 400L 141 407L 148 407L 155 407L 155 400L 155 393L 148 393L 141 393L 141 400z"/>
<path style="stroke:none; fill:#000000" d="M 393 400L 393 407L 400 407L 407 407L 407 400L 407 393L 400 393L 393 393L 393 400z"/>
<path style="stroke:none; fill:#000000" d="M 645 400L 645 407L 652 407L 659 407L 659 400L 659 393L 652 393L 645 393L 645 400z"/>
<path style="stroke:none; fill:#000000" d="M 701 540L 701 547L 708 547L 715 547L 715 540L 715 533L 708 533L 701 533L 701 540z"/>
<path style="stroke:none; fill:#000000" d="M 393 652L 393 659L 400 659L 407 659L 407 652L 407 645L 400 645L 393 645L 393 652z"/>
<path style="stroke:none; fill:#000000" d="M 645 652L 645 659L 652 659L 659 659L 659 652L 659 645L 652 645L 645 645L 645 652z"/>
<path style="stroke:none; fill:#000000" d="M 617 64L 617 71L 603 71L 589 71L 589 78L 589 85L 596 85L 603 85L 603 99L 603 113L 610 113L 617 113L 617 106L 617 99L 624 99L 631 99L 631 78L 631 57L 624 57L 617 57L 617 64z"/>
<path style="stroke:none; fill:#000000" d="M 645 106L 645 155L 694 155L 743 155L 743 106L 743 57L 694 57L 645 57L 645 106zM 729 106L 729 141L 694 141L 659 141L 659 106L 659 71L 694 71L 729 71L 729 106z"/>
<path style="stroke:none; fill:#000000" d="M 673 106L 673 127L 694 127L 715 127L 715 106L 715 85L 694 85L 673 85L 673 106z"/>
<path style="stroke:none; fill:#000000" d="M 169 92L 169 99L 176 99L 183 99L 183 92L 183 85L 176 85L 169 85L 169 92z"/>
<path style="stroke:none; fill:#000000" d="M 253 148L 253 155L 260 155L 267 155L 267 148L 267 141L 260 141L 253 141L 253 148z"/>
<path style="stroke:none; fill:#000000" d="M 673 253L 673 267L 687 267L 701 267L 701 253L 701 239L 687 239L 673 239L 673 253z"/>
<path style="stroke:none; fill:#000000" d="M 631 288L 631 295L 638 295L 645 295L 645 288L 645 281L 638 281L 631 281L 631 288z"/>
<path style="stroke:none; fill:#000000" d="M 57 386L 57 393L 64 393L 71 393L 71 386L 71 379L 64 379L 57 379L 57 386z"/>
<path style="stroke:none; fill:#000000" d="M 141 624L 141 631L 148 631L 155 631L 155 624L 155 617L 148 617L 141 617L 141 624z"/>
<path style="stroke:none; fill:#000000" d="M 57 694L 57 743L 106 743L 155 743L 155 694L 155 645L 106 645L 57 645L 57 694zM 141 694L 141 729L 106 729L 71 729L 71 694L 71 659L 106 659L 141 659L 141 694z"/>
<path style="stroke:none; fill:#000000" d="M 85 694L 85 715L 106 715L 127 715L 127 694L 127 673L 106 673L 85 673L 85 694z"/>
</g>
</g>
</svg>