<?xml version="1.0" encoding="UTF-8" standalone="yes"?>
<!-- Created with sK1/UniConvertor (http://sk1project.org/) -->
<svg xmlns="http://www.w3.org/2000/svg" xmlns:xlink="http://www.w3.org/1999/xlink"
  width="800pt" height="800pt" viewBox="0 0 800 800"
  fill-rule="evenodd">
<g>
<g>
<path style="stroke:none; fill:#000000" d="M 64 102.5L 64 141L 102.5 141L 141 141L 141 102.5L 141 64L 102.5 64L 64 64L 64 102.5zM 130 102.5L 130 130L 102.5 130L 75 130L 75 102.5L 75 75L 102.5 75L 130 75L 130 102.5z"/>
<path style="stroke:none; fill:#000000" d="M 86 102.5L 86 119L 102.5 119L 119 119L 119 102.5L 119 86L 102.5 86L 86 86L 86 102.5z"/>
<path style="stroke:none; fill:#000000" d="M 163 75L 163 86L 157.5 86L 152 86L 152 119L 152 152L 157.5 152L 163 152L 163 157.5L 163 163L 152 163L 141 163L 141 157.5L 141 152L 113.5 152L 86 152L 86 157.5L 86 163L 80.5 163L 75 163L 75 157.5L 75 152L 69.5 152L 64 152L 64 163L 64 174L 69.5 174L 75 174L 75 190.5L 75 207L 69.5 207L 64 207L 64 245.5L 64 284L 80.5 284L 97 284L 97 278.5L 97 273L 102.5 273L 108 273L 108 284L 108 295L 102.5 295L 97 295L 97 300.5L 97 306L 91.5 306L 86 306L 86 311.5L 86 317L 80.5 317L 75 317L 75 306L 75 295L 69.5 295L 64 295L 64 306L 64 317L 69.5 317L 75 317L 75 322.5L 75 328L 80.5 328L 86 328L 86 322.5L 86 317L 91.5 317L 97 317L 97 328L 97 339L 91.5 339L 86 339L 86 350L 86 361L 91.5 361L 97 361L 97 366.5L 97 372L 80.5 372L 64 372L 64 377.5L 64 383L 69.5 383L 75 383L 75 394L 75 405L 69.5 405L 64 405L 64 432.5L 64 460L 69.5 460L 75 460L 75 449L 75 438L 80.5 438L 86 438L 86 432.5L 86 427L 91.5 427L 97 427L 97 432.5L 97 438L 108 438L 119 438L 119 432.5L 119 427L 130 427L 141 427L 141 432.5L 141 438L 135.5 438L 130 438L 130 443.5L 130 449L 135.5 449L 141 449L 141 454.5L 141 460L 124.5 460L 108 460L 108 465.5L 108 471L 102.5 471L 97 471L 97 460L 97 449L 91.5 449L 86 449L 86 460L 86 471L 91.5 471L 97 471L 97 476.5L 97 482L 108 482L 119 482L 119 487.5L 119 493L 130 493L 141 493L 141 498.5L 141 504L 135.5 504L 130 504L 130 509.5L 130 515L 124.5 515L 119 515L 119 509.5L 119 504L 113.5 504L 108 504L 108 509.5L 108 515L 102.5 515L 97 515L 97 504L 97 493L 91.5 493L 86 493L 86 504L 86 515L 80.5 515L 75 515L 75 504L 75 493L 69.5 493L 64 493L 64 509.5L 64 526L 80.5 526L 97 526L 97 548L 97 570L 91.5 570L 86 570L 86 564.5L 86 559L 80.5 559L 75 559L 75 564.5L 75 570L 80.5 570L 86 570L 86 575.5L 86 581L 80.5 581L 75 581L 75 586.5L 75 592L 69.5 592L 64 592L 64 597.5L 64 603L 80.5 603L 97 603L 97 608.5L 97 614L 91.5 614L 86 614L 86 619.5L 86 625L 75 625L 64 625L 64 636L 64 647L 86 647L 108 647L 108 641.5L 108 636L 113.5 636L 119 636L 119 630.5L 119 625L 130 625L 141 625L 141 619.5L 141 614L 152 614L 163 614L 163 608.5L 163 603L 168.5 603L 174 603L 174 608.5L 174 614L 179.5 614L 185 614L 185 608.5L 185 603L 179.5 603L 174 603L 174 597.5L 174 592L 168.5 592L 163 592L 163 586.5L 163 581L 174 581L 185 581L 185 586.5L 185 592L 190.5 592L 196 592L 196 586.5L 196 581L 190.5 581L 185 581L 185 575.5L 185 570L 190.5 570L 196 570L 196 564.5L 196 559L 207 559L 218 559L 218 564.5L 218 570L 229 570L 240 570L 240 575.5L 240 581L 234.5 581L 229 581L 229 586.5L 229 592L 218 592L 207 592L 207 597.5L 207 603L 201.5 603L 196 603L 196 619.5L 196 636L 201.5 636L 207 636L 207 652.5L 207 669L 212.5 669L 218 669L 218 674.5L 218 680L 212.5 680L 207 680L 207 685.5L 207 691L 201.5 691L 196 691L 196 702L 196 713L 190.5 713L 185 713L 185 702L 185 691L 179.5 691L 174 691L 174 685.5L 174 680L 185 680L 196 680L 196 674.5L 196 669L 190.5 669L 185 669L 185 663.5L 185 658L 190.5 658L 196 658L 196 652.5L 196 647L 185 647L 174 647L 174 663.5L 174 680L 168.5 680L 163 680L 163 674.5L 163 669L 157.5 669L 152 669L 152 691L 152 713L 157.5 713L 163 713L 163 707.5L 163 702L 168.5 702L 174 702L 174 713L 174 724L 163 724L 152 724L 152 729.5L 152 735L 196 735L 240 735L 240 729.5L 240 724L 251 724L 262 724L 262 729.5L 262 735L 267.5 735L 273 735L 273 724L 273 713L 278.5 713L 284 713L 284 718.5L 284 724L 289.5 724L 295 724L 295 718.5L 295 713L 289.5 713L 284 713L 284 707.5L 284 702L 289.5 702L 295 702L 295 691L 295 680L 289.5 680L 284 680L 284 685.5L 284 691L 278.5 691L 273 691L 273 702L 273 713L 267.5 713L 262 713L 262 702L 262 691L 251 691L 240 691L 240 696.5L 240 702L 234.5 702L 229 702L 229 696.5L 229 691L 223.5 691L 218 691L 218 685.5L 218 680L 223.5 680L 229 680L 229 674.5L 229 669L 223.5 669L 218 669L 218 647L 218 625L 223.5 625L 229 625L 229 630.5L 229 636L 240 636L 251 636L 251 641.5L 251 647L 245.5 647L 240 647L 240 652.5L 240 658L 251 658L 262 658L 262 652.5L 262 647L 267.5 647L 273 647L 273 636L 273 625L 267.5 625L 262 625L 262 630.5L 262 636L 256.5 636L 251 636L 251 603L 251 570L 256.5 570L 262 570L 262 553.5L 262 537L 267.5 537L 273 537L 273 542.5L 273 548L 284 548L 295 548L 295 537L 295 526L 300.5 526L 306 526L 306 520.5L 306 515L 300.5 515L 295 515L 295 509.5L 295 504L 300.5 504L 306 504L 306 498.5L 306 493L 311.5 493L 317 493L 317 504L 317 515L 322.5 515L 328 515L 328 520.5L 328 526L 322.5 526L 317 526L 317 531.5L 317 537L 311.5 537L 306 537L 306 548L 306 559L 300.5 559L 295 559L 295 575.5L 295 592L 300.5 592L 306 592L 306 597.5L 306 603L 300.5 603L 295 603L 295 608.5L 295 614L 289.5 614L 284 614L 284 608.5L 284 603L 278.5 603L 273 603L 273 608.5L 273 614L 278.5 614L 284 614L 284 619.5L 284 625L 289.5 625L 295 625L 295 630.5L 295 636L 289.5 636L 284 636L 284 641.5L 284 647L 300.5 647L 317 647L 317 641.5L 317 636L 311.5 636L 306 636L 306 630.5L 306 625L 311.5 625L 317 625L 317 619.5L 317 614L 311.5 614L 306 614L 306 608.5L 306 603L 311.5 603L 317 603L 317 597.5L 317 592L 322.5 592L 328 592L 328 603L 328 614L 333.5 614L 339 614L 339 619.5L 339 625L 333.5 625L 328 625L 328 641.5L 328 658L 333.5 658L 339 658L 339 663.5L 339 669L 333.5 669L 328 669L 328 674.5L 328 680L 333.5 680L 339 680L 339 696.5L 339 713L 328 713L 317 713L 317 718.5L 317 724L 322.5 724L 328 724L 328 729.5L 328 735L 350 735L 372 735L 372 729.5L 372 724L 399.5 724L 427 724L 427 718.5L 427 713L 432.5 713L 438 713L 438 707.5L 438 702L 432.5 702L 427 702L 427 696.5L 427 691L 443.5 691L 460 691L 460 685.5L 460 680L 471 680L 482 680L 482 685.5L 482 691L 476.5 691L 471 691L 471 696.5L 471 702L 460 702L 449 702L 449 707.5L 449 713L 454.5 713L 460 713L 460 718.5L 460 724L 449 724L 438 724L 438 729.5L 438 735L 471 735L 504 735L 504 729.5L 504 724L 493 724L 482 724L 482 718.5L 482 713L 487.5 713L 493 713L 493 707.5L 493 702L 504 702L 515 702L 515 713L 515 724L 526 724L 537 724L 537 729.5L 537 735L 559 735L 581 735L 581 729.5L 581 724L 575.5 724L 570 724L 570 718.5L 570 713L 564.5 713L 559 713L 559 718.5L 559 724L 548 724L 537 724L 537 718.5L 537 713L 542.5 713L 548 713L 548 707.5L 548 702L 553.5 702L 559 702L 559 696.5L 559 691L 575.5 691L 592 691L 592 680L 592 669L 597.5 669L 603 669L 603 674.5L 603 680L 608.5 680L 614 680L 614 685.5L 614 691L 619.5 691L 625 691L 625 707.5L 625 724L 619.5 724L 614 724L 614 729.5L 614 735L 625 735L 636 735L 636 729.5L 636 724L 641.5 724L 647 724L 647 718.5L 647 713L 641.5 713L 636 713L 636 702L 636 691L 647 691L 658 691L 658 696.5L 658 702L 663.5 702L 669 702L 669 707.5L 669 713L 663.5 713L 658 713L 658 724L 658 735L 669 735L 680 735L 680 729.5L 680 724L 691 724L 702 724L 702 729.5L 702 735L 718.5 735L 735 735L 735 729.5L 735 724L 729.5 724L 724 724L 724 718.5L 724 713L 729.5 713L 735 713L 735 696.5L 735 680L 729.5 680L 724 680L 724 674.5L 724 669L 729.5 669L 735 669L 735 663.5L 735 658L 713 658L 691 658L 691 652.5L 691 647L 696.5 647L 702 647L 702 641.5L 702 636L 707.5 636L 713 636L 713 641.5L 713 647L 724 647L 735 647L 735 641.5L 735 636L 729.5 636L 724 636L 724 630.5L 724 625L 729.5 625L 735 625L 735 608.5L 735 592L 718.5 592L 702 592L 702 597.5L 702 603L 707.5 603L 713 603L 713 608.5L 713 614L 696.5 614L 680 614L 680 597.5L 680 581L 702 581L 724 581L 724 570L 724 559L 729.5 559L 735 559L 735 553.5L 735 548L 724 548L 713 548L 713 559L 713 570L 685.5 570L 658 570L 658 581L 658 592L 652.5 592L 647 592L 647 597.5L 647 603L 641.5 603L 636 603L 636 592L 636 581L 641.5 581L 647 581L 647 575.5L 647 570L 619.5 570L 592 570L 592 564.5L 592 559L 597.5 559L 603 559L 603 553.5L 603 548L 608.5 548L 614 548L 614 553.5L 614 559L 625 559L 636 559L 636 542.5L 636 526L 647 526L 658 526L 658 520.5L 658 515L 663.5 515L 669 515L 669 520.5L 669 526L 674.5 526L 680 526L 680 531.5L 680 537L 663.5 537L 647 537L 647 542.5L 647 548L 652.5 548L 658 548L 658 553.5L 658 559L 674.5 559L 691 559L 691 553.5L 691 548L 685.5 548L 680 548L 680 542.5L 680 537L 702 537L 724 537L 724 526L 724 515L 718.5 515L 713 515L 713 509.5L 713 504L 702 504L 691 504L 691 509.5L 691 515L 702 515L 713 515L 713 520.5L 713 526L 696.5 526L 680 526L 680 509.5L 680 493L 669 493L 658 493L 658 487.5L 658 482L 652.5 482L 647 482L 647 476.5L 647 471L 641.5 471L 636 471L 636 465.5L 636 460L 647 460L 658 460L 658 465.5L 658 471L 663.5 471L 669 471L 669 465.5L 669 460L 663.5 460L 658 460L 658 449L 658 438L 652.5 438L 647 438L 647 432.5L 647 427L 669 427L 691 427L 691 399.5L 691 372L 680 372L 669 372L 669 366.5L 669 361L 674.5 361L 680 361L 680 355.5L 680 350L 685.5 350L 691 350L 691 355.5L 691 361L 707.5 361L 724 361L 724 355.5L 724 350L 729.5 350L 735 350L 735 339L 735 328L 729.5 328L 724 328L 724 322.5L 724 317L 729.5 317L 735 317L 735 311.5L 735 306L 729.5 306L 724 306L 724 311.5L 724 317L 718.5 317L 713 317L 713 311.5L 713 306L 707.5 306L 702 306L 702 311.5L 702 317L 707.5 317L 713 317L 713 333.5L 713 350L 702 350L 691 350L 691 344.5L 691 339L 696.5 339L 702 339L 702 333.5L 702 328L 696.5 328L 691 328L 691 322.5L 691 317L 685.5 317L 680 317L 680 311.5L 680 306L 685.5 306L 691 306L 691 300.5L 691 295L 696.5 295L 702 295L 702 289.5L 702 284L 707.5 284L 713 284L 713 267.5L 713 251L 718.5 251L 724 251L 724 273L 724 295L 729.5 295L 735 295L 735 267.5L 735 240L 718.5 240L 702 240L 702 234.5L 702 229L 707.5 229L 713 229L 713 223.5L 713 218L 718.5 218L 724 218L 724 223.5L 724 229L 729.5 229L 735 229L 735 223.5L 735 218L 729.5 218L 724 218L 724 212.5L 724 207L 729.5 207L 735 207L 735 201.5L 735 196L 724 196L 713 196L 713 207L 713 218L 702 218L 691 218L 691 212.5L 691 207L 696.5 207L 702 207L 702 196L 702 185L 713 185L 724 185L 724 179.5L 724 174L 729.5 174L 735 174L 735 168.5L 735 163L 729.5 163L 724 163L 724 168.5L 724 174L 713 174L 702 174L 702 179.5L 702 185L 696.5 185L 691 185L 691 196L 691 207L 685.5 207L 680 207L 680 212.5L 680 218L 685.5 218L 691 218L 691 223.5L 691 229L 685.5 229L 680 229L 680 234.5L 680 240L 674.5 240L 669 240L 669 229L 669 218L 658 218L 647 218L 647 212.5L 647 207L 652.5 207L 658 207L 658 201.5L 658 196L 663.5 196L 669 196L 669 190.5L 669 185L 674.5 185L 680 185L 680 179.5L 680 174L 685.5 174L 691 174L 691 168.5L 691 163L 702 163L 713 163L 713 157.5L 713 152L 685.5 152L 658 152L 658 157.5L 658 163L 652.5 163L 647 163L 647 157.5L 647 152L 641.5 152L 636 152L 636 163L 636 174L 630.5 174L 625 174L 625 163L 625 152L 619.5 152L 614 152L 614 146.5L 614 141L 619.5 141L 625 141L 625 130L 625 119L 630.5 119L 636 119L 636 113.5L 636 108L 641.5 108L 647 108L 647 86L 647 64L 636 64L 625 64L 625 75L 625 86L 619.5 86L 614 86L 614 91.5L 614 97L 603 97L 592 97L 592 91.5L 592 86L 597.5 86L 603 86L 603 80.5L 603 75L 608.5 75L 614 75L 614 69.5L 614 64L 608.5 64L 603 64L 603 69.5L 603 75L 597.5 75L 592 75L 592 69.5L 592 64L 586.5 64L 581 64L 581 80.5L 581 97L 559 97L 537 97L 537 91.5L 537 86L 542.5 86L 548 86L 548 80.5L 548 75L 553.5 75L 559 75L 559 69.5L 559 64L 553.5 64L 548 64L 548 69.5L 548 75L 542.5 75L 537 75L 537 69.5L 537 64L 520.5 64L 504 64L 504 69.5L 504 75L 509.5 75L 515 75L 515 80.5L 515 86L 504 86L 493 86L 493 91.5L 493 97L 487.5 97L 482 97L 482 91.5L 482 86L 476.5 86L 471 86L 471 80.5L 471 75L 476.5 75L 482 75L 482 69.5L 482 64L 476.5 64L 471 64L 471 69.5L 471 75L 460 75L 449 75L 449 80.5L 449 86L 454.5 86L 460 86L 460 91.5L 460 97L 449 97L 438 97L 438 102.5L 438 108L 449 108L 460 108L 460 102.5L 460 97L 471 97L 482 97L 482 102.5L 482 108L 476.5 108L 471 108L 471 113.5L 471 119L 460 119L 449 119L 449 124.5L 449 130L 443.5 130L 438 130L 438 124.5L 438 119L 432.5 119L 427 119L 427 97L 427 75L 416 75L 405 75L 405 69.5L 405 64L 394 64L 383 64L 383 75L 383 86L 388.5 86L 394 86L 394 80.5L 394 75L 399.5 75L 405 75L 405 80.5L 405 86L 410.5 86L 416 86L 416 91.5L 416 97L 394 97L 372 97L 372 91.5L 372 86L 361 86L 350 86L 350 91.5L 350 97L 355.5 97L 361 97L 361 113.5L 361 130L 355.5 130L 350 130L 350 124.5L 350 119L 344.5 119L 339 119L 339 124.5L 339 130L 333.5 130L 328 130L 328 135.5L 328 141L 322.5 141L 317 141L 317 135.5L 317 130L 311.5 130L 306 130L 306 124.5L 306 119L 300.5 119L 295 119L 295 124.5L 295 130L 289.5 130L 284 130L 284 124.5L 284 119L 278.5 119L 273 119L 273 113.5L 273 108L 295 108L 317 108L 317 113.5L 317 119L 322.5 119L 328 119L 328 113.5L 328 108L 333.5 108L 339 108L 339 97L 339 86L 333.5 86L 328 86L 328 75L 328 64L 306 64L 284 64L 284 69.5L 284 75L 278.5 75L 273 75L 273 69.5L 273 64L 267.5 64L 262 64L 262 69.5L 262 75L 256.5 75L 251 75L 251 69.5L 251 64L 240 64L 229 64L 229 69.5L 229 75L 240 75L 251 75L 251 86L 251 97L 256.5 97L 262 97L 262 102.5L 262 108L 256.5 108L 251 108L 251 119L 251 130L 245.5 130L 240 130L 240 141L 240 152L 234.5 152L 229 152L 229 157.5L 229 163L 223.5 163L 218 163L 218 152L 218 141L 223.5 141L 229 141L 229 135.5L 229 130L 223.5 130L 218 130L 218 124.5L 218 119L 223.5 119L 229 119L 229 113.5L 229 108L 234.5 108L 240 108L 240 102.5L 240 97L 229 97L 218 97L 218 91.5L 218 86L 212.5 86L 207 86L 207 80.5L 207 75L 212.5 75L 218 75L 218 69.5L 218 64L 212.5 64L 207 64L 207 69.5L 207 75L 201.5 75L 196 75L 196 80.5L 196 86L 190.5 86L 185 86L 185 91.5L 185 97L 174 97L 163 97L 163 91.5L 163 86L 168.5 86L 174 86L 174 80.5L 174 75L 179.5 75L 185 75L 185 69.5L 185 64L 174 64L 163 64L 163 75zM 317 86L 317 97L 311.5 97L 306 97L 306 91.5L 306 86L 300.5 86L 295 86L 295 91.5L 295 97L 284 97L 273 97L 273 91.5L 273 86L 284 86L 295 86L 295 80.5L 295 75L 306 75L 317 75L 317 86zM 218 102.5L 218 108L 207 108L 196 108L 196 113.5L 196 119L 201.5 119L 207 119L 207 124.5L 207 130L 212.5 130L 218 130L 218 135.5L 218 141L 212.5 141L 207 141L 207 135.5L 207 130L 201.5 130L 196 130L 196 135.5L 196 141L 190.5 141L 185 141L 185 146.5L 185 152L 196 152L 207 152L 207 163L 207 174L 212.5 174L 218 174L 218 179.5L 218 185L 223.5 185L 229 185L 229 179.5L 229 174L 234.5 174L 240 174L 240 179.5L 240 185L 234.5 185L 229 185L 229 190.5L 229 196L 234.5 196L 240 196L 240 201.5L 240 207L 234.5 207L 229 207L 229 212.5L 229 218L 240 218L 251 218L 251 196L 251 174L 256.5 174L 262 174L 262 179.5L 262 185L 267.5 185L 273 185L 273 190.5L 273 196L 278.5 196L 284 196L 284 190.5L 284 185L 289.5 185L 295 185L 295 179.5L 295 174L 284 174L 273 174L 273 163L 273 152L 278.5 152L 284 152L 284 157.5L 284 163L 289.5 163L 295 163L 295 168.5L 295 174L 322.5 174L 350 174L 350 168.5L 350 163L 344.5 163L 339 163L 339 146.5L 339 130L 344.5 130L 350 130L 350 141L 350 152L 355.5 152L 361 152L 361 141L 361 130L 366.5 130L 372 130L 372 146.5L 372 163L 377.5 163L 383 163L 383 168.5L 383 174L 405 174L 427 174L 427 168.5L 427 163L 432.5 163L 438 163L 438 168.5L 438 174L 432.5 174L 427 174L 427 179.5L 427 185L 421.5 185L 416 185L 416 190.5L 416 196L 421.5 196L 427 196L 427 212.5L 427 229L 421.5 229L 416 229L 416 234.5L 416 240L 421.5 240L 427 240L 427 245.5L 427 251L 421.5 251L 416 251L 416 256.5L 416 262L 421.5 262L 427 262L 427 267.5L 427 273L 421.5 273L 416 273L 416 278.5L 416 284L 421.5 284L 427 284L 427 289.5L 427 295L 432.5 295L 438 295L 438 300.5L 438 306L 443.5 306L 449 306L 449 311.5L 449 317L 454.5 317L 460 317L 460 322.5L 460 328L 471 328L 482 328L 482 322.5L 482 317L 493 317L 504 317L 504 311.5L 504 306L 515 306L 526 306L 526 300.5L 526 295L 515 295L 504 295L 504 284L 504 273L 498.5 273L 493 273L 493 278.5L 493 284L 487.5 284L 482 284L 482 289.5L 482 295L 476.5 295L 471 295L 471 300.5L 471 306L 465.5 306L 460 306L 460 300.5L 460 295L 454.5 295L 449 295L 449 289.5L 449 284L 443.5 284L 438 284L 438 267.5L 438 251L 449 251L 460 251L 460 245.5L 460 240L 449 240L 438 240L 438 223.5L 438 207L 449 207L 460 207L 460 196L 460 185L 465.5 185L 471 185L 471 179.5L 471 174L 460 174L 449 174L 449 168.5L 449 163L 454.5 163L 460 163L 460 157.5L 460 152L 443.5 152L 427 152L 427 141L 427 130L 432.5 130L 438 130L 438 135.5L 438 141L 443.5 141L 449 141L 449 135.5L 449 130L 454.5 130L 460 130L 460 141L 460 152L 471 152L 482 152L 482 146.5L 482 141L 476.5 141L 471 141L 471 135.5L 471 130L 476.5 130L 482 130L 482 135.5L 482 141L 487.5 141L 493 141L 493 130L 493 119L 509.5 119L 526 119L 526 113.5L 526 108L 520.5 108L 515 108L 515 102.5L 515 97L 526 97L 537 97L 537 102.5L 537 108L 542.5 108L 548 108L 548 113.5L 548 119L 559 119L 570 119L 570 113.5L 570 108L 592 108L 614 108L 614 124.5L 614 141L 608.5 141L 603 141L 603 130L 603 119L 586.5 119L 570 119L 570 130L 570 141L 575.5 141L 581 141L 581 135.5L 581 130L 586.5 130L 592 130L 592 135.5L 592 141L 586.5 141L 581 141L 581 146.5L 581 152L 564.5 152L 548 152L 548 163L 548 174L 553.5 174L 559 174L 559 179.5L 559 185L 564.5 185L 570 185L 570 179.5L 570 174L 575.5 174L 581 174L 581 185L 581 196L 586.5 196L 592 196L 592 190.5L 592 185L 597.5 185L 603 185L 603 190.5L 603 196L 608.5 196L 614 196L 614 185L 614 174L 603 174L 592 174L 592 168.5L 592 163L 597.5 163L 603 163L 603 157.5L 603 152L 608.5 152L 614 152L 614 163L 614 174L 619.5 174L 625 174L 625 179.5L 625 185L 636 185L 647 185L 647 179.5L 647 174L 652.5 174L 658 174L 658 179.5L 658 185L 652.5 185L 647 185L 647 196L 647 207L 636 207L 625 207L 625 201.5L 625 196L 619.5 196L 614 196L 614 201.5L 614 207L 608.5 207L 603 207L 603 212.5L 603 218L 614 218L 625 218L 625 223.5L 625 229L 636 229L 647 229L 647 240L 647 251L 652.5 251L 658 251L 658 245.5L 658 240L 663.5 240L 669 240L 669 245.5L 669 251L 674.5 251L 680 251L 680 256.5L 680 262L 685.5 262L 691 262L 691 251L 691 240L 696.5 240L 702 240L 702 251L 702 262L 696.5 262L 691 262L 691 267.5L 691 273L 696.5 273L 702 273L 702 278.5L 702 284L 696.5 284L 691 284L 691 278.5L 691 273L 685.5 273L 680 273L 680 267.5L 680 262L 674.5 262L 669 262L 669 267.5L 669 273L 658 273L 647 273L 647 289.5L 647 306L 652.5 306L 658 306L 658 311.5L 658 317L 652.5 317L 647 317L 647 322.5L 647 328L 658 328L 669 328L 669 322.5L 669 317L 674.5 317L 680 317L 680 322.5L 680 328L 685.5 328L 691 328L 691 333.5L 691 339L 680 339L 669 339L 669 344.5L 669 350L 658 350L 647 350L 647 339L 647 328L 630.5 328L 614 328L 614 333.5L 614 339L 625 339L 636 339L 636 344.5L 636 350L 630.5 350L 625 350L 625 355.5L 625 361L 636 361L 647 361L 647 366.5L 647 372L 641.5 372L 636 372L 636 388.5L 636 405L 630.5 405L 625 405L 625 410.5L 625 416L 630.5 416L 636 416L 636 427L 636 438L 641.5 438L 647 438L 647 443.5L 647 449L 641.5 449L 636 449L 636 443.5L 636 438L 630.5 438L 625 438L 625 449L 625 460L 619.5 460L 614 460L 614 454.5L 614 449L 608.5 449L 603 449L 603 443.5L 603 438L 597.5 438L 592 438L 592 432.5L 592 427L 597.5 427L 603 427L 603 421.5L 603 416L 608.5 416L 614 416L 614 410.5L 614 405L 619.5 405L 625 405L 625 399.5L 625 394L 603 394L 581 394L 581 399.5L 581 405L 586.5 405L 592 405L 592 410.5L 592 416L 581 416L 570 416L 570 410.5L 570 405L 564.5 405L 559 405L 559 416L 559 427L 553.5 427L 548 427L 548 432.5L 548 438L 553.5 438L 559 438L 559 443.5L 559 449L 564.5 449L 570 449L 570 438L 570 427L 575.5 427L 581 427L 581 443.5L 581 460L 570 460L 559 460L 559 465.5L 559 471L 564.5 471L 570 471L 570 476.5L 570 482L 575.5 482L 581 482L 581 476.5L 581 471L 608.5 471L 636 471L 636 476.5L 636 482L 641.5 482L 647 482L 647 487.5L 647 493L 652.5 493L 658 493L 658 498.5L 658 504L 652.5 504L 647 504L 647 509.5L 647 515L 641.5 515L 636 515L 636 520.5L 636 526L 630.5 526L 625 526L 625 520.5L 625 515L 630.5 515L 636 515L 636 509.5L 636 504L 625 504L 614 504L 614 515L 614 526L 597.5 526L 581 526L 581 531.5L 581 537L 592 537L 603 537L 603 542.5L 603 548L 597.5 548L 592 548L 592 553.5L 592 559L 586.5 559L 581 559L 581 553.5L 581 548L 570 548L 559 548L 559 542.5L 559 537L 553.5 537L 548 537L 548 542.5L 548 548L 542.5 548L 537 548L 537 553.5L 537 559L 542.5 559L 548 559L 548 564.5L 548 570L 553.5 570L 559 570L 559 564.5L 559 559L 564.5 559L 570 559L 570 570L 570 581L 586.5 581L 603 581L 603 586.5L 603 592L 581 592L 559 592L 559 597.5L 559 603L 564.5 603L 570 603L 570 608.5L 570 614L 564.5 614L 559 614L 559 619.5L 559 625L 570 625L 581 625L 581 630.5L 581 636L 586.5 636L 592 636L 592 641.5L 592 647L 597.5 647L 603 647L 603 630.5L 603 614L 592 614L 581 614L 581 608.5L 581 603L 608.5 603L 636 603L 636 608.5L 636 614L 647 614L 658 614L 658 608.5L 658 603L 663.5 603L 669 603L 669 608.5L 669 614L 674.5 614L 680 614L 680 619.5L 680 625L 691 625L 702 625L 702 630.5L 702 636L 691 636L 680 636L 680 630.5L 680 625L 674.5 625L 669 625L 669 630.5L 669 636L 663.5 636L 658 636L 658 630.5L 658 625L 652.5 625L 647 625L 647 630.5L 647 636L 641.5 636L 636 636L 636 625L 636 614L 630.5 614L 625 614L 625 625L 625 636L 619.5 636L 614 636L 614 641.5L 614 647L 619.5 647L 625 647L 625 652.5L 625 658L 630.5 658L 636 658L 636 663.5L 636 669L 630.5 669L 625 669L 625 674.5L 625 680L 619.5 680L 614 680L 614 674.5L 614 669L 608.5 669L 603 669L 603 663.5L 603 658L 592 658L 581 658L 581 647L 581 636L 570 636L 559 636L 559 641.5L 559 647L 564.5 647L 570 647L 570 658L 570 669L 575.5 669L 581 669L 581 674.5L 581 680L 570 680L 559 680L 559 674.5L 559 669L 553.5 669L 548 669L 548 674.5L 548 680L 542.5 680L 537 680L 537 685.5L 537 691L 542.5 691L 548 691L 548 696.5L 548 702L 542.5 702L 537 702L 537 696.5L 537 691L 531.5 691L 526 691L 526 696.5L 526 702L 520.5 702L 515 702L 515 691L 515 680L 526 680L 537 680L 537 674.5L 537 669L 542.5 669L 548 669L 548 663.5L 548 658L 542.5 658L 537 658L 537 652.5L 537 647L 526 647L 515 647L 515 641.5L 515 636L 498.5 636L 482 636L 482 641.5L 482 647L 476.5 647L 471 647L 471 652.5L 471 658L 460 658L 449 658L 449 652.5L 449 647L 460 647L 471 647L 471 641.5L 471 636L 476.5 636L 482 636L 482 630.5L 482 625L 476.5 625L 471 625L 471 619.5L 471 614L 460 614L 449 614L 449 625L 449 636L 438 636L 427 636L 427 630.5L 427 625L 416 625L 405 625L 405 630.5L 405 636L 394 636L 383 636L 383 630.5L 383 625L 377.5 625L 372 625L 372 630.5L 372 636L 366.5 636L 361 636L 361 641.5L 361 647L 366.5 647L 372 647L 372 652.5L 372 658L 366.5 658L 361 658L 361 663.5L 361 669L 355.5 669L 350 669L 350 674.5L 350 680L 355.5 680L 361 680L 361 691L 361 702L 372 702L 383 702L 383 707.5L 383 713L 377.5 713L 372 713L 372 718.5L 372 724L 366.5 724L 361 724L 361 713L 361 702L 355.5 702L 350 702L 350 691L 350 680L 344.5 680L 339 680L 339 674.5L 339 669L 344.5 669L 350 669L 350 663.5L 350 658L 344.5 658L 339 658L 339 652.5L 339 647L 344.5 647L 350 647L 350 641.5L 350 636L 344.5 636L 339 636L 339 630.5L 339 625L 344.5 625L 350 625L 350 619.5L 350 614L 344.5 614L 339 614L 339 608.5L 339 603L 344.5 603L 350 603L 350 597.5L 350 592L 344.5 592L 339 592L 339 586.5L 339 581L 328 581L 317 581L 317 586.5L 317 592L 311.5 592L 306 592L 306 575.5L 306 559L 311.5 559L 317 559L 317 548L 317 537L 322.5 537L 328 537L 328 542.5L 328 548L 333.5 548L 339 548L 339 542.5L 339 537L 344.5 537L 350 537L 350 526L 350 515L 344.5 515L 339 515L 339 509.5L 339 504L 344.5 504L 350 504L 350 498.5L 350 493L 333.5 493L 317 493L 317 487.5L 317 482L 311.5 482L 306 482L 306 476.5L 306 471L 311.5 471L 317 471L 317 465.5L 317 460L 322.5 460L 328 460L 328 465.5L 328 471L 322.5 471L 317 471L 317 476.5L 317 482L 328 482L 339 482L 339 465.5L 339 449L 322.5 449L 306 449L 306 454.5L 306 460L 300.5 460L 295 460L 295 454.5L 295 449L 289.5 449L 284 449L 284 454.5L 284 460L 267.5 460L 251 460L 251 449L 251 438L 267.5 438L 284 438L 284 427L 284 416L 278.5 416L 273 416L 273 421.5L 273 427L 267.5 427L 262 427L 262 416L 262 405L 267.5 405L 273 405L 273 399.5L 273 394L 278.5 394L 284 394L 284 405L 284 416L 300.5 416L 317 416L 317 421.5L 317 427L 322.5 427L 328 427L 328 421.5L 328 416L 333.5 416L 339 416L 339 410.5L 339 405L 322.5 405L 306 405L 306 399.5L 306 394L 300.5 394L 295 394L 295 388.5L 295 383L 306 383L 317 383L 317 377.5L 317 372L 306 372L 295 372L 295 366.5L 295 361L 289.5 361L 284 361L 284 366.5L 284 372L 278.5 372L 273 372L 273 377.5L 273 383L 267.5 383L 262 383L 262 388.5L 262 394L 256.5 394L 251 394L 251 388.5L 251 383L 245.5 383L 240 383L 240 394L 240 405L 229 405L 218 405L 218 416L 218 427L 223.5 427L 229 427L 229 432.5L 229 438L 234.5 438L 240 438L 240 454.5L 240 471L 245.5 471L 251 471L 251 476.5L 251 482L 256.5 482L 262 482L 262 476.5L 262 471L 267.5 471L 273 471L 273 476.5L 273 482L 284 482L 295 482L 295 493L 295 504L 289.5 504L 284 504L 284 498.5L 284 493L 278.5 493L 273 493L 273 487.5L 273 482L 267.5 482L 262 482L 262 493L 262 504L 267.5 504L 273 504L 273 509.5L 273 515L 278.5 515L 284 515L 284 526L 284 537L 278.5 537L 273 537L 273 526L 273 515L 267.5 515L 262 515L 262 526L 262 537L 256.5 537L 251 537L 251 553.5L 251 570L 245.5 570L 240 570L 240 553.5L 240 537L 245.5 537L 251 537L 251 526L 251 515L 245.5 515L 240 515L 240 520.5L 240 526L 212.5 526L 185 526L 185 531.5L 185 537L 196 537L 207 537L 207 542.5L 207 548L 196 548L 185 548L 185 559L 185 570L 179.5 570L 174 570L 174 564.5L 174 559L 168.5 559L 163 559L 163 570L 163 581L 157.5 581L 152 581L 152 586.5L 152 592L 157.5 592L 163 592L 163 597.5L 163 603L 152 603L 141 603L 141 608.5L 141 614L 135.5 614L 130 614L 130 608.5L 130 603L 135.5 603L 141 603L 141 597.5L 141 592L 135.5 592L 130 592L 130 586.5L 130 581L 124.5 581L 119 581L 119 586.5L 119 592L 108 592L 97 592L 97 586.5L 97 581L 102.5 581L 108 581L 108 570L 108 559L 113.5 559L 119 559L 119 553.5L 119 548L 124.5 548L 130 548L 130 542.5L 130 537L 124.5 537L 119 537L 119 531.5L 119 526L 124.5 526L 130 526L 130 520.5L 130 515L 135.5 515L 141 515L 141 509.5L 141 504L 146.5 504L 152 504L 152 509.5L 152 515L 163 515L 174 515L 174 509.5L 174 504L 179.5 504L 185 504L 185 498.5L 185 493L 190.5 493L 196 493L 196 498.5L 196 504L 201.5 504L 207 504L 207 498.5L 207 493L 212.5 493L 218 493L 218 476.5L 218 460L 207 460L 196 460L 196 454.5L 196 449L 190.5 449L 185 449L 185 460L 185 471L 190.5 471L 196 471L 196 476.5L 196 482L 185 482L 174 482L 174 487.5L 174 493L 157.5 493L 141 493L 141 487.5L 141 482L 135.5 482L 130 482L 130 476.5L 130 471L 135.5 471L 141 471L 141 465.5L 141 460L 146.5 460L 152 460L 152 454.5L 152 449L 146.5 449L 141 449L 141 443.5L 141 438L 146.5 438L 152 438L 152 432.5L 152 427L 157.5 427L 163 427L 163 421.5L 163 416L 174 416L 185 416L 185 410.5L 185 405L 174 405L 163 405L 163 399.5L 163 394L 168.5 394L 174 394L 174 383L 174 372L 168.5 372L 163 372L 163 361L 163 350L 157.5 350L 152 350L 152 361L 152 372L 141 372L 130 372L 130 366.5L 130 361L 119 361L 108 361L 108 355.5L 108 350L 102.5 350L 97 350L 97 344.5L 97 339L 102.5 339L 108 339L 108 333.5L 108 328L 113.5 328L 119 328L 119 322.5L 119 317L 130 317L 141 317L 141 311.5L 141 306L 130 306L 119 306L 119 295L 119 284L 124.5 284L 130 284L 130 278.5L 130 273L 119 273L 108 273L 108 251L 108 229L 102.5 229L 97 229L 97 251L 97 273L 91.5 273L 86 273L 86 262L 86 251L 80.5 251L 75 251L 75 245.5L 75 240L 80.5 240L 86 240L 86 234.5L 86 229L 80.5 229L 75 229L 75 223.5L 75 218L 80.5 218L 86 218L 86 207L 86 196L 91.5 196L 97 196L 97 190.5L 97 185L 91.5 185L 86 185L 86 179.5L 86 174L 97 174L 108 174L 108 168.5L 108 163L 124.5 163L 141 163L 141 168.5L 141 174L 135.5 174L 130 174L 130 179.5L 130 185L 135.5 185L 141 185L 141 190.5L 141 196L 146.5 196L 152 196L 152 190.5L 152 185L 157.5 185L 163 185L 163 190.5L 163 196L 157.5 196L 152 196L 152 201.5L 152 207L 146.5 207L 141 207L 141 212.5L 141 218L 146.5 218L 152 218L 152 229L 152 240L 141 240L 130 240L 130 245.5L 130 251L 135.5 251L 141 251L 141 256.5L 141 262L 135.5 262L 130 262L 130 267.5L 130 273L 141 273L 152 273L 152 262L 152 251L 163 251L 174 251L 174 256.5L 174 262L 185 262L 196 262L 196 256.5L 196 251L 190.5 251L 185 251L 185 245.5L 185 240L 196 240L 207 240L 207 229L 207 218L 212.5 218L 218 218L 218 212.5L 218 207L 223.5 207L 229 207L 229 201.5L 229 196L 223.5 196L 218 196L 218 190.5L 218 185L 212.5 185L 207 185L 207 190.5L 207 196L 196 196L 185 196L 185 201.5L 185 207L 179.5 207L 174 207L 174 201.5L 174 196L 179.5 196L 185 196L 185 179.5L 185 163L 179.5 163L 174 163L 174 168.5L 174 174L 168.5 174L 163 174L 163 168.5L 163 163L 168.5 163L 174 163L 174 152L 174 141L 168.5 141L 163 141L 163 135.5L 163 130L 168.5 130L 174 130L 174 124.5L 174 119L 168.5 119L 163 119L 163 113.5L 163 108L 174 108L 185 108L 185 102.5L 185 97L 201.5 97L 218 97L 218 102.5zM 504 102.5L 504 108L 498.5 108L 493 108L 493 102.5L 493 97L 498.5 97L 504 97L 504 102.5zM 636 102.5L 636 108L 630.5 108L 625 108L 625 102.5L 625 97L 630.5 97L 636 97L 636 102.5zM 416 135.5L 416 152L 399.5 152L 383 152L 383 135.5L 383 119L 399.5 119L 416 119L 416 135.5zM 262 146.5L 262 163L 251 163L 240 163L 240 157.5L 240 152L 245.5 152L 251 152L 251 141L 251 130L 256.5 130L 262 130L 262 146.5zM 284 135.5L 284 141L 278.5 141L 273 141L 273 135.5L 273 130L 278.5 130L 284 130L 284 135.5zM 306 141L 306 152L 317 152L 328 152L 328 157.5L 328 163L 317 163L 306 163L 306 157.5L 306 152L 300.5 152L 295 152L 295 141L 295 130L 300.5 130L 306 130L 306 141zM 449 190.5L 449 196L 443.5 196L 438 196L 438 190.5L 438 185L 443.5 185L 449 185L 449 190.5zM 669 289.5L 669 295L 674.5 295L 680 295L 680 300.5L 680 306L 674.5 306L 669 306L 669 300.5L 669 295L 663.5 295L 658 295L 658 289.5L 658 284L 663.5 284L 669 284L 669 289.5zM 108 377.5L 108 383L 102.5 383L 97 383L 97 377.5L 97 372L 102.5 372L 108 372L 108 377.5zM 152 399.5L 152 416L 135.5 416L 119 416L 119 399.5L 119 383L 135.5 383L 152 383L 152 399.5zM 680 399.5L 680 416L 663.5 416L 647 416L 647 399.5L 647 383L 663.5 383L 680 383L 680 399.5zM 97 399.5L 97 405L 102.5 405L 108 405L 108 410.5L 108 416L 102.5 416L 97 416L 97 410.5L 97 405L 91.5 405L 86 405L 86 399.5L 86 394L 91.5 394L 97 394L 97 399.5zM 229 548L 229 559L 223.5 559L 218 559L 218 548L 218 537L 223.5 537L 229 537L 229 548zM 625 542.5L 625 548L 619.5 548L 614 548L 614 542.5L 614 537L 619.5 537L 625 537L 625 542.5zM 625 586.5L 625 592L 619.5 592L 614 592L 614 586.5L 614 581L 619.5 581L 625 581L 625 586.5zM 240 597.5L 240 603L 234.5 603L 229 603L 229 608.5L 229 614L 234.5 614L 240 614L 240 619.5L 240 625L 234.5 625L 229 625L 229 619.5L 229 614L 223.5 614L 218 614L 218 619.5L 218 625L 212.5 625L 207 625L 207 619.5L 207 614L 212.5 614L 218 614L 218 608.5L 218 603L 223.5 603L 229 603L 229 597.5L 229 592L 234.5 592L 240 592L 240 597.5zM 108 630.5L 108 636L 102.5 636L 97 636L 97 630.5L 97 625L 102.5 625L 108 625L 108 630.5zM 416 663.5L 416 680L 399.5 680L 383 680L 383 663.5L 383 647L 399.5 647L 416 647L 416 663.5zM 438 658L 438 669L 443.5 669L 449 669L 449 674.5L 449 680L 438 680L 427 680L 427 663.5L 427 647L 432.5 647L 438 647L 438 658zM 504 652.5L 504 658L 509.5 658L 515 658L 515 663.5L 515 669L 509.5 669L 504 669L 504 680L 504 691L 498.5 691L 493 691L 493 696.5L 493 702L 487.5 702L 482 702L 482 707.5L 482 713L 476.5 713L 471 713L 471 707.5L 471 702L 476.5 702L 482 702L 482 696.5L 482 691L 487.5 691L 493 691L 493 685.5L 493 680L 487.5 680L 482 680L 482 674.5L 482 669L 487.5 669L 493 669L 493 658L 493 647L 498.5 647L 504 647L 504 652.5zM 680 663.5L 680 680L 663.5 680L 647 680L 647 663.5L 647 647L 663.5 647L 680 647L 680 663.5zM 702 674.5L 702 680L 707.5 680L 713 680L 713 691L 713 702L 718.5 702L 724 702L 724 707.5L 724 713L 718.5 713L 713 713L 713 718.5L 713 724L 707.5 724L 702 724L 702 718.5L 702 713L 691 713L 680 713L 680 718.5L 680 724L 674.5 724L 669 724L 669 718.5L 669 713L 674.5 713L 680 713L 680 707.5L 680 702L 674.5 702L 669 702L 669 696.5L 669 691L 680 691L 691 691L 691 680L 691 669L 696.5 669L 702 669L 702 674.5zM 416 696.5L 416 702L 410.5 702L 405 702L 405 696.5L 405 691L 410.5 691L 416 691L 416 696.5zM 229 713L 229 724L 218 724L 207 724L 207 713L 207 702L 218 702L 229 702L 229 713zM 350 718.5L 350 724L 344.5 724L 339 724L 339 718.5L 339 713L 344.5 713L 350 713L 350 718.5z"/>
<path style="stroke:none; fill:#000000" d="M 174 135.5L 174 141L 179.5 141L 185 141L 185 135.5L 185 130L 179.5 130L 174 130L 174 135.5z"/>
<path style="stroke:none; fill:#000000" d="M 504 135.5L 504 141L 509.5 141L 515 141L 515 146.5L 515 152L 531.5 152L 548 152L 548 146.5L 548 141L 553.5 141L 559 141L 559 135.5L 559 130L 553.5 130L 548 130L 548 135.5L 548 141L 542.5 141L 537 141L 537 135.5L 537 130L 531.5 130L 526 130L 526 135.5L 526 141L 520.5 141L 515 141L 515 135.5L 515 130L 509.5 130L 504 130L 504 135.5z"/>
<path style="stroke:none; fill:#000000" d="M 482 157.5L 482 163L 476.5 163L 471 163L 471 168.5L 471 174L 476.5 174L 482 174L 482 179.5L 482 185L 476.5 185L 471 185L 471 201.5L 471 218L 460 218L 449 218L 449 223.5L 449 229L 460 229L 471 229L 471 234.5L 471 240L 476.5 240L 482 240L 482 245.5L 482 251L 476.5 251L 471 251L 471 256.5L 471 262L 460 262L 449 262L 449 267.5L 449 273L 460 273L 471 273L 471 278.5L 471 284L 465.5 284L 460 284L 460 289.5L 460 295L 465.5 295L 471 295L 471 289.5L 471 284L 476.5 284L 482 284L 482 278.5L 482 273L 487.5 273L 493 273L 493 267.5L 493 262L 504 262L 515 262L 515 245.5L 515 229L 504 229L 493 229L 493 234.5L 493 240L 487.5 240L 482 240L 482 234.5L 482 229L 476.5 229L 471 229L 471 223.5L 471 218L 476.5 218L 482 218L 482 212.5L 482 207L 487.5 207L 493 207L 493 212.5L 493 218L 509.5 218L 526 218L 526 212.5L 526 207L 520.5 207L 515 207L 515 201.5L 515 196L 526 196L 537 196L 537 190.5L 537 185L 542.5 185L 548 185L 548 179.5L 548 174L 542.5 174L 537 174L 537 168.5L 537 163L 531.5 163L 526 163L 526 168.5L 526 174L 520.5 174L 515 174L 515 168.5L 515 163L 509.5 163L 504 163L 504 157.5L 504 152L 493 152L 482 152L 482 157.5zM 493 168.5L 493 174L 504 174L 515 174L 515 179.5L 515 185L 509.5 185L 504 185L 504 196L 504 207L 498.5 207L 493 207L 493 201.5L 493 196L 487.5 196L 482 196L 482 190.5L 482 185L 487.5 185L 493 185L 493 179.5L 493 174L 487.5 174L 482 174L 482 168.5L 482 163L 487.5 163L 493 163L 493 168.5zM 493 256.5L 493 262L 487.5 262L 482 262L 482 256.5L 482 251L 487.5 251L 493 251L 493 256.5z"/>
<path style="stroke:none; fill:#000000" d="M 328 190.5L 328 196L 322.5 196L 317 196L 317 212.5L 317 229L 311.5 229L 306 229L 306 240L 306 251L 289.5 251L 273 251L 273 245.5L 273 240L 284 240L 295 240L 295 234.5L 295 229L 289.5 229L 284 229L 284 218L 284 207L 289.5 207L 295 207L 295 212.5L 295 218L 300.5 218L 306 218L 306 212.5L 306 207L 300.5 207L 295 207L 295 201.5L 295 196L 289.5 196L 284 196L 284 201.5L 284 207L 278.5 207L 273 207L 273 201.5L 273 196L 267.5 196L 262 196L 262 212.5L 262 229L 256.5 229L 251 229L 251 234.5L 251 240L 256.5 240L 262 240L 262 251L 262 262L 273 262L 284 262L 284 267.5L 284 273L 289.5 273L 295 273L 295 267.5L 295 262L 300.5 262L 306 262L 306 273L 306 284L 300.5 284L 295 284L 295 289.5L 295 295L 300.5 295L 306 295L 306 311.5L 306 328L 317 328L 328 328L 328 333.5L 328 339L 311.5 339L 295 339L 295 333.5L 295 328L 289.5 328L 284 328L 284 339L 284 350L 295 350L 306 350L 306 355.5L 306 361L 311.5 361L 317 361L 317 366.5L 317 372L 322.5 372L 328 372L 328 366.5L 328 361L 322.5 361L 317 361L 317 355.5L 317 350L 322.5 350L 328 350L 328 344.5L 328 339L 333.5 339L 339 339L 339 350L 339 361L 344.5 361L 350 361L 350 366.5L 350 372L 344.5 372L 339 372L 339 377.5L 339 383L 328 383L 317 383L 317 388.5L 317 394L 328 394L 339 394L 339 399.5L 339 405L 344.5 405L 350 405L 350 410.5L 350 416L 344.5 416L 339 416L 339 421.5L 339 427L 333.5 427L 328 427L 328 432.5L 328 438L 344.5 438L 361 438L 361 443.5L 361 449L 355.5 449L 350 449L 350 454.5L 350 460L 355.5 460L 361 460L 361 476.5L 361 493L 366.5 493L 372 493L 372 498.5L 372 504L 366.5 504L 361 504L 361 515L 361 526L 372 526L 383 526L 383 531.5L 383 537L 377.5 537L 372 537L 372 542.5L 372 548L 366.5 548L 361 548L 361 542.5L 361 537L 355.5 537L 350 537L 350 542.5L 350 548L 344.5 548L 339 548L 339 564.5L 339 581L 344.5 581L 350 581L 350 586.5L 350 592L 355.5 592L 361 592L 361 608.5L 361 625L 355.5 625L 350 625L 350 630.5L 350 636L 355.5 636L 361 636L 361 630.5L 361 625L 366.5 625L 372 625L 372 619.5L 372 614L 377.5 614L 383 614L 383 619.5L 383 625L 394 625L 405 625L 405 619.5L 405 614L 410.5 614L 416 614L 416 608.5L 416 603L 421.5 603L 427 603L 427 614L 427 625L 432.5 625L 438 625L 438 614L 438 603L 449 603L 460 603L 460 597.5L 460 592L 449 592L 438 592L 438 553.5L 438 515L 443.5 515L 449 515L 449 548L 449 581L 460 581L 471 581L 471 586.5L 471 592L 476.5 592L 482 592L 482 597.5L 482 603L 476.5 603L 471 603L 471 608.5L 471 614L 476.5 614L 482 614L 482 619.5L 482 625L 487.5 625L 493 625L 493 619.5L 493 614L 487.5 614L 482 614L 482 608.5L 482 603L 493 603L 504 603L 504 608.5L 504 614L 515 614L 526 614L 526 619.5L 526 625L 520.5 625L 515 625L 515 630.5L 515 636L 526 636L 537 636L 537 641.5L 537 647L 542.5 647L 548 647L 548 652.5L 548 658L 553.5 658L 559 658L 559 652.5L 559 647L 553.5 647L 548 647L 548 641.5L 548 636L 553.5 636L 559 636L 559 630.5L 559 625L 553.5 625L 548 625L 548 619.5L 548 614L 553.5 614L 559 614L 559 608.5L 559 603L 553.5 603L 548 603L 548 597.5L 548 592L 553.5 592L 559 592L 559 586.5L 559 581L 553.5 581L 548 581L 548 575.5L 548 570L 542.5 570L 537 570L 537 564.5L 537 559L 531.5 559L 526 559L 526 564.5L 526 570L 520.5 570L 515 570L 515 559L 515 548L 526 548L 537 548L 537 531.5L 537 515L 531.5 515L 526 515L 526 509.5L 526 504L 531.5 504L 537 504L 537 487.5L 537 471L 531.5 471L 526 471L 526 465.5L 526 460L 531.5 460L 537 460L 537 443.5L 537 427L 531.5 427L 526 427L 526 421.5L 526 416L 531.5 416L 537 416L 537 410.5L 537 405L 526 405L 515 405L 515 416L 515 427L 509.5 427L 504 427L 504 416L 504 405L 498.5 405L 493 405L 493 410.5L 493 416L 487.5 416L 482 416L 482 410.5L 482 405L 476.5 405L 471 405L 471 399.5L 471 394L 460 394L 449 394L 449 383L 449 372L 454.5 372L 460 372L 460 377.5L 460 383L 465.5 383L 471 383L 471 372L 471 361L 476.5 361L 482 361L 482 355.5L 482 350L 498.5 350L 515 350L 515 339L 515 328L 498.5 328L 482 328L 482 339L 482 350L 465.5 350L 449 350L 449 344.5L 449 339L 454.5 339L 460 339L 460 333.5L 460 328L 449 328L 438 328L 438 317L 438 306L 432.5 306L 427 306L 427 311.5L 427 317L 421.5 317L 416 317L 416 322.5L 416 328L 410.5 328L 405 328L 405 317L 405 306L 410.5 306L 416 306L 416 295L 416 284L 410.5 284L 405 284L 405 289.5L 405 295L 399.5 295L 394 295L 394 284L 394 273L 383 273L 372 273L 372 262L 372 251L 377.5 251L 383 251L 383 256.5L 383 262L 394 262L 405 262L 405 267.5L 405 273L 410.5 273L 416 273L 416 267.5L 416 262L 410.5 262L 405 262L 405 256.5L 405 251L 410.5 251L 416 251L 416 245.5L 416 240L 410.5 240L 405 240L 405 245.5L 405 251L 394 251L 383 251L 383 245.5L 383 240L 388.5 240L 394 240L 394 234.5L 394 229L 388.5 229L 383 229L 383 234.5L 383 240L 377.5 240L 372 240L 372 229L 372 218L 366.5 218L 361 218L 361 223.5L 361 229L 355.5 229L 350 229L 350 223.5L 350 218L 339 218L 328 218L 328 207L 328 196L 333.5 196L 339 196L 339 190.5L 339 185L 333.5 185L 328 185L 328 190.5zM 339 234.5L 339 240L 344.5 240L 350 240L 350 245.5L 350 251L 355.5 251L 361 251L 361 256.5L 361 262L 355.5 262L 350 262L 350 256.5L 350 251L 344.5 251L 339 251L 339 256.5L 339 262L 322.5 262L 306 262L 306 256.5L 306 251L 317 251L 328 251L 328 240L 328 229L 333.5 229L 339 229L 339 234.5zM 328 278.5L 328 284L 333.5 284L 339 284L 339 278.5L 339 273L 344.5 273L 350 273L 350 278.5L 350 284L 344.5 284L 339 284L 339 289.5L 339 295L 350 295L 361 295L 361 306L 361 317L 366.5 317L 372 317L 372 306L 372 295L 383 295L 394 295L 394 300.5L 394 306L 388.5 306L 383 306L 383 311.5L 383 317L 388.5 317L 394 317L 394 322.5L 394 328L 388.5 328L 383 328L 383 322.5L 383 317L 377.5 317L 372 317L 372 322.5L 372 328L 366.5 328L 361 328L 361 333.5L 361 339L 366.5 339L 372 339L 372 344.5L 372 350L 394 350L 416 350L 416 339L 416 328L 421.5 328L 427 328L 427 333.5L 427 339L 432.5 339L 438 339L 438 344.5L 438 350L 432.5 350L 427 350L 427 355.5L 427 361L 438 361L 449 361L 449 366.5L 449 372L 443.5 372L 438 372L 438 377.5L 438 383L 432.5 383L 427 383L 427 377.5L 427 372L 421.5 372L 416 372L 416 366.5L 416 361L 410.5 361L 405 361L 405 366.5L 405 372L 388.5 372L 372 372L 372 366.5L 372 361L 361 361L 350 361L 350 355.5L 350 350L 355.5 350L 361 350L 361 344.5L 361 339L 350 339L 339 339L 339 333.5L 339 328L 333.5 328L 328 328L 328 317L 328 306L 322.5 306L 317 306L 317 300.5L 317 295L 322.5 295L 328 295L 328 289.5L 328 284L 322.5 284L 317 284L 317 278.5L 317 273L 322.5 273L 328 273L 328 278.5zM 372 278.5L 372 284L 366.5 284L 361 284L 361 278.5L 361 273L 366.5 273L 372 273L 372 278.5zM 350 388.5L 350 394L 355.5 394L 361 394L 361 388.5L 361 383L 366.5 383L 372 383L 372 394L 372 405L 361 405L 350 405L 350 399.5L 350 394L 344.5 394L 339 394L 339 388.5L 339 383L 344.5 383L 350 383L 350 388.5zM 416 399.5L 416 416L 399.5 416L 383 416L 383 399.5L 383 383L 399.5 383L 416 383L 416 399.5zM 449 399.5L 449 405L 454.5 405L 460 405L 460 410.5L 460 416L 471 416L 482 416L 482 427L 482 438L 487.5 438L 493 438L 493 449L 493 460L 498.5 460L 504 460L 504 465.5L 504 471L 498.5 471L 493 471L 493 476.5L 493 482L 509.5 482L 526 482L 526 487.5L 526 493L 520.5 493L 515 493L 515 498.5L 515 504L 509.5 504L 504 504L 504 509.5L 504 515L 498.5 515L 493 515L 493 520.5L 493 526L 509.5 526L 526 526L 526 531.5L 526 537L 515 537L 504 537L 504 542.5L 504 548L 493 548L 482 548L 482 553.5L 482 559L 476.5 559L 471 559L 471 564.5L 471 570L 476.5 570L 482 570L 482 575.5L 482 581L 487.5 581L 493 581L 493 575.5L 493 570L 504 570L 515 570L 515 575.5L 515 581L 504 581L 493 581L 493 586.5L 493 592L 487.5 592L 482 592L 482 586.5L 482 581L 476.5 581L 471 581L 471 575.5L 471 570L 465.5 570L 460 570L 460 564.5L 460 559L 465.5 559L 471 559L 471 553.5L 471 548L 476.5 548L 482 548L 482 542.5L 482 537L 476.5 537L 471 537L 471 531.5L 471 526L 465.5 526L 460 526L 460 520.5L 460 515L 476.5 515L 493 515L 493 509.5L 493 504L 487.5 504L 482 504L 482 498.5L 482 493L 476.5 493L 471 493L 471 487.5L 471 482L 460 482L 449 482L 449 493L 449 504L 443.5 504L 438 504L 438 498.5L 438 493L 432.5 493L 427 493L 427 498.5L 427 504L 421.5 504L 416 504L 416 498.5L 416 493L 410.5 493L 405 493L 405 498.5L 405 504L 399.5 504L 394 504L 394 498.5L 394 493L 399.5 493L 405 493L 405 487.5L 405 482L 410.5 482L 416 482L 416 476.5L 416 471L 394 471L 372 471L 372 465.5L 372 460L 366.5 460L 361 460L 361 454.5L 361 449L 366.5 449L 372 449L 372 443.5L 372 438L 366.5 438L 361 438L 361 427L 361 416L 366.5 416L 372 416L 372 427L 372 438L 377.5 438L 383 438L 383 432.5L 383 427L 388.5 427L 394 427L 394 432.5L 394 438L 388.5 438L 383 438L 383 443.5L 383 449L 394 449L 405 449L 405 454.5L 405 460L 410.5 460L 416 460L 416 449L 416 438L 410.5 438L 405 438L 405 432.5L 405 427L 416 427L 427 427L 427 432.5L 427 438L 432.5 438L 438 438L 438 432.5L 438 427L 449 427L 460 427L 460 421.5L 460 416L 443.5 416L 427 416L 427 405L 427 394L 438 394L 449 394L 449 399.5zM 526 443.5L 526 449L 515 449L 504 449L 504 443.5L 504 438L 515 438L 526 438L 526 443.5zM 394 520.5L 394 526L 388.5 526L 383 526L 383 520.5L 383 515L 388.5 515L 394 515L 394 520.5zM 427 520.5L 427 526L 421.5 526L 416 526L 416 531.5L 416 537L 410.5 537L 405 537L 405 542.5L 405 548L 410.5 548L 416 548L 416 553.5L 416 559L 421.5 559L 427 559L 427 570L 427 581L 421.5 581L 416 581L 416 570L 416 559L 410.5 559L 405 559L 405 575.5L 405 592L 410.5 592L 416 592L 416 597.5L 416 603L 405 603L 394 603L 394 608.5L 394 614L 388.5 614L 383 614L 383 608.5L 383 603L 377.5 603L 372 603L 372 592L 372 581L 383 581L 394 581L 394 575.5L 394 570L 383 570L 372 570L 372 564.5L 372 559L 383 559L 394 559L 394 553.5L 394 548L 388.5 548L 383 548L 383 542.5L 383 537L 394 537L 405 537L 405 531.5L 405 526L 410.5 526L 416 526L 416 520.5L 416 515L 421.5 515L 427 515L 427 520.5zM 361 575.5L 361 581L 355.5 581L 350 581L 350 575.5L 350 570L 355.5 570L 361 570L 361 575.5zM 537 575.5L 537 581L 542.5 581L 548 581L 548 586.5L 548 592L 542.5 592L 537 592L 537 597.5L 537 603L 542.5 603L 548 603L 548 608.5L 548 614L 542.5 614L 537 614L 537 608.5L 537 603L 520.5 603L 504 603L 504 597.5L 504 592L 520.5 592L 537 592L 537 586.5L 537 581L 531.5 581L 526 581L 526 575.5L 526 570L 531.5 570L 537 570L 537 575.5z"/>
<path style="stroke:none; fill:#000000" d="M 339 311.5L 339 317L 344.5 317L 350 317L 350 322.5L 350 328L 355.5 328L 361 328L 361 322.5L 361 317L 355.5 317L 350 317L 350 311.5L 350 306L 344.5 306L 339 306L 339 311.5z"/>
<path style="stroke:none; fill:#000000" d="M 394 399.5L 394 405L 399.5 405L 405 405L 405 399.5L 405 394L 399.5 394L 394 394L 394 399.5z"/>
<path style="stroke:none; fill:#000000" d="M 438 443.5L 438 449L 443.5 449L 449 449L 449 454.5L 449 460L 432.5 460L 416 460L 416 465.5L 416 471L 421.5 471L 427 471L 427 476.5L 427 482L 421.5 482L 416 482L 416 487.5L 416 493L 421.5 493L 427 493L 427 487.5L 427 482L 432.5 482L 438 482L 438 476.5L 438 471L 454.5 471L 471 471L 471 460L 471 449L 476.5 449L 482 449L 482 443.5L 482 438L 460 438L 438 438L 438 443.5z"/>
<path style="stroke:none; fill:#000000" d="M 372 454.5L 372 460L 377.5 460L 383 460L 383 454.5L 383 449L 377.5 449L 372 449L 372 454.5z"/>
<path style="stroke:none; fill:#000000" d="M 482 465.5L 482 471L 487.5 471L 493 471L 493 465.5L 493 460L 487.5 460L 482 460L 482 465.5z"/>
<path style="stroke:none; fill:#000000" d="M 493 498.5L 493 504L 498.5 504L 504 504L 504 498.5L 504 493L 498.5 493L 493 493L 493 498.5z"/>
<path style="stroke:none; fill:#000000" d="M 482 531.5L 482 537L 487.5 537L 493 537L 493 531.5L 493 526L 487.5 526L 482 526L 482 531.5z"/>
<path style="stroke:none; fill:#000000" d="M 383 597.5L 383 603L 388.5 603L 394 603L 394 597.5L 394 592L 388.5 592L 383 592L 383 597.5z"/>
<path style="stroke:none; fill:#000000" d="M 350 190.5L 350 196L 355.5 196L 361 196L 361 201.5L 361 207L 372 207L 383 207L 383 212.5L 383 218L 399.5 218L 416 218L 416 207L 416 196L 405 196L 394 196L 394 190.5L 394 185L 388.5 185L 383 185L 383 190.5L 383 196L 372 196L 361 196L 361 190.5L 361 185L 355.5 185L 350 185L 350 190.5zM 394 201.5L 394 207L 388.5 207L 383 207L 383 201.5L 383 196L 388.5 196L 394 196L 394 201.5z"/>
<path style="stroke:none; fill:#000000" d="M 97 207L 97 218L 113.5 218L 130 218L 130 223.5L 130 229L 124.5 229L 119 229L 119 234.5L 119 240L 124.5 240L 130 240L 130 234.5L 130 229L 135.5 229L 141 229L 141 223.5L 141 218L 135.5 218L 130 218L 130 212.5L 130 207L 135.5 207L 141 207L 141 201.5L 141 196L 130 196L 119 196L 119 201.5L 119 207L 113.5 207L 108 207L 108 201.5L 108 196L 102.5 196L 97 196L 97 207z"/>
<path style="stroke:none; fill:#000000" d="M 548 201.5L 548 207L 559 207L 570 207L 570 212.5L 570 218L 564.5 218L 559 218L 559 223.5L 559 229L 564.5 229L 570 229L 570 223.5L 570 218L 575.5 218L 581 218L 581 223.5L 581 229L 592 229L 603 229L 603 234.5L 603 240L 597.5 240L 592 240L 592 245.5L 592 251L 586.5 251L 581 251L 581 245.5L 581 240L 564.5 240L 548 240L 548 229L 548 218L 542.5 218L 537 218L 537 223.5L 537 229L 531.5 229L 526 229L 526 234.5L 526 240L 537 240L 548 240L 548 251L 548 262L 542.5 262L 537 262L 537 256.5L 537 251L 531.5 251L 526 251L 526 262L 526 273L 520.5 273L 515 273L 515 278.5L 515 284L 526 284L 537 284L 537 289.5L 537 295L 542.5 295L 548 295L 548 300.5L 548 306L 542.5 306L 537 306L 537 311.5L 537 317L 531.5 317L 526 317L 526 322.5L 526 328L 531.5 328L 537 328L 537 333.5L 537 339L 531.5 339L 526 339L 526 350L 526 361L 509.5 361L 493 361L 493 366.5L 493 372L 487.5 372L 482 372L 482 377.5L 482 383L 487.5 383L 493 383L 493 388.5L 493 394L 504 394L 515 394L 515 388.5L 515 383L 520.5 383L 526 383L 526 388.5L 526 394L 531.5 394L 537 394L 537 388.5L 537 383L 531.5 383L 526 383L 526 377.5L 526 372L 531.5 372L 537 372L 537 366.5L 537 361L 542.5 361L 548 361L 548 355.5L 548 350L 564.5 350L 581 350L 581 361L 581 372L 570 372L 559 372L 559 377.5L 559 383L 553.5 383L 548 383L 548 388.5L 548 394L 564.5 394L 581 394L 581 388.5L 581 383L 586.5 383L 592 383L 592 372L 592 361L 597.5 361L 603 361L 603 372L 603 383L 614 383L 625 383L 625 377.5L 625 372L 619.5 372L 614 372L 614 366.5L 614 361L 608.5 361L 603 361L 603 355.5L 603 350L 592 350L 581 350L 581 339L 581 328L 586.5 328L 592 328L 592 333.5L 592 339L 597.5 339L 603 339L 603 322.5L 603 306L 586.5 306L 570 306L 570 300.5L 570 295L 575.5 295L 581 295L 581 289.5L 581 284L 575.5 284L 570 284L 570 289.5L 570 295L 564.5 295L 559 295L 559 289.5L 559 284L 553.5 284L 548 284L 548 273L 548 262L 553.5 262L 559 262L 559 256.5L 559 251L 570 251L 581 251L 581 262L 581 273L 592 273L 603 273L 603 278.5L 603 284L 597.5 284L 592 284L 592 289.5L 592 295L 614 295L 636 295L 636 289.5L 636 284L 625 284L 614 284L 614 278.5L 614 273L 630.5 273L 647 273L 647 267.5L 647 262L 641.5 262L 636 262L 636 256.5L 636 251L 630.5 251L 625 251L 625 245.5L 625 240L 619.5 240L 614 240L 614 234.5L 614 229L 608.5 229L 603 229L 603 223.5L 603 218L 592 218L 581 218L 581 207L 581 196L 564.5 196L 548 196L 548 201.5zM 625 256.5L 625 262L 608.5 262L 592 262L 592 256.5L 592 251L 608.5 251L 625 251L 625 256.5zM 570 311.5L 570 317L 575.5 317L 581 317L 581 322.5L 581 328L 570 328L 559 328L 559 333.5L 559 339L 553.5 339L 548 339L 548 333.5L 548 328L 542.5 328L 537 328L 537 322.5L 537 317L 542.5 317L 548 317L 548 311.5L 548 306L 559 306L 570 306L 570 311.5zM 504 377.5L 504 383L 498.5 383L 493 383L 493 377.5L 493 372L 498.5 372L 504 372L 504 377.5z"/>
<path style="stroke:none; fill:#000000" d="M 592 201.5L 592 207L 597.5 207L 603 207L 603 201.5L 603 196L 597.5 196L 592 196L 592 201.5z"/>
<path style="stroke:none; fill:#000000" d="M 218 240L 218 251L 212.5 251L 207 251L 207 256.5L 207 262L 201.5 262L 196 262L 196 267.5L 196 273L 185 273L 174 273L 174 267.5L 174 262L 168.5 262L 163 262L 163 267.5L 163 273L 168.5 273L 174 273L 174 278.5L 174 284L 168.5 284L 163 284L 163 317L 163 350L 168.5 350L 174 350L 174 361L 174 372L 185 372L 196 372L 196 377.5L 196 383L 190.5 383L 185 383L 185 394L 185 405L 190.5 405L 196 405L 196 410.5L 196 416L 190.5 416L 185 416L 185 421.5L 185 427L 174 427L 163 427L 163 432.5L 163 438L 157.5 438L 152 438L 152 443.5L 152 449L 157.5 449L 163 449L 163 454.5L 163 460L 157.5 460L 152 460L 152 471L 152 482L 163 482L 174 482L 174 465.5L 174 449L 179.5 449L 185 449L 185 438L 185 427L 196 427L 207 427L 207 432.5L 207 438L 201.5 438L 196 438L 196 443.5L 196 449L 207 449L 218 449L 218 454.5L 218 460L 223.5 460L 229 460L 229 449L 229 438L 223.5 438L 218 438L 218 432.5L 218 427L 212.5 427L 207 427L 207 416L 207 405L 201.5 405L 196 405L 196 394L 196 383L 201.5 383L 207 383L 207 388.5L 207 394L 212.5 394L 218 394L 218 383L 218 372L 212.5 372L 207 372L 207 366.5L 207 361L 212.5 361L 218 361L 218 355.5L 218 350L 212.5 350L 207 350L 207 344.5L 207 339L 201.5 339L 196 339L 196 350L 196 361L 190.5 361L 185 361L 185 344.5L 185 328L 196 328L 207 328L 207 322.5L 207 317L 212.5 317L 218 317L 218 322.5L 218 328L 223.5 328L 229 328L 229 333.5L 229 339L 240 339L 251 339L 251 344.5L 251 350L 245.5 350L 240 350L 240 361L 240 372L 245.5 372L 251 372L 251 377.5L 251 383L 256.5 383L 262 383L 262 377.5L 262 372L 256.5 372L 251 372L 251 366.5L 251 361L 256.5 361L 262 361L 262 350L 262 339L 267.5 339L 273 339L 273 333.5L 273 328L 267.5 328L 262 328L 262 322.5L 262 317L 267.5 317L 273 317L 273 311.5L 273 306L 278.5 306L 284 306L 284 311.5L 284 317L 289.5 317L 295 317L 295 311.5L 295 306L 289.5 306L 284 306L 284 300.5L 284 295L 273 295L 262 295L 262 289.5L 262 284L 267.5 284L 273 284L 273 278.5L 273 273L 262 273L 251 273L 251 267.5L 251 262L 245.5 262L 240 262L 240 273L 240 284L 223.5 284L 207 284L 207 289.5L 207 295L 201.5 295L 196 295L 196 284L 196 273L 201.5 273L 207 273L 207 267.5L 207 262L 212.5 262L 218 262L 218 267.5L 218 273L 223.5 273L 229 273L 229 267.5L 229 262L 223.5 262L 218 262L 218 256.5L 218 251L 229 251L 240 251L 240 240L 240 229L 229 229L 218 229L 218 240zM 185 295L 185 306L 179.5 306L 174 306L 174 295L 174 284L 179.5 284L 185 284L 185 295zM 251 289.5L 251 295L 245.5 295L 240 295L 240 306L 240 317L 234.5 317L 229 317L 229 311.5L 229 306L 218 306L 207 306L 207 311.5L 207 317L 201.5 317L 196 317L 196 311.5L 196 306L 201.5 306L 207 306L 207 300.5L 207 295L 223.5 295L 240 295L 240 289.5L 240 284L 245.5 284L 251 284L 251 289.5zM 185 322.5L 185 328L 179.5 328L 174 328L 174 322.5L 174 317L 179.5 317L 185 317L 185 322.5zM 262 333.5L 262 339L 256.5 339L 251 339L 251 333.5L 251 328L 256.5 328L 262 328L 262 333.5zM 174 443.5L 174 449L 168.5 449L 163 449L 163 443.5L 163 438L 168.5 438L 174 438L 174 443.5z"/>
<path style="stroke:none; fill:#000000" d="M 658 256.5L 658 262L 663.5 262L 669 262L 669 256.5L 669 251L 663.5 251L 658 251L 658 256.5z"/>
<path style="stroke:none; fill:#000000" d="M 130 289.5L 130 295L 135.5 295L 141 295L 141 300.5L 141 306L 146.5 306L 152 306L 152 295L 152 284L 141 284L 130 284L 130 289.5z"/>
<path style="stroke:none; fill:#000000" d="M 614 311.5L 614 317L 630.5 317L 647 317L 647 311.5L 647 306L 630.5 306L 614 306L 614 311.5z"/>
<path style="stroke:none; fill:#000000" d="M 141 322.5L 141 328L 130 328L 119 328L 119 333.5L 119 339L 130 339L 141 339L 141 333.5L 141 328L 146.5 328L 152 328L 152 322.5L 152 317L 146.5 317L 141 317L 141 322.5z"/>
<path style="stroke:none; fill:#000000" d="M 130 355.5L 130 361L 135.5 361L 141 361L 141 355.5L 141 350L 135.5 350L 130 350L 130 355.5z"/>
<path style="stroke:none; fill:#000000" d="M 614 421.5L 614 427L 608.5 427L 603 427L 603 432.5L 603 438L 614 438L 625 438L 625 427L 625 416L 619.5 416L 614 416L 614 421.5z"/>
<path style="stroke:none; fill:#000000" d="M 306 432.5L 306 438L 311.5 438L 317 438L 317 432.5L 317 427L 311.5 427L 306 427L 306 432.5z"/>
<path style="stroke:none; fill:#000000" d="M 229 476.5L 229 482L 234.5 482L 240 482L 240 493L 240 504L 234.5 504L 229 504L 229 498.5L 229 493L 223.5 493L 218 493L 218 498.5L 218 504L 223.5 504L 229 504L 229 509.5L 229 515L 234.5 515L 240 515L 240 509.5L 240 504L 245.5 504L 251 504L 251 493L 251 482L 245.5 482L 240 482L 240 476.5L 240 471L 234.5 471L 229 471L 229 476.5z"/>
<path style="stroke:none; fill:#000000" d="M 548 476.5L 548 482L 553.5 482L 559 482L 559 476.5L 559 471L 553.5 471L 548 471L 548 476.5z"/>
<path style="stroke:none; fill:#000000" d="M 581 493L 581 504L 570 504L 559 504L 559 509.5L 559 515L 553.5 515L 548 515L 548 520.5L 548 526L 553.5 526L 559 526L 559 520.5L 559 515L 570 515L 581 515L 581 509.5L 581 504L 586.5 504L 592 504L 592 509.5L 592 515L 597.5 515L 603 515L 603 509.5L 603 504L 608.5 504L 614 504L 614 498.5L 614 493L 608.5 493L 603 493L 603 487.5L 603 482L 592 482L 581 482L 581 493z"/>
<path style="stroke:none; fill:#000000" d="M 625 487.5L 625 493L 630.5 493L 636 493L 636 498.5L 636 504L 641.5 504L 647 504L 647 498.5L 647 493L 641.5 493L 636 493L 636 487.5L 636 482L 630.5 482L 625 482L 625 487.5z"/>
<path style="stroke:none; fill:#000000" d="M 141 520.5L 141 526L 135.5 526L 130 526L 130 531.5L 130 537L 135.5 537L 141 537L 141 542.5L 141 548L 135.5 548L 130 548L 130 553.5L 130 559L 135.5 559L 141 559L 141 553.5L 141 548L 146.5 548L 152 548L 152 531.5L 152 515L 146.5 515L 141 515L 141 520.5z"/>
<path style="stroke:none; fill:#000000" d="M 174 520.5L 174 526L 168.5 526L 163 526L 163 531.5L 163 537L 168.5 537L 174 537L 174 542.5L 174 548L 179.5 548L 185 548L 185 542.5L 185 537L 179.5 537L 174 537L 174 531.5L 174 526L 179.5 526L 185 526L 185 520.5L 185 515L 179.5 515L 174 515L 174 520.5z"/>
<path style="stroke:none; fill:#000000" d="M 317 564.5L 317 570L 322.5 570L 328 570L 328 564.5L 328 559L 322.5 559L 317 559L 317 564.5z"/>
<path style="stroke:none; fill:#000000" d="M 130 575.5L 130 581L 141 581L 152 581L 152 575.5L 152 570L 141 570L 130 570L 130 575.5z"/>
<path style="stroke:none; fill:#000000" d="M 658 619.5L 658 625L 663.5 625L 669 625L 669 619.5L 669 614L 663.5 614L 658 614L 658 619.5z"/>
<path style="stroke:none; fill:#000000" d="M 350 652.5L 350 658L 355.5 658L 361 658L 361 652.5L 361 647L 355.5 647L 350 647L 350 652.5z"/>
<path style="stroke:none; fill:#000000" d="M 394 135.5L 394 141L 399.5 141L 405 141L 405 135.5L 405 130L 399.5 130L 394 130L 394 135.5z"/>
<path style="stroke:none; fill:#000000" d="M 130 399.5L 130 405L 135.5 405L 141 405L 141 399.5L 141 394L 135.5 394L 130 394L 130 399.5z"/>
<path style="stroke:none; fill:#000000" d="M 658 399.5L 658 405L 663.5 405L 669 405L 669 399.5L 669 394L 663.5 394L 658 394L 658 399.5z"/>
<path style="stroke:none; fill:#000000" d="M 394 663.5L 394 669L 399.5 669L 405 669L 405 663.5L 405 658L 399.5 658L 394 658L 394 663.5z"/>
<path style="stroke:none; fill:#000000" d="M 658 663.5L 658 669L 663.5 669L 669 669L 669 663.5L 669 658L 663.5 658L 658 658L 658 663.5z"/>
<path style="stroke:none; fill:#000000" d="M 339 69.5L 339 75L 344.5 75L 350 75L 350 69.5L 350 64L 344.5 64L 339 64L 339 69.5z"/>
<path style="stroke:none; fill:#000000" d="M 361 69.5L 361 75L 366.5 75L 372 75L 372 69.5L 372 64L 366.5 64L 361 64L 361 69.5z"/>
<path style="stroke:none; fill:#000000" d="M 658 102.5L 658 141L 696.5 141L 735 141L 735 102.5L 735 64L 696.5 64L 658 64L 658 102.5zM 724 102.5L 724 130L 696.5 130L 669 130L 669 102.5L 669 75L 696.5 75L 724 75L 724 102.5z"/>
<path style="stroke:none; fill:#000000" d="M 680 102.5L 680 119L 696.5 119L 713 119L 713 102.5L 713 86L 696.5 86L 680 86L 680 102.5z"/>
<path style="stroke:none; fill:#000000" d="M 636 135.5L 636 141L 641.5 141L 647 141L 647 135.5L 647 130L 641.5 130L 636 130L 636 135.5z"/>
<path style="stroke:none; fill:#000000" d="M 64 344.5L 64 350L 69.5 350L 75 350L 75 344.5L 75 339L 69.5 339L 64 339L 64 344.5z"/>
<path style="stroke:none; fill:#000000" d="M 713 377.5L 713 383L 718.5 383L 724 383L 724 388.5L 724 394L 713 394L 702 394L 702 399.5L 702 405L 713 405L 724 405L 724 399.5L 724 394L 729.5 394L 735 394L 735 383L 735 372L 724 372L 713 372L 713 377.5z"/>
<path style="stroke:none; fill:#000000" d="M 713 427L 713 438L 696.5 438L 680 438L 680 443.5L 680 449L 696.5 449L 713 449L 713 443.5L 713 438L 724 438L 735 438L 735 427L 735 416L 724 416L 713 416L 713 427z"/>
<path style="stroke:none; fill:#000000" d="M 680 465.5L 680 471L 685.5 471L 691 471L 691 465.5L 691 460L 685.5 460L 680 460L 680 465.5z"/>
<path style="stroke:none; fill:#000000" d="M 713 465.5L 713 471L 718.5 471L 724 471L 724 476.5L 724 482L 718.5 482L 713 482L 713 487.5L 713 493L 724 493L 735 493L 735 476.5L 735 460L 724 460L 713 460L 713 465.5z"/>
<path style="stroke:none; fill:#000000" d="M 64 476.5L 64 482L 69.5 482L 75 482L 75 476.5L 75 471L 69.5 471L 64 471L 64 476.5z"/>
<path style="stroke:none; fill:#000000" d="M 691 487.5L 691 493L 696.5 493L 702 493L 702 487.5L 702 482L 696.5 482L 691 482L 691 487.5z"/>
<path style="stroke:none; fill:#000000" d="M 64 542.5L 64 548L 75 548L 86 548L 86 542.5L 86 537L 75 537L 64 537L 64 542.5z"/>
<path style="stroke:none; fill:#000000" d="M 273 575.5L 273 581L 278.5 581L 284 581L 284 575.5L 284 570L 278.5 570L 273 570L 273 575.5z"/>
<path style="stroke:none; fill:#000000" d="M 152 630.5L 152 636L 141 636L 130 636L 130 641.5L 130 647L 141 647L 152 647L 152 652.5L 152 658L 157.5 658L 163 658L 163 652.5L 163 647L 157.5 647L 152 647L 152 641.5L 152 636L 157.5 636L 163 636L 163 630.5L 163 625L 157.5 625L 152 625L 152 630.5z"/>
<path style="stroke:none; fill:#000000" d="M 64 696.5L 64 735L 102.5 735L 141 735L 141 696.5L 141 658L 102.5 658L 64 658L 64 696.5zM 130 696.5L 130 724L 102.5 724L 75 724L 75 696.5L 75 669L 102.5 669L 130 669L 130 696.5z"/>
<path style="stroke:none; fill:#000000" d="M 86 696.5L 86 713L 102.5 713L 119 713L 119 696.5L 119 680L 102.5 680L 86 680L 86 696.5z"/>
<path style="stroke:none; fill:#000000" d="M 273 663.5L 273 669L 267.5 669L 262 669L 262 674.5L 262 680L 267.5 680L 273 680L 273 674.5L 273 669L 278.5 669L 284 669L 284 663.5L 284 658L 278.5 658L 273 658L 273 663.5z"/>
<path style="stroke:none; fill:#000000" d="M 317 696.5L 317 702L 322.5 702L 328 702L 328 696.5L 328 691L 322.5 691L 317 691L 317 696.5z"/>
<path style="stroke:none; fill:#000000" d="M 581 707.5L 581 713L 586.5 713L 592 713L 592 724L 592 735L 597.5 735L 603 735L 603 724L 603 713L 608.5 713L 614 713L 614 707.5L 614 702L 597.5 702L 581 702L 581 707.5z"/>
</g>
</g>
</svg>